<?xml version="1.0" standalone="no"?>
<!DOCTYPE svg PUBLIC "-//W3C//DTD SVG 1.1//EN" "http://www.w3.org/Graphics/SVG/1.1/DTD/svg11.dtd" >
<svg xmlns="http://www.w3.org/2000/svg" xmlns:xlink="http://www.w3.org/1999/xlink" version="1.1">
<metadata>
Created by FontForge 20161116 at Thu Feb 20 05:22:57 2014
 By Jimmy Wärting
Copyright \(c\) 2012 by Fontsmith Ltd. All rights reserved.
</metadata>
<defs>
<font id="FSElliotPro" horiz-adv-x="576" >
  <font-face 
    font-family="FS Elliot Pro"
    font-weight="400"
    font-stretch="normal"
    units-per-em="1000"
    panose-1="2 0 5 3 4 0 0 2 0 4"
    ascent="800"
    descent="-200"
    x-height="486"
    cap-height="672"
    bbox="-177 -282 1205 900"
    underline-thickness="50"
    underline-position="-100"
    unicode-range="U+000D-FB04"
  />
<missing-glyph horiz-adv-x="500" 
d="M488 0h-476v672h476v-672zM60 580v-488l162 244zM250 292l-162 -244h324zM412 624h-324l162 -244zM440 580l-162 -244l162 -244v488z" />
    <glyph glyph-name="f_f" unicode="ff" horiz-adv-x="681" 
d="M127 423h-101v63h101v88c0 84 59 142 146 142c32 0 64 -4 97 -13l-11 -62c-28 7 -51 10 -69 10c-49 0 -84 -35 -84 -84v-81h232v88c0 84 61 142 146 142c32 0 64 -4 97 -13l-11 -62c-28 7 -51 10 -69 10c-49 0 -83 -35 -83 -84v-81h136v-63h-136v-423h-80v423h-232v-423
h-79v423z" />
    <glyph glyph-name="fi" unicode="fi" horiz-adv-x="580" 
d="M127 423h-101v63h101v67c0 48 17 87 50 117c34 31 77 46 128 46c47 0 97 -8 152 -25l-16 -62c-49 15 -90 23 -124 23c-65 0 -111 -42 -111 -102v-64h296v-486h-80v423h-216v-423h-79v423z" />
    <glyph glyph-name="fl" unicode="fl" horiz-adv-x="628" 
d="M127 423h-101v63h101v67c0 49 17 88 50 118c34 30 78 45 131 45c49 0 114 -7 194 -20v-584c0 -36 23 -59 59 -59c11 0 27 2 47 7l10 -63c-28 -6 -53 -9 -75 -9c-73 0 -121 46 -121 117v536c-39 7 -75 11 -108 11c-64 0 -108 -41 -108 -102v-64h137v-63h-137v-423h-79v423
z" />
    <glyph glyph-name="f_f_i" unicode="ffi" horiz-adv-x="892" 
d="M127 423h-101v63h101v88c0 84 59 142 146 142c32 0 64 -4 97 -13l-11 -62c-28 7 -51 10 -69 10c-49 0 -84 -35 -84 -84v-81h232v67c0 48 17 87 50 117c34 31 77 46 129 46c46 0 96 -8 151 -25l-16 -62c-47 15 -89 23 -124 23c-64 0 -110 -42 -110 -102v-64h295v-486h-80
v423h-215v-423h-80v423h-232v-423h-79v423z" />
    <glyph glyph-name="f_f_l" unicode="ffl" horiz-adv-x="940" 
d="M127 423h-101v63h101v88c0 84 59 142 146 142c32 0 64 -4 97 -13l-11 -62c-28 7 -51 10 -69 10c-49 0 -84 -35 -84 -84v-81h232v67c0 49 17 88 51 118s78 45 131 45c50 0 114 -7 193 -20v-584c0 -36 23 -59 59 -59c11 0 27 2 48 7l9 -63c-28 -6 -53 -9 -75 -9
c-73 0 -121 46 -121 117v536c-39 7 -75 11 -108 11c-64 0 -107 -41 -107 -102v-64h136v-63h-136v-423h-80v423h-232v-423h-79v423z" />
    <glyph glyph-name=".notdef" horiz-adv-x="500" 
d="M488 0h-476v672h476v-672zM60 580v-488l162 244zM250 292l-162 -244h324zM412 624h-324l162 -244zM440 580l-162 -244l162 -244v488z" />
    <glyph glyph-name="NULL" horiz-adv-x="0" 
 />
    <glyph glyph-name="NULL" horiz-adv-x="0" 
 />
    <glyph glyph-name="CR.001" horiz-adv-x="333" 
 />
    <glyph glyph-name="CR" unicode="&#xd;" horiz-adv-x="240" 
 />
    <glyph glyph-name="space" unicode=" " horiz-adv-x="240" 
 />
    <glyph glyph-name="exclam" unicode="!" horiz-adv-x="263" 
d="M132 97c31 0 53 -22 53 -53s-22 -53 -53 -53c-72 -6 -70 112 0 106zM98 209l-7 463h81l-7 -463h-67z" />
    <glyph glyph-name="quotedbl" unicode="&#x22;" horiz-adv-x="404" 
d="M77 451l-7 221h75l-7 -221h-61zM266 451l-7 221h75l-7 -221h-61z" />
    <glyph glyph-name="numbersign" unicode="#" horiz-adv-x="652" 
d="M138 179h-122v62h134l36 190h-122v62h134l35 185l62 -9l-33 -176h188l35 185l62 -9l-33 -176h122v-62h-134l-37 -190h122v-62h-134l-35 -185l-62 9l34 176h-188l-35 -185l-62 9zM250 431l-36 -190h188l36 190h-188z" />
    <glyph glyph-name="dollar" unicode="$" 
d="M80 81l19 63c71 -29 132 -43 183 -43c81 0 133 37 133 97c0 149 -331 65 -331 280c0 85 66 144 170 155v167h68v-166c45 -4 96 -17 154 -39l-19 -64c-65 27 -119 40 -163 40c-79 0 -129 -37 -129 -93c0 -145 331 -58 331 -280c0 -88 -69 -150 -174 -159v-167h-68v166
c-55 3 -113 17 -174 43z" />
    <glyph glyph-name="percent" unicode="%" horiz-adv-x="864" 
d="M44 504c0 53 16 96 47 129c31 34 71 51 120 51s88 -17 119 -51c31 -33 47 -76 47 -129s-16 -96 -47 -130c-31 -33 -70 -50 -119 -50s-89 17 -120 50c-31 34 -47 77 -47 130zM105 504c0 -77 43 -131 106 -131c61 0 105 52 105 131c0 77 -44 131 -105 131
s-106 -54 -106 -131zM201 -16l-42 32l504 672l42 -32zM487 168c0 53 15 96 46 129c31 34 71 51 120 51s89 -17 120 -51c31 -33 47 -76 47 -129s-16 -96 -47 -130c-31 -33 -71 -50 -120 -50s-89 17 -120 50s-46 77 -46 130zM548 168c0 -79 42 -131 105 -131s106 54 106 131
s-44 131 -107 131c-61 0 -104 -54 -104 -131z" />
    <glyph glyph-name="ampersand" unicode="&#x26;" horiz-adv-x="641" 
d="M41 182c0 78 52 144 157 199c-57 60 -85 101 -85 154c0 88 71 149 172 149c48 0 87 -13 118 -39s47 -60 47 -101c0 -68 -41 -119 -148 -178l171 -184c25 43 37 91 38 144h68c-2 -74 -22 -139 -59 -196l120 -130h-90l-81 87c-59 -64 -129 -99 -202 -99
c-66 0 -120 18 -163 54c-42 37 -63 83 -63 140zM117 188c0 -81 67 -138 156 -138c56 0 111 30 154 83l-190 206c-80 -44 -120 -94 -120 -151zM186 532c0 -39 25 -71 76 -122c84 44 117 82 117 127c0 51 -38 85 -94 85c-59 0 -99 -37 -99 -90z" />
    <glyph glyph-name="quotesingle" unicode="'" horiz-adv-x="215" 
d="M77 451l-7 221h75l-7 -221h-61z" />
    <glyph glyph-name="parenleft" unicode="(" horiz-adv-x="337" 
d="M79 288c0 167 60 320 171 441l57 -39c-205 -211 -205 -593 0 -804l-57 -39c-111 120 -171 274 -171 441z" />
    <glyph glyph-name="parenright" unicode=")" horiz-adv-x="337" 
d="M88 -153l-57 39c204 211 204 593 0 804l57 39c111 -120 171 -274 171 -441c0 -165 -60 -320 -171 -441z" />
    <glyph glyph-name="asterisk" unicode="*" horiz-adv-x="492" 
d="M200 453l-157 52l18 53l156 -51v165h57v-165l157 51l17 -53l-157 -52l97 -133l-45 -33l-97 135l-97 -135l-45 33z" />
    <glyph glyph-name="plus" unicode="+" 
d="M254 254h-202v68h202v202h68v-202h202v-68h-202v-202h-68v202z" />
    <glyph glyph-name="comma" unicode="," horiz-adv-x="247" 
d="M73 -160l-25 34c46 35 70 76 73 121c-29 -1 -53 20 -53 51c0 33 23 56 56 56c36 0 59 -30 59 -77c0 -73 -41 -140 -110 -185z" />
    <glyph glyph-name="hyphen" unicode="-" horiz-adv-x="320" 
d="M294 218h-268v62h268v-62z" />
    <glyph glyph-name="period" unicode="." horiz-adv-x="247" 
d="M68 46c0 33 23 56 56 56c32 0 56 -23 56 -56c0 -32 -24 -55 -56 -55c-33 0 -56 22 -56 55z" />
    <glyph glyph-name="slash" unicode="/" horiz-adv-x="384" 
d="M73 -142l-64 21l302 839l64 -21z" />
    <glyph glyph-name="zero" unicode="0" 
d="M107 81c-44 63 -66 148 -66 255s22 192 66 254c45 63 105 94 181 94s136 -31 180 -94c45 -62 67 -147 67 -254s-22 -192 -67 -255c-44 -62 -104 -93 -180 -93s-136 31 -181 93zM117 336c0 -172 66 -281 171 -281s171 109 171 281s-66 281 -171 281s-171 -109 -171 -281z
" />
    <glyph glyph-name="one" unicode="1" 
d="M127 492l-28 56l215 124h67v-672h-80v592z" />
    <glyph glyph-name="two" unicode="2" 
d="M487 0h-432v51l263 263c55 55 82 109 82 163c0 83 -59 139 -143 139c-48 0 -103 -20 -165 -59l-32 60c73 45 144 67 212 67c61 0 110 -18 149 -55s58 -84 58 -142c0 -71 -32 -139 -96 -203l-219 -219h323v-65z" />
    <glyph glyph-name="three" unicode="3" 
d="M52 39l26 60c67 -31 128 -46 184 -46c85 0 146 53 146 128c0 79 -70 133 -174 133h-41v60h41c95 0 160 52 160 125c0 71 -52 120 -131 120c-50 0 -106 -14 -169 -42l-26 60c69 31 138 47 207 47c59 0 106 -17 143 -50s55 -76 55 -128c0 -77 -47 -137 -123 -160
c84 -23 139 -91 139 -172c0 -55 -20 -100 -60 -135c-39 -34 -91 -51 -154 -51c-76 0 -150 17 -223 51z" />
    <glyph glyph-name="four" unicode="4" 
d="M358 159h-327v55l325 458h76v-451h103v-62h-103v-159h-74v159zM358 572l-249 -351h249v351z" />
    <glyph glyph-name="five" unicode="5" 
d="M63 47l31 60c56 -35 111 -52 166 -52c97 0 161 58 161 143c0 91 -62 146 -169 146c-46 0 -95 -6 -147 -18v346h371v-65h-299v-215c35 7 68 11 98 11c137 0 225 -81 225 -206c0 -62 -22 -112 -65 -151s-99 -58 -169 -58s-138 20 -203 59z" />
    <glyph glyph-name="six" unicode="6" 
d="M60 297c0 247 100 387 276 387c56 0 111 -13 164 -40l-27 -59c-48 23 -93 35 -134 35c-129 0 -204 -104 -204 -296c29 64 100 105 181 105c63 0 115 -20 154 -60c39 -39 59 -91 59 -155c0 -65 -21 -119 -64 -162s-96 -64 -161 -64c-152 0 -244 112 -244 309zM143 225
c0 -51 15 -92 44 -125c30 -32 68 -48 114 -48c43 0 80 15 109 46c30 31 45 68 45 113c0 93 -61 156 -152 156c-45 0 -83 -14 -114 -41s-46 -61 -46 -101z" />
    <glyph glyph-name="seven" unicode="7" 
d="M402 607h-337v65h424v-51l-267 -621h-83z" />
    <glyph glyph-name="eight" unicode="8" 
d="M52 173c0 84 56 148 155 171c-83 21 -139 83 -139 163c0 52 20 94 61 127s94 50 159 50s117 -17 158 -50s62 -75 62 -127c0 -80 -56 -142 -139 -163c99 -23 155 -87 155 -171c0 -55 -22 -100 -66 -134c-43 -34 -100 -51 -170 -51s-127 17 -171 51c-43 34 -65 79 -65 134z
M132 177c0 -75 64 -127 156 -127s156 52 156 127c0 72 -59 121 -156 137c-97 -16 -156 -65 -156 -137zM145 503c0 -69 58 -114 143 -129c87 15 143 60 143 129c0 68 -60 119 -143 119c-41 0 -75 -11 -102 -34s-41 -51 -41 -85z" />
    <glyph glyph-name="nine" unicode="9" 
d="M47 458c0 65 21 118 64 161s96 65 161 65c152 0 244 -112 244 -309c0 -247 -99 -387 -276 -387c-56 0 -111 13 -164 40l27 59c48 -23 93 -35 134 -35c129 0 203 104 204 296c-29 -63 -100 -105 -181 -105c-63 0 -115 20 -154 59c-39 40 -59 92 -59 156zM121 461
c0 -93 61 -156 152 -156c45 0 82 14 113 41s47 61 47 101c0 50 -15 91 -45 124c-29 33 -67 49 -113 49c-43 0 -80 -15 -110 -46c-29 -31 -44 -68 -44 -113z" />
    <glyph glyph-name="colon" unicode=":" horiz-adv-x="263" 
d="M76 46c0 33 23 56 56 56c32 0 56 -23 56 -56c0 -32 -24 -55 -56 -55c-33 0 -56 22 -56 55zM76 439c0 33 23 56 56 56c32 0 56 -23 56 -56c0 -32 -24 -55 -56 -55c-33 0 -56 23 -56 55z" />
    <glyph glyph-name="semicolon" unicode=";" horiz-adv-x="263" 
d="M81 -160l-25 34c46 35 70 75 73 121c-31 -1 -53 20 -53 51c0 33 23 56 56 56c36 0 59 -30 59 -77c0 -73 -41 -140 -110 -185zM76 439c0 33 23 56 56 56c32 0 56 -23 56 -56c0 -32 -24 -55 -56 -55c-33 0 -56 23 -56 55z" />
    <glyph glyph-name="less" unicode="&#x3c;" 
d="M503 46l-451 208v68l451 208l28 -65l-386 -177l386 -177z" />
    <glyph glyph-name="equal" unicode="=" 
d="M524 146h-472v69h472v-69zM524 361h-472v69h472v-69z" />
    <glyph glyph-name="greater" unicode="&#x3e;" 
d="M73 46l-28 65l386 177l-386 177l28 65l451 -208v-68z" />
    <glyph glyph-name="question" unicode="?" horiz-adv-x="460" 
d="M63 564l-32 59c60 41 123 61 188 61c57 0 103 -17 139 -51c36 -33 54 -76 54 -127c0 -145 -159 -189 -164 -289l-1 -8h-67v14c0 122 152 163 152 273c0 71 -52 120 -125 120c-43 0 -91 -17 -144 -52zM161 45c-4 47 61 69 91 37c32 -28 9 -95 -38 -91c-32 0 -53 22 -53 54
z" />
    <glyph glyph-name="at" unicode="@" horiz-adv-x="972" 
d="M49 243c-4 257 192 451 449 447c243 4 427 -169 424 -396c0 -80 -18 -145 -54 -195c-35 -49 -82 -74 -140 -74c-56 0 -100 33 -112 82c-33 -53 -88 -82 -153 -82c-55 0 -100 20 -136 61s-54 94 -54 157s18 115 54 156s81 62 136 62c61 0 110 -27 139 -75l8 65h66v-297
c0 -43 22 -70 61 -70c69 0 117 83 117 204c3 197 -151 344 -356 341c-219 3 -383 -163 -380 -386c0 -225 157 -386 380 -386c75 0 157 24 246 73l31 -54c-99 -53 -191 -80 -277 -80c-259 -4 -453 190 -449 447zM482 88c69 0 115 52 115 124v62c0 72 -46 124 -115 124
c-76 0 -129 -64 -129 -155s53 -155 129 -155z" />
    <glyph glyph-name="A" unicode="A" horiz-adv-x="671" 
d="M104 0h-84l277 672h77l277 -672h-84l-74 184h-315zM335 578l-134 -331h268z" />
    <glyph glyph-name="B" unicode="B" horiz-adv-x="652" 
d="M387 0h-287v672h271c59 0 106 -16 143 -49c37 -32 56 -74 56 -125c0 -68 -40 -125 -103 -150c79 -23 127 -86 127 -166c0 -54 -19 -98 -58 -132c-38 -33 -88 -50 -149 -50zM180 316v-254h196c81 0 137 52 137 127s-56 127 -137 127h-196zM180 610v-238h181
c76 0 129 50 129 119s-53 119 -129 119h-181z" />
    <glyph glyph-name="C" unicode="C" horiz-adv-x="646" 
d="M380 684c80 0 156 -25 227 -74l-35 -56c-58 41 -118 62 -181 62c-77 0 -139 -26 -186 -78s-71 -120 -71 -203s24 -150 71 -202c47 -51 109 -77 186 -77c63 0 123 21 181 62l35 -56c-71 -49 -147 -74 -227 -74c-98 0 -178 32 -239 97s-92 148 -92 251s31 186 92 251
s141 97 239 97z" />
    <glyph glyph-name="D" unicode="D" horiz-adv-x="719" 
d="M327 0h-227v672h227c102 0 184 -31 247 -93s95 -143 95 -243c0 -197 -139 -336 -342 -336zM182 607v-542h137c79 0 143 25 192 75c49 51 74 116 74 196s-25 145 -74 195c-49 51 -113 76 -192 76h-137z" />
    <glyph glyph-name="E" unicode="E" horiz-adv-x="598" 
d="M545 0h-445v672h429v-64h-347v-233h315v-62h-315v-249h363v-64z" />
    <glyph glyph-name="F" unicode="F" horiz-adv-x="582" 
d="M182 0h-82v672h429v-65h-347v-256h315v-65h-315v-286z" />
    <glyph glyph-name="G" unicode="G" horiz-adv-x="703" 
d="M49 336c0 204 139 348 339 348c77 0 156 -22 235 -67l-31 -57c-71 39 -136 59 -195 59c-79 0 -143 -27 -192 -80s-74 -121 -74 -204s25 -150 75 -203c51 -53 116 -79 196 -79c55 0 106 11 155 34v200h-169v62h246v-306c-79 -37 -158 -55 -238 -55
c-201 -3 -350 146 -347 348z" />
    <glyph glyph-name="H" unicode="H" horiz-adv-x="767" 
d="M182 0h-82v672h82v-295h402v295h83v-672h-83v311h-402v-311z" />
    <glyph glyph-name="I" unicode="I" horiz-adv-x="282" 
d="M182 0h-82v672h82v-672z" />
    <glyph glyph-name="J" unicode="J" horiz-adv-x="444" 
d="M23 5l12 66c36 -10 70 -15 101 -15c75 0 125 50 125 125v491h83v-498c0 -55 -18 -100 -53 -135c-35 -34 -81 -51 -137 -51c-41 0 -84 6 -131 17z" />
    <glyph glyph-name="K" unicode="K" horiz-adv-x="663" 
d="M180 0h-80v672h80v-355l344 355h98l-306 -314l320 -358h-99l-277 308l-80 -80v-228z" />
    <glyph glyph-name="L" unicode="L" horiz-adv-x="534" 
d="M508 0h-408v672h82v-607h326v-65z" />
    <glyph glyph-name="M" unicode="M" horiz-adv-x="855" 
d="M177 0h-77v672h81l246 -336l247 336h81v-672h-77v558l-227 -309h-48l-226 309v-558z" />
    <glyph glyph-name="N" unicode="N" horiz-adv-x="767" 
d="M177 0h-77v672h81l409 -558v558h77v-672h-81l-409 558v-558z" />
    <glyph glyph-name="O" unicode="O" horiz-adv-x="767" 
d="M383 684c192 3 337 -147 334 -348c3 -202 -142 -351 -334 -348c-192 -3 -337 146 -334 348c-3 201 142 351 334 348zM383 55c73 0 133 26 180 78c47 53 70 120 70 202c0 83 -23 150 -70 203s-107 79 -180 79s-133 -26 -180 -79c-46 -53 -69 -120 -69 -203
c0 -82 23 -149 69 -202c47 -52 107 -78 180 -78z" />
    <glyph glyph-name="P" unicode="P" horiz-adv-x="620" 
d="M180 0h-80v672h253c66 0 120 -20 162 -59s63 -90 63 -152c0 -61 -21 -112 -64 -151c-42 -39 -96 -59 -161 -59h-173v-251zM180 607v-291h161c45 0 83 13 112 40s44 62 44 104c0 43 -15 78 -44 105c-29 28 -67 42 -112 42h-161z" />
    <glyph glyph-name="Q" unicode="Q" horiz-adv-x="767" 
d="M383 684c192 3 337 -147 334 -348c0 -132 -58 -239 -154 -298l164 -120l-41 -52l-192 141c-35 -13 -72 -19 -111 -19c-192 -3 -337 146 -334 348c-3 201 142 351 334 348zM383 55c73 0 133 26 180 78c47 53 70 120 70 202c0 83 -23 150 -70 203s-107 79 -180 79
s-133 -26 -180 -79c-46 -53 -69 -120 -69 -203c0 -82 23 -149 69 -202c47 -52 107 -78 180 -78z" />
    <glyph glyph-name="R" unicode="R" horiz-adv-x="652" 
d="M180 0h-80v672h256c63 0 115 -19 156 -56s61 -86 61 -145c0 -101 -68 -179 -169 -192l196 -279h-91l-185 267h-144v-267zM180 607v-275h164c88 0 148 56 148 137s-60 138 -148 138h-164z" />
    <glyph glyph-name="S" unicode="S" horiz-adv-x="580" 
d="M51 41l20 64c85 -33 156 -50 213 -50c99 0 163 46 163 117c0 184 -392 83 -392 332c0 53 22 96 65 129c44 34 101 51 170 51c67 0 138 -15 215 -45l-20 -64c-69 28 -132 42 -189 42c-96 0 -160 -45 -160 -113c0 -179 393 -79 393 -332c0 -55 -22 -99 -67 -133
c-44 -34 -101 -51 -172 -51c-73 0 -152 18 -239 53z" />
    <glyph glyph-name="T" unicode="T" horiz-adv-x="598" 
d="M258 607h-232v65h546v-65h-232v-607h-82v607z" />
    <glyph glyph-name="U" unicode="U" horiz-adv-x="767" 
d="M92 257v415h82v-412c0 -61 20 -110 59 -148s89 -57 150 -57s111 19 150 57s59 87 59 148v412h83v-415c2 -156 -127 -272 -292 -269c-165 -3 -294 113 -291 269z" />
    <glyph glyph-name="V" unicode="V" horiz-adv-x="671" 
d="M297 0l-277 672h87l228 -570l229 570h87l-277 -672h-77z" />
    <glyph glyph-name="W" unicode="W" horiz-adv-x="1007" 
d="M247 0l-215 672h83l175 -570l174 570h78l175 -570l174 570h84l-215 -672h-82l-175 570l-174 -570h-82z" />
    <glyph glyph-name="X" unicode="X" horiz-adv-x="679" 
d="M124 0h-94l256 344l-244 328h92l205 -275l205 275h93l-245 -328l257 -344h-94l-216 291z" />
    <glyph glyph-name="Y" unicode="Y" horiz-adv-x="599" 
d="M258 287l-246 385h91l197 -311l196 311h92l-247 -385v-287h-83v287z" />
    <glyph glyph-name="Z" unicode="Z" horiz-adv-x="628" 
d="M577 0h-526v48l406 559h-394v65h502v-48l-406 -559h418v-65z" />
    <glyph glyph-name="bracketleft" unicode="[" horiz-adv-x="337" 
d="M301 -134h-196v844h196v-66h-122v-712h122v-66z" />
    <glyph glyph-name="backslash" unicode="\" horiz-adv-x="384" 
d="M311 -142l-302 839l64 21l302 -839z" />
    <glyph glyph-name="bracketright" unicode="]" horiz-adv-x="337" 
d="M36 -134v66h123v712h-123v66h197v-844h-197z" />
    <glyph glyph-name="asciicircum" unicode="^" 
d="M111 191l-65 25l208 456h68l208 -456l-65 -25l-177 389z" />
    <glyph glyph-name="underscore" unicode="_" horiz-adv-x="480" 
d="M0 -159v62h480v-62h-480z" />
    <glyph glyph-name="grave" unicode="`" horiz-adv-x="240" 
d="M158 551l-175 111l36 52l170 -118z" />
    <glyph glyph-name="a" unicode="a" horiz-adv-x="537" 
d="M44 134c0 101 83 161 222 161c36 0 72 -5 109 -14v50c0 63 -48 106 -119 106c-51 0 -104 -12 -161 -36l-22 58c69 26 133 39 192 39c55 0 100 -16 134 -47c35 -31 52 -71 52 -122v-235c0 -27 17 -44 44 -44c3 0 12 1 26 3l6 -60c-20 -3 -37 -5 -52 -5
c-52 0 -88 30 -93 81c-39 -51 -102 -81 -169 -81c-48 0 -88 14 -121 41c-32 28 -48 63 -48 105zM122 139c0 -53 47 -93 110 -93c84 0 143 59 143 146v41c-35 8 -69 12 -100 12c-96 0 -153 -39 -153 -106z" />
    <glyph glyph-name="b" unicode="b" horiz-adv-x="583" 
d="M143 0h-64v704h79v-295c36 57 93 89 162 89c63 0 116 -24 157 -72s62 -109 62 -183s-21 -135 -62 -183s-94 -72 -157 -72c-73 0 -134 33 -167 93zM157 282v-78c0 -89 59 -151 144 -151c45 0 83 18 112 53c30 36 45 82 45 137s-15 101 -45 136c-29 36 -67 54 -112 54
c-85 0 -144 -62 -144 -151z" />
    <glyph glyph-name="c" unicode="c" horiz-adv-x="492" 
d="M44 243c0 75 23 136 69 183c46 48 105 72 176 72c60 0 117 -18 172 -55l-33 -55c-43 29 -86 44 -129 44c-51 0 -93 -18 -125 -53s-48 -80 -48 -136s16 -102 48 -137s74 -53 125 -53c43 0 86 15 129 45l33 -55c-55 -37 -112 -55 -172 -55c-71 0 -130 24 -176 71
c-46 48 -69 109 -69 184z" />
    <glyph glyph-name="d" unicode="d" horiz-adv-x="583" 
d="M44 243c0 74 21 135 62 183s94 72 158 72c69 0 126 -32 161 -89v295h80v-704h-64l-10 81c-35 -60 -95 -93 -167 -93c-64 0 -117 24 -158 71c-41 48 -62 109 -62 184zM126 243c0 -55 15 -101 44 -137c29 -35 67 -53 113 -53c84 0 143 62 143 151v78c0 88 -59 151 -143 151
c-46 0 -84 -18 -113 -54c-29 -35 -44 -81 -44 -136z" />
    <glyph glyph-name="e" unicode="e" horiz-adv-x="537" 
d="M281 498c65 0 117 -23 158 -69c41 -45 62 -104 62 -177c0 -13 0 -22 -1 -29h-376c3 -51 22 -93 55 -126c33 -32 75 -48 126 -48c47 0 96 14 147 41l25 -55c-63 -31 -123 -47 -180 -47c-74 0 -135 24 -182 71c-47 48 -71 109 -71 184s22 136 66 183c44 48 101 72 171 72z
M124 274h300c-4 96 -62 163 -143 163c-87 0 -149 -64 -157 -163z" />
    <glyph glyph-name="f" unicode="f" horiz-adv-x="369" 
d="M127 423h-101v63h101v88c0 84 59 142 146 142c32 0 64 -4 97 -13l-11 -62c-28 7 -51 10 -69 10c-49 0 -84 -35 -84 -84v-81h137v-63h-137v-423h-79v423z" />
    <glyph glyph-name="g" unicode="g" horiz-adv-x="583" 
d="M44 243c0 74 21 135 62 183s94 72 158 72c72 0 132 -33 167 -93l10 81h64v-495c0 -61 -23 -112 -68 -151c-45 -40 -102 -60 -172 -60c-59 0 -123 14 -192 43l24 60c60 -26 114 -39 162 -39c97 0 166 59 166 144v88c-35 -56 -93 -88 -161 -88c-64 0 -117 24 -158 71
c-41 48 -62 109 -62 184zM126 243c0 -55 15 -101 44 -137c29 -35 67 -53 113 -53c84 0 143 62 143 151v78c0 88 -59 151 -143 151c-46 0 -84 -18 -113 -54c-29 -35 -44 -81 -44 -136z" />
    <glyph glyph-name="h" unicode="h" horiz-adv-x="583" 
d="M158 0h-79v704h79v-303c33 61 95 97 170 97c54 0 98 -17 133 -51c35 -33 52 -77 52 -130v-317h-80v305c0 75 -52 126 -128 126c-42 0 -77 -15 -105 -44s-42 -67 -42 -113v-274z" />
    <glyph glyph-name="i" unicode="i" horiz-adv-x="237" 
d="M65 634c0 31 22 53 54 53c31 0 53 -22 53 -53s-22 -53 -53 -53c-32 0 -54 22 -54 53zM158 0h-79v486h79v-486z" />
    <glyph glyph-name="j" unicode="j" horiz-adv-x="245" 
d="M-77 -207l11 62c28 -7 51 -10 69 -10c49 0 84 35 84 84v557h79v-564c0 -84 -59 -142 -146 -142c-31 0 -63 4 -97 13zM127 687c31 0 53 -22 53 -53s-22 -53 -53 -53c-32 0 -54 21 -54 52c0 32 22 54 54 54z" />
    <glyph glyph-name="k" unicode="k" horiz-adv-x="509" 
d="M156 0h-77v704h77v-459l230 241h93l-219 -227l227 -259h-94l-185 211l-52 -52v-159z" />
    <glyph glyph-name="l" unicode="l" horiz-adv-x="285" 
d="M79 105v599h79v-592c0 -36 22 -59 59 -59c12 0 28 2 48 7l10 -63c-29 -6 -54 -9 -75 -9c-75 0 -121 45 -121 117z" />
    <glyph glyph-name="m" unicode="m" horiz-adv-x="905" 
d="M158 0h-79v486h64l10 -85c35 63 94 97 167 97c76 0 137 -41 160 -106c39 67 102 106 178 106c52 0 94 -16 127 -49c33 -32 50 -73 50 -124v-325h-80v313c0 69 -50 118 -119 118c-41 0 -74 -14 -100 -42s-39 -64 -39 -107v-282h-80v313c0 69 -49 118 -120 118
c-81 0 -139 -61 -139 -149v-282z" />
    <glyph glyph-name="n" unicode="n" horiz-adv-x="583" 
d="M158 0h-79v486h64l10 -89c33 64 98 101 175 101c54 0 98 -17 133 -51c35 -33 52 -77 52 -130v-317h-80v305c0 75 -52 126 -128 126c-42 0 -77 -15 -105 -44s-42 -67 -42 -113v-274z" />
    <glyph glyph-name="o" unicode="o" horiz-adv-x="583" 
d="M292 498c72 0 131 -24 177 -72c47 -47 70 -108 70 -183s-23 -136 -70 -184c-46 -47 -105 -71 -177 -71c-73 0 -132 24 -179 71c-46 48 -69 109 -69 184s23 136 69 183c47 48 106 72 179 72zM126 243c0 -56 15 -102 46 -138c31 -35 71 -53 120 -53s88 18 119 53
c31 36 47 82 47 138s-16 102 -47 137c-31 36 -70 54 -119 54s-89 -18 -120 -54c-31 -35 -46 -81 -46 -137z" />
    <glyph glyph-name="p" unicode="p" horiz-adv-x="583" 
d="M158 -208h-79v694h64l10 -81c33 60 94 93 167 93c63 0 116 -24 157 -72s62 -109 62 -183s-21 -135 -62 -183s-94 -72 -157 -72c-69 0 -126 32 -162 88v-284zM157 282v-78c0 -89 59 -151 144 -151c45 0 83 18 112 53c30 36 45 82 45 137s-15 101 -45 136
c-29 36 -67 54 -112 54c-85 0 -144 -62 -144 -151z" />
    <glyph glyph-name="q" unicode="q" horiz-adv-x="583" 
d="M44 243c0 74 21 135 62 183s94 72 158 72c72 0 132 -33 167 -93l10 81h64v-694h-80v284c-35 -56 -93 -88 -161 -88c-64 0 -117 24 -158 71c-41 48 -62 109 -62 184zM126 243c0 -55 15 -101 44 -137c29 -35 67 -53 113 -53c84 0 143 62 143 151v78c0 88 -59 151 -143 151
c-46 0 -84 -18 -113 -54c-29 -35 -44 -81 -44 -136z" />
    <glyph glyph-name="r" unicode="r" horiz-adv-x="383" 
d="M158 0h-79v486h64l10 -92c24 61 82 100 151 100c17 0 38 -3 61 -8l-9 -65c-24 5 -43 7 -58 7c-84 0 -140 -66 -140 -165v-263z" />
    <glyph glyph-name="s" unicode="s" horiz-adv-x="449" 
d="M44 25l19 59c57 -23 109 -35 156 -35c65 0 108 32 108 79c0 124 -279 51 -279 234c0 39 16 72 49 97c33 26 76 39 128 39c53 0 107 -11 164 -34l-18 -59c-51 21 -98 32 -140 32c-63 0 -104 -30 -104 -75c0 -120 278 -48 278 -234c0 -83 -73 -140 -180 -140
c-57 0 -118 12 -181 37z" />
    <glyph glyph-name="t" unicode="t" horiz-adv-x="401" 
d="M127 423h-101v63h101v144h79v-144h153v-63h-153v-286c0 -49 35 -84 84 -84c18 0 41 3 69 10l11 -62c-34 -9 -66 -13 -97 -13c-87 0 -146 58 -146 142v293z" />
    <glyph glyph-name="u" unicode="u" horiz-adv-x="583" 
d="M71 169v317h79v-306c0 -73 53 -125 128 -125c42 0 77 15 105 44s42 67 42 113v274h80v-486h-64l-10 89c-33 -64 -99 -101 -176 -101c-54 0 -98 17 -133 50c-34 34 -51 78 -51 131z" />
    <glyph glyph-name="v" unicode="v" horiz-adv-x="519" 
d="M223 0l-200 486h83l154 -394l153 394h84l-200 -486h-74z" />
    <glyph glyph-name="w" unicode="w" horiz-adv-x="775" 
d="M190 0l-159 486h80l120 -392l119 392h75l120 -392l119 392h81l-160 -486h-78l-119 392l-120 -392h-78z" />
    <glyph glyph-name="x" unicode="x" horiz-adv-x="519" 
d="M116 0h-91l183 249l-175 237h89l138 -186l137 186h89l-175 -237l183 -249h-91l-143 198z" />
    <glyph glyph-name="y" unicode="y" horiz-adv-x="519" 
d="M224 4l-201 482h83l156 -394l151 394h84l-226 -559c-40 -103 -91 -147 -168 -147c-20 0 -43 3 -68 9l11 64c19 -5 36 -8 49 -8c49 0 79 28 104 96z" />
    <glyph glyph-name="z" unicode="z" horiz-adv-x="481" 
d="M437 0h-393v45l280 378h-272v63h377v-46l-280 -378h288v-62z" />
    <glyph glyph-name="braceleft" unicode="{" horiz-adv-x="337" 
d="M47 255h-16v66h16c48 0 84 36 84 85c0 16 -2 42 -7 77c-4 36 -6 63 -6 81c0 43 14 78 42 105c29 27 65 41 108 41h33v-66h-16c-53 0 -92 -38 -92 -95c0 -15 2 -40 6 -74c4 -33 6 -58 6 -75c0 -55 -27 -96 -75 -112c48 -16 75 -59 75 -112c0 -17 -2 -42 -6 -75
s-6 -58 -6 -74c0 -57 39 -95 92 -95h16v-66h-33c-43 0 -79 14 -108 41c-28 27 -42 62 -42 105c0 18 2 44 6 79c5 35 7 62 7 79c0 48 -36 85 -84 85z" />
    <glyph glyph-name="bar" unicode="|" horiz-adv-x="240" 
d="M154 -224h-68v960h68v-960z" />
    <glyph glyph-name="braceright" unicode="}" horiz-adv-x="337" 
d="M36 -134v66h16c53 0 92 38 92 95c0 15 -2 40 -6 73s-6 59 -6 76c0 53 27 96 75 112c-48 16 -75 57 -75 112c0 16 2 41 6 74c4 34 6 59 6 75c0 56 -39 95 -92 95h-16v66h34c43 0 79 -14 107 -41c29 -27 43 -62 43 -105c0 -18 -2 -45 -7 -80s-7 -61 -7 -78
c0 -48 36 -85 85 -85h16v-66h-16c-49 0 -85 -36 -85 -85c0 -16 2 -42 7 -78c5 -35 7 -62 7 -80c0 -43 -14 -78 -43 -105c-28 -27 -64 -41 -107 -41h-34z" />
    <glyph glyph-name="asciitilde" unicode="~" 
d="M78 234l-37 57c43 37 92 55 145 55c85 0 127 -48 204 -48c37 0 73 15 108 44l37 -57c-43 -37 -92 -55 -145 -55c-72 0 -140 48 -204 48c-37 0 -73 -15 -108 -44z" />
    <glyph glyph-name="nbspace" unicode="&#xa0;" horiz-adv-x="240" 
 />
    <glyph glyph-name="exclamdown" unicode="&#xa1;" horiz-adv-x="263" 
d="M185 442c0 -31 -22 -53 -53 -53c-49 -5 -71 60 -39 91c31 32 97 9 92 -38zM172 -186h-81l7 462h67z" />
    <glyph glyph-name="cent" unicode="&#xa2;" 
d="M286 586v150h68v-147c51 -3 101 -21 149 -53l-33 -55c-43 30 -86 45 -129 45c-51 0 -93 -18 -125 -53s-48 -81 -48 -137s16 -102 48 -137s74 -53 125 -53c43 0 86 15 129 45l33 -55c-48 -33 -98 -50 -149 -53v-147h-68v150c-59 9 -107 36 -144 81c-37 46 -55 102 -55 169
s18 123 55 168c37 46 85 73 144 82z" />
    <glyph glyph-name="sterling" unicode="&#xa3;" 
d="M524 0h-456v64h101v249h-85v62h85v125c0 55 18 99 55 133s85 51 144 51c46 0 95 -10 148 -31l-21 -60c-38 16 -75 24 -112 24c-79 0 -131 -50 -131 -123v-119h187v-62h-187v-249h272v-64z" />
    <glyph glyph-name="currency" unicode="&#xa4;" 
d="M100 100l-48 48l81 81c-22 28 -33 64 -33 107c0 42 11 78 32 107l-80 81l48 48l80 -81c29 22 65 33 108 33s78 -11 107 -33l81 81l48 -48l-81 -81c22 -29 33 -65 33 -107s-11 -78 -33 -107l81 -81l-48 -48l-81 81c-30 -22 -66 -33 -107 -33c-42 0 -78 11 -107 33z
M197 427c-23 -23 -35 -54 -35 -91s12 -68 35 -91s54 -34 91 -34s68 11 91 34s35 54 35 91s-12 68 -35 91s-54 35 -91 35s-68 -12 -91 -35z" />
    <glyph glyph-name="brokenbar" unicode="&#xa6;" horiz-adv-x="240" 
d="M154 -176h-68v384h68v-384zM154 304h-68v384h68v-384z" />
    <glyph glyph-name="section" unicode="&#xa7;" horiz-adv-x="529" 
d="M47 -127l20 63c71 -28 133 -42 184 -42c83 0 134 37 134 97c0 149 -334 71 -334 283c0 56 32 102 85 127c-46 27 -69 68 -69 124c0 47 19 86 57 115s88 44 149 44c57 0 121 -14 191 -41l-20 -64c-61 25 -116 38 -165 38c-80 0 -131 -37 -131 -92c0 -147 334 -65 334 -283
c0 -56 -29 -101 -80 -128c43 -28 64 -69 64 -123c0 -49 -19 -89 -58 -118c-38 -30 -88 -45 -151 -45c-65 0 -135 15 -210 45zM132 278c0 -47 27 -70 67 -88c15 -7 28 -12 41 -16c25 -7 67 -19 90 -27c44 16 71 50 71 91c-3 44 -23 70 -64 88c-15 7 -28 12 -39 15
c-23 8 -67 20 -87 27c-48 -15 -79 -49 -79 -90z" />
    <glyph glyph-name="dieresis" unicode="&#xa8;" horiz-adv-x="240" 
d="M-20 598c-19 19 -19 52 0 71s53 19 70 0c19 -19 19 -52 0 -71c-17 -17 -51 -17 -70 0zM190 598c-19 19 -19 52 0 71s53 19 70 0c19 -19 19 -52 0 -71c-17 -17 -51 -17 -70 0z" />
    <glyph glyph-name="copyright" unicode="&#xa9;" horiz-adv-x="832" 
d="M95 145c-31 56 -47 119 -47 190c0 143 66 259 178 322c56 31 119 47 190 47c141 0 258 -66 321 -178c31 -56 47 -120 47 -191c0 -141 -66 -257 -178 -320c-56 -31 -119 -47 -190 -47c-141 0 -258 66 -321 177zM416 13c189 0 323 134 323 323c0 125 -57 227 -156 282
c-49 27 -104 41 -167 41s-119 -14 -168 -41c-97 -55 -155 -157 -155 -282c0 -189 134 -323 323 -323zM428 552c50 0 98 -15 144 -46l-28 -43c-35 25 -72 37 -109 37c-89 0 -151 -67 -151 -164s62 -164 151 -164c37 0 74 12 109 37l28 -43c-46 -31 -94 -46 -144 -46
c-61 0 -111 20 -150 60c-39 41 -58 93 -58 156s19 115 58 155c39 41 89 61 150 61z" />
    <glyph glyph-name="guillemotleft" unicode="&#xab;" horiz-adv-x="538" 
d="M227 10l-198 221v36l198 220l48 -38l-168 -200l168 -200zM454 10l-198 221v36l198 220l48 -38l-168 -200l168 -200z" />
    <glyph glyph-name="logicalnot" unicode="&#xac;" 
d="M455 254h-403v68h472v-270h-69v202z" />
    <glyph glyph-name="uni00AD" unicode="&#xad;" horiz-adv-x="320" 
d="M294 218h-268v62h268v-62z" />
    <glyph glyph-name="registered" unicode="&#xae;" horiz-adv-x="832" 
d="M95 145c-31 56 -47 119 -47 190c0 143 66 259 178 322c56 31 119 47 190 47c141 0 258 -66 321 -178c31 -56 47 -120 47 -191c0 -141 -66 -257 -178 -320c-56 -31 -119 -47 -190 -47c-141 0 -258 66 -321 177zM416 13c189 0 323 134 323 323c0 125 -57 227 -156 282
c-49 27 -104 41 -167 41s-119 -14 -168 -41c-97 -55 -155 -157 -155 -282c0 -189 134 -323 323 -323zM334 128h-58v416h163c81 0 138 -52 138 -127c0 -63 -40 -111 -100 -120l114 -169h-66l-105 161h-86v-161zM334 495v-159h99c51 0 85 32 85 80s-34 79 -85 79h-99z" />
    <glyph glyph-name="overscore" unicode="&#xaf;" horiz-adv-x="240" 
d="M268 606h-296v57h296v-57z" />
    <glyph glyph-name="degree" unicode="&#xb0;" horiz-adv-x="332" 
d="M46 561c0 71 49 120 120 120s120 -49 120 -120c0 -69 -51 -119 -120 -119s-120 50 -120 119zM92 561c0 -43 31 -73 74 -73s73 30 73 73c0 44 -30 74 -73 74s-74 -30 -74 -74z" />
    <glyph glyph-name="twosuperior" unicode="&#xb2;" horiz-adv-x="342" 
d="M296 384h-272v39l159 158c32 33 48 65 48 95c0 47 -32 80 -81 80c-31 0 -65 -12 -101 -35l-24 45c45 28 90 42 135 42c77 0 130 -52 130 -124c0 -43 -19 -85 -58 -125l-125 -126h189v-49z" />
    <glyph glyph-name="threesuperior" unicode="&#xb3;" horiz-adv-x="342" 
d="M23 409l20 44c37 -19 73 -28 108 -28c51 0 86 30 86 73c0 47 -40 78 -100 78h-28v42h28c55 0 91 30 91 73c0 40 -30 68 -75 68c-34 0 -68 -9 -103 -26l-20 45c43 20 87 30 132 30c75 0 127 -47 127 -112c0 -45 -28 -82 -71 -97c48 -16 81 -57 81 -106
c0 -69 -57 -117 -137 -117c-49 0 -95 11 -139 33z" />
    <glyph glyph-name="acute" unicode="&#xb4;" horiz-adv-x="240" 
d="M88 551l-31 45l170 118l36 -52z" />
    <glyph glyph-name="uni00B5" unicode="&#xb5;" horiz-adv-x="607" 
d="M158 -208h-79v694h79v-306c0 -73 53 -125 128 -125c43 0 78 15 105 44c28 29 42 67 42 113v274h80v-389c0 -27 16 -44 43 -44c5 0 14 1 27 3l7 -63c-19 -3 -37 -5 -53 -5c-56 0 -94 34 -97 89c-35 -56 -92 -88 -156 -88c-58 0 -100 20 -126 59v-256z" />
    <glyph glyph-name="paragraph" unicode="&#xb6;" horiz-adv-x="583" 
d="M41 465c0 61 21 110 64 149s97 58 162 58h217v-832h-69v764h-106v-345h-42c-65 0 -119 19 -162 58s-64 88 -64 148z" />
    <glyph glyph-name="middot" unicode="&#xb7;" horiz-adv-x="247" 
d="M68 248c0 33 23 56 56 56c32 0 56 -23 56 -56c0 -32 -24 -55 -56 -55c-33 0 -56 23 -56 55z" />
    <glyph glyph-name="cedilla" unicode="&#xb8;" horiz-adv-x="240" 
d="M15 -207l14 47c25 -9 49 -14 70 -14c33 0 56 18 56 43c0 27 -24 43 -60 43h-11l16 88h56l-10 -56c44 -7 74 -41 74 -82c0 -51 -47 -87 -114 -87c-30 0 -60 6 -91 18z" />
    <glyph glyph-name="onesuperior" unicode="&#xb9;" horiz-adv-x="272" 
d="M36 681l-23 42l135 77h50v-416h-60v355z" />
    <glyph glyph-name="guillemotright" unicode="&#xbb;" horiz-adv-x="538" 
d="M84 10l-48 39l168 200l-168 200l48 38l198 -220v-36zM311 10l-48 39l168 200l-168 200l48 38l198 -220v-36z" />
    <glyph glyph-name="onequarter" unicode="&#xbc;" horiz-adv-x="960" 
d="M92 553l-23 42l135 77h50v-416h-60v355zM249 -16l-42 32l504 672l42 -32zM808 94h-201v43l198 279h58v-276h61v-46h-61v-94h-55v94zM808 345l-144 -205h144v205z" />
    <glyph glyph-name="onehalf" unicode="&#xbd;" horiz-adv-x="960" 
d="M92 553l-23 42l135 77h50v-416h-60v355zM249 -16l-42 32l504 672l42 -32zM893 0h-272v39l159 158c32 34 48 66 48 95c0 47 -33 80 -81 80c-31 0 -64 -12 -101 -35l-24 45c45 28 90 42 135 42c76 0 130 -52 130 -124c0 -44 -19 -86 -58 -125l-125 -126h189v-49z" />
    <glyph glyph-name="threequarters" unicode="&#xbe;" horiz-adv-x="960" 
d="M44 281l20 44c37 -19 73 -28 108 -28c51 0 86 30 86 73c0 47 -40 78 -100 78h-28v42h28c55 0 91 30 91 73c0 40 -30 68 -75 68c-34 0 -68 -9 -103 -26l-20 45c43 20 87 30 132 30c75 0 127 -47 127 -112c0 -45 -28 -82 -71 -97c48 -16 81 -57 81 -106
c0 -69 -57 -117 -137 -117c-49 0 -96 11 -139 33zM249 -16l-42 32l504 672l42 -32zM808 94h-201v43l198 279h58v-276h61v-46h-61v-94h-55v94zM808 345l-144 -205h144v205z" />
    <glyph glyph-name="questiondown" unicode="&#xbf;" horiz-adv-x="396" 
d="M39 -20c0 144 161 188 165 288v8h67v-13c0 -123 -152 -162 -152 -273c0 -71 52 -120 125 -120c45 0 93 17 144 52l32 -59c-59 -41 -121 -61 -187 -61c-57 0 -103 17 -140 50c-36 33 -54 76 -54 128zM200 404c-20 20 -20 56 0 76s56 20 76 0s20 -56 0 -76s-56 -20 -76 0z
" />
    <glyph glyph-name="multiply" unicode="&#xd7;" 
d="M123 75l-48 48l165 165l-165 165l48 48l165 -165l165 165l48 -48l-165 -165l165 -165l-48 -48l-165 165z" />
    <glyph glyph-name="germandbls" unicode="&#xdf;" horiz-adv-x="615" 
d="M156 0h-77v527c0 57 19 103 56 137c38 35 88 52 149 52c55 0 101 -15 136 -45s53 -67 53 -112c0 -98 -85 -128 -85 -196c0 -107 191 -83 191 -235c0 -85 -71 -140 -172 -140c-47 0 -96 11 -146 33l22 59c43 -20 83 -30 118 -30c60 0 101 30 101 78
c0 104 -194 81 -194 229c0 89 85 119 85 199c0 56 -45 98 -112 98c-76 0 -125 -51 -125 -130v-524z" />
    <glyph glyph-name="divide" unicode="&#xf7;" 
d="M524 257h-472v62h472v-62zM255 63c-17 17 -17 49 0 66s49 17 66 0s17 -49 0 -66s-49 -17 -66 0zM288 526c28 0 46 -18 46 -46c0 -40 -50 -62 -79 -33s-7 79 33 79z" />
    <glyph glyph-name="florin" unicode="&#x192;" 
d="M97 1l12 64c22 -7 43 -10 63 -10c40 0 68 28 68 68v242h-97v63h97v127c0 77 56 129 133 129c29 0 60 -4 92 -13l-11 -64c-23 7 -43 10 -62 10c-40 0 -69 -27 -69 -68v-121h121v-63h-121v-248c0 -76 -55 -129 -134 -129c-28 0 -59 4 -92 13z" />
    <glyph glyph-name="circumflex" unicode="&#x2c6;" horiz-adv-x="240" 
d="M7 553l-35 38l123 119h50l123 -119l-35 -38l-113 100z" />
    <glyph glyph-name="caron" unicode="&#x2c7;" horiz-adv-x="240" 
d="M95 559l-123 118l35 39l113 -101l113 101l35 -39l-123 -118h-50z" />
    <glyph glyph-name="breve" unicode="&#x2d8;" horiz-adv-x="240" 
d="M-28 694h53c4 -52 42 -87 95 -87s91 35 95 87h53c-3 -87 -64 -143 -148 -143s-145 56 -148 143z" />
    <glyph glyph-name="dotaccent" unicode="&#x2d9;" horiz-adv-x="240" 
d="M68 634c-5 68 110 68 104 0c6 -68 -109 -68 -104 0z" />
    <glyph glyph-name="ring" unicode="&#x2da;" horiz-adv-x="240" 
d="M48 564c-19 18 -28 41 -28 70s9 52 28 70s43 27 72 27c30 0 54 -9 72 -27c19 -18 28 -41 28 -70s-9 -52 -27 -70s-42 -27 -72 -27c-29 0 -54 9 -73 27zM63 634c0 -35 23 -57 58 -57c51 -6 74 65 40 99c-31 34 -104 11 -98 -42z" />
    <glyph glyph-name="ogonek" unicode="&#x2db;" horiz-adv-x="240" 
d="M8 -140c0 51 36 102 109 153l43 -13c-61 -47 -91 -90 -91 -127c0 -28 22 -47 50 -47c13 0 27 3 41 8l11 -46c-23 -9 -46 -13 -69 -13c-55 0 -94 33 -94 85z" />
    <glyph glyph-name="tilde" unicode="&#x2dc;" horiz-adv-x="240" 
d="M20 587l-51 16c11 48 43 78 87 78c17 0 39 -6 67 -19c28 -12 46 -18 55 -18c21 0 35 12 42 37l51 -15c-9 -48 -43 -79 -87 -79c-17 0 -39 6 -67 18c-27 13 -46 19 -55 19c-21 0 -35 -12 -42 -37z" />
    <glyph glyph-name="hungarumlaut" unicode="&#x2dd;" horiz-adv-x="240" 
d="M11 548l-41 41l143 149l47 -47zM206 548l-42 41l144 149l47 -47z" />
    <glyph glyph-name="commaaccent" unicode="&#x326;" horiz-adv-x="240" 
d="M78 -282l-23 31c38 29 58 62 61 99c-24 -1 -45 19 -45 43c0 29 21 49 49 49c33 0 53 -25 53 -65c0 -63 -34 -120 -95 -157z" />
    <glyph glyph-name="uni0400" unicode="&#x400;" horiz-adv-x="598" 
d="M545 0h-445v672h429v-64h-347v-233h315v-62h-315v-249h363v-64zM345 737l-175 111l36 52l170 -118z" />
    <glyph glyph-name="afii10023" unicode="&#x401;" horiz-adv-x="598" 
d="M545 0h-445v672h429v-64h-347v-233h315v-62h-315v-249h363v-64zM167 784c-19 19 -19 52 0 71s53 19 70 0c19 -19 19 -52 0 -71c-17 -17 -51 -17 -70 0zM377 784c-19 19 -19 52 0 71s53 19 70 0c19 -19 19 -52 0 -71c-17 -17 -51 -17 -70 0z" />
    <glyph glyph-name="afii10051" unicode="&#x402;" horiz-adv-x="838" 
d="M242 607h-216v65h546v-65h-248v-245c83 17 159 26 229 26c75 0 135 -18 178 -55s65 -85 65 -145s-21 -108 -64 -145c-42 -37 -98 -55 -168 -55c-44 0 -90 6 -137 17l16 66c36 -10 73 -15 112 -15c99 0 157 50 157 130c0 83 -62 136 -173 136c-61 0 -132 -8 -215 -25v-297
h-82v607z" />
    <glyph glyph-name="afii10052" unicode="&#x403;" horiz-adv-x="534" 
d="M182 0h-82v672h408v-65h-326v-607zM267 737l-31 45l170 118l36 -52z" />
    <glyph glyph-name="afii10053" unicode="&#x404;" horiz-adv-x="654" 
d="M380 684c80 0 156 -24 227 -72l-35 -56c-59 42 -119 63 -181 63c-71 0 -129 -22 -176 -67s-73 -104 -80 -177h368v-62h-370c4 -77 29 -140 76 -188s108 -72 182 -72c62 0 122 21 181 63l35 -56c-71 -48 -147 -72 -227 -72c-98 0 -178 32 -239 97s-92 148 -92 251
s31 186 92 251s141 97 239 97z" />
    <glyph glyph-name="afii10054" unicode="&#x405;" horiz-adv-x="580" 
d="M51 41l20 64c85 -33 156 -50 213 -50c99 0 163 46 163 117c0 184 -392 83 -392 332c0 53 22 96 65 129c44 34 101 51 170 51c67 0 138 -15 215 -45l-20 -64c-69 28 -132 42 -189 42c-96 0 -160 -45 -160 -113c0 -179 393 -79 393 -332c0 -55 -22 -99 -67 -133
c-44 -34 -101 -51 -172 -51c-73 0 -152 18 -239 53z" />
    <glyph glyph-name="afii10055" unicode="&#x406;" horiz-adv-x="282" 
d="M182 0h-82v672h82v-672z" />
    <glyph glyph-name="afii10056" unicode="&#x407;" horiz-adv-x="282" 
d="M1 784c-19 19 -19 52 0 71s53 19 70 0c19 -19 19 -52 0 -71c-17 -17 -51 -17 -70 0zM182 0h-82v672h82v-672zM211 784c-19 19 -19 52 0 71s53 19 70 0c19 -19 19 -52 0 -71c-17 -17 -51 -17 -70 0z" />
    <glyph glyph-name="afii10057" unicode="&#x408;" horiz-adv-x="444" 
d="M23 5l12 66c36 -10 70 -15 101 -15c75 0 125 50 125 125v491h83v-498c0 -55 -18 -100 -53 -135c-35 -34 -81 -51 -137 -51c-41 0 -84 6 -131 17z" />
    <glyph glyph-name="afii10058" unicode="&#x409;" horiz-adv-x="1126" 
d="M10 -5l8 67c19 -4 36 -6 51 -6c76 0 117 53 117 149v467h489v-273h195c63 0 114 -19 154 -56s60 -84 60 -143s-20 -107 -60 -144s-91 -56 -154 -56h-272v607h-332v-408c0 -132 -69 -211 -185 -211c-21 0 -45 2 -71 7zM675 334v-269h186c85 0 145 55 145 135
c0 79 -60 134 -145 134h-186z" />
    <glyph glyph-name="afii10059" unicode="&#x40a;" horiz-adv-x="1102" 
d="M180 0h-80v672h80v-289h394v289h77v-289h200c61 0 111 -18 150 -53s59 -81 59 -138c0 -58 -20 -105 -59 -140s-89 -52 -150 -52h-277v319h-394v-319zM651 321v-259h191c83 0 140 53 140 130c0 76 -57 129 -140 129h-191z" />
    <glyph glyph-name="afii10060" unicode="&#x40b;" horiz-adv-x="838" 
d="M242 607h-216v65h546v-65h-248v-245c76 17 148 26 216 26c70 0 127 -20 171 -61c44 -40 66 -92 66 -155v-172h-82v166c0 46 -16 83 -48 112s-74 44 -125 44c-62 0 -128 -8 -198 -25v-297h-82v607z" />
    <glyph glyph-name="afii10061" unicode="&#x40c;" horiz-adv-x="663" 
d="M180 0h-80v672h80v-295h90l255 295h93l-279 -324l294 -348h-95l-265 311h-93v-311zM308 737l-31 45l170 118l36 -52z" />
    <glyph glyph-name="uni040D" unicode="&#x40d;" horiz-adv-x="767" 
d="M181 0h-81v672h77v-558l409 558h81v-672h-77v558zM421 737l-175 111l36 52l170 -118z" />
    <glyph glyph-name="afii10062" unicode="&#x40e;" horiz-adv-x="636" 
d="M287 156l-251 516h86l206 -443l202 443h86l-261 -559c-40 -83 -100 -125 -180 -125c-28 0 -59 4 -93 13l14 66c25 -7 48 -11 71 -11c48 0 85 27 112 82zM178 880h53c4 -52 42 -87 95 -87s91 35 95 87h53c-3 -87 -64 -143 -148 -143s-145 56 -148 143z" />
    <glyph glyph-name="afii10145" unicode="&#x40f;" horiz-adv-x="767" 
d="M345 0h-245v672h82v-607h402v607h83v-672h-245v-176h-77v176z" />
    <glyph glyph-name="afii10017" unicode="&#x410;" horiz-adv-x="671" 
d="M104 0h-84l277 672h77l277 -672h-84l-74 184h-315zM335 578l-134 -331h268z" />
    <glyph glyph-name="afii10018" unicode="&#x411;" horiz-adv-x="639" 
d="M384 0h-284v672h440v-62h-360v-225h204c61 0 112 -18 151 -54s59 -82 59 -138c0 -57 -20 -103 -59 -139s-90 -54 -151 -54zM180 323v-261h192c84 0 141 52 141 131c0 76 -57 130 -141 130h-192z" />
    <glyph glyph-name="afii10019" unicode="&#x412;" horiz-adv-x="652" 
d="M387 0h-287v672h271c59 0 106 -16 143 -49c37 -32 56 -74 56 -125c0 -68 -40 -125 -103 -150c79 -23 127 -86 127 -166c0 -54 -19 -98 -58 -132c-38 -33 -88 -50 -149 -50zM180 316v-254h196c81 0 137 52 137 127s-56 127 -137 127h-196zM180 610v-238h181
c76 0 129 50 129 119s-53 119 -129 119h-181z" />
    <glyph glyph-name="afii10020" unicode="&#x413;" horiz-adv-x="534" 
d="M182 0h-82v672h408v-65h-326v-607z" />
    <glyph glyph-name="afii10021" unicode="&#x414;" horiz-adv-x="775" 
d="M28 -176v241h48c55 96 83 207 83 334v273h478v-607h96v-241h-77v176h-551v-176h-77zM166 65h391v542h-319v-214c0 -123 -24 -233 -72 -328z" />
    <glyph glyph-name="afii10022" unicode="&#x415;" horiz-adv-x="598" 
d="M545 0h-445v672h429v-64h-347v-233h315v-62h-315v-249h363v-64z" />
    <glyph glyph-name="afii10024" unicode="&#x416;" horiz-adv-x="992" 
d="M124 0h-92l266 347l-251 325h89l228 -295h92v295h80v-295h92l228 295h89l-251 -325l266 -347h-92l-238 311h-94v-311h-80v311h-94z" />
    <glyph glyph-name="afii10025" unicode="&#x417;" horiz-adv-x="540" 
d="M20 39l25 62c71 -31 138 -46 203 -46c96 0 161 52 161 128c0 79 -70 131 -182 131h-57v60h57c103 0 167 50 167 123c0 71 -58 120 -145 120c-54 0 -117 -14 -188 -42l-25 62c79 31 153 47 224 47c63 0 114 -17 154 -50s60 -76 60 -128c0 -77 -49 -139 -129 -160
c89 -23 145 -91 145 -172c0 -55 -22 -99 -65 -134s-98 -52 -165 -52c-79 0 -159 17 -240 51z" />
    <glyph glyph-name="afii10026" unicode="&#x418;" horiz-adv-x="767" 
d="M181 0h-81v672h77v-558l409 558h81v-672h-77v558z" />
    <glyph glyph-name="afii10027" unicode="&#x419;" horiz-adv-x="767" 
d="M181 0h-81v672h77v-558l409 558h81v-672h-77v558zM231 880h53c4 -52 42 -87 95 -87s91 35 95 87h53c-3 -87 -64 -143 -148 -143s-145 56 -148 143z" />
    <glyph glyph-name="afii10028" unicode="&#x41a;" horiz-adv-x="663" 
d="M180 0h-80v672h80v-295h90l255 295h93l-279 -324l294 -348h-95l-265 311h-93v-311z" />
    <glyph glyph-name="afii10029" unicode="&#x41b;" horiz-adv-x="791" 
d="M10 -5l8 67c19 -4 36 -6 51 -6c76 0 117 53 117 149v467h505v-672h-80v607h-345v-408c0 -132 -69 -211 -185 -211c-21 0 -45 2 -71 7z" />
    <glyph glyph-name="afii10030" unicode="&#x41c;" horiz-adv-x="855" 
d="M177 0h-77v672h81l246 -336l247 336h81v-672h-77v558l-227 -309h-48l-226 309v-558z" />
    <glyph glyph-name="afii10031" unicode="&#x41d;" horiz-adv-x="767" 
d="M182 0h-82v672h82v-295h402v295h83v-672h-83v311h-402v-311z" />
    <glyph glyph-name="afii10032" unicode="&#x41e;" horiz-adv-x="767" 
d="M383 684c192 3 337 -147 334 -348c3 -202 -142 -351 -334 -348c-192 -3 -337 146 -334 348c-3 201 142 351 334 348zM383 55c73 0 133 26 180 78c47 53 70 120 70 202c0 83 -23 150 -70 203s-107 79 -180 79s-133 -26 -180 -79c-46 -53 -69 -120 -69 -203
c0 -82 23 -149 69 -202c47 -52 107 -78 180 -78z" />
    <glyph glyph-name="afii10033" unicode="&#x41f;" horiz-adv-x="767" 
d="M182 0h-82v672h567v-672h-83v607h-402v-607z" />
    <glyph glyph-name="afii10034" unicode="&#x420;" horiz-adv-x="620" 
d="M180 0h-80v672h253c66 0 120 -20 162 -59s63 -90 63 -152c0 -61 -21 -112 -64 -151c-42 -39 -96 -59 -161 -59h-173v-251zM180 607v-291h161c45 0 83 13 112 40s44 62 44 104c0 43 -15 78 -44 105c-29 28 -67 42 -112 42h-161z" />
    <glyph glyph-name="afii10035" unicode="&#x421;" horiz-adv-x="646" 
d="M380 684c80 0 156 -25 227 -74l-35 -56c-58 41 -118 62 -181 62c-77 0 -139 -26 -186 -78s-71 -120 -71 -203s24 -150 71 -202c47 -51 109 -77 186 -77c63 0 123 21 181 62l35 -56c-71 -49 -147 -74 -227 -74c-98 0 -178 32 -239 97s-92 148 -92 251s31 186 92 251
s141 97 239 97z" />
    <glyph glyph-name="afii10036" unicode="&#x422;" horiz-adv-x="598" 
d="M258 607h-232v65h546v-65h-232v-607h-82v607z" />
    <glyph glyph-name="afii10037" unicode="&#x423;" horiz-adv-x="636" 
d="M287 156l-251 516h86l206 -443l202 443h86l-261 -559c-40 -83 -100 -125 -180 -125c-28 0 -59 4 -93 13l14 66c25 -7 48 -11 71 -11c48 0 85 27 112 82z" />
    <glyph glyph-name="afii10038" unicode="&#x424;" horiz-adv-x="775" 
d="M349 620v84h77v-84c181 -6 308 -116 308 -276s-127 -270 -308 -276v-100h-77v100c-91 3 -166 29 -223 80s-85 117 -85 196c0 80 28 145 85 196s132 77 223 80zM120 344c0 -59 21 -109 64 -148s98 -59 165 -62v420c-67 -3 -122 -24 -165 -63s-64 -88 -64 -147zM426 554
v-420c68 3 123 23 165 62c43 39 64 89 64 148c0 60 -21 109 -64 148c-42 39 -97 59 -165 62z" />
    <glyph glyph-name="afii10039" unicode="&#x425;" horiz-adv-x="679" 
d="M124 0h-94l256 344l-244 328h92l205 -275l205 275h93l-245 -328l257 -344h-94l-216 291z" />
    <glyph glyph-name="afii10040" unicode="&#x426;" horiz-adv-x="804" 
d="M686 0h-586v672h82v-607h402v607h83v-607h96v-241h-77v176z" />
    <glyph glyph-name="afii10041" unicode="&#x427;" horiz-adv-x="697" 
d="M60 492v180h83v-174c0 -48 16 -87 48 -118s74 -46 125 -46c57 0 124 8 199 25v313h83v-672h-83v294c-76 -17 -148 -26 -217 -26c-70 0 -127 21 -172 63c-44 42 -66 96 -66 161z" />
    <glyph glyph-name="afii10042" unicode="&#x428;" horiz-adv-x="1094" 
d="M994 0h-894v672h82v-607h324v607h82v-607h323v607h83v-672z" />
    <glyph glyph-name="afii10043" unicode="&#x429;" horiz-adv-x="1132" 
d="M1010 0h-910v672h82v-607h324v607h82v-607h323v607h83v-607h96v-241h-80v176z" />
    <glyph glyph-name="afii10044" unicode="&#x42a;" horiz-adv-x="764" 
d="M228 607h-202v65h282v-273h200c62 0 113 -19 153 -56c41 -37 61 -84 61 -143s-20 -107 -61 -144c-40 -37 -91 -56 -153 -56h-280v607zM308 334v-269h188c85 0 145 55 145 135c0 79 -60 134 -145 134h-188z" />
    <glyph glyph-name="afii10045" unicode="&#x42b;" horiz-adv-x="918" 
d="M380 0h-280v672h80v-273h200c62 0 113 -19 153 -56c41 -37 61 -84 61 -143s-20 -107 -61 -144c-40 -37 -91 -56 -153 -56zM180 334v-269h188c85 0 145 55 145 135c0 79 -60 134 -145 134h-188zM818 0h-82v672h82v-672z" />
    <glyph glyph-name="afii10046" unicode="&#x42c;" horiz-adv-x="636" 
d="M380 0h-280v672h80v-273h200c62 0 113 -19 153 -56c41 -37 61 -84 61 -143s-20 -107 -61 -144c-40 -37 -91 -56 -153 -56zM180 334v-269h188c85 0 145 55 145 135c0 79 -60 134 -145 134h-188z" />
    <glyph glyph-name="afii10047" unicode="&#x42d;" horiz-adv-x="654" 
d="M47 60l34 56c59 -42 119 -63 182 -63c74 0 134 24 181 72s73 111 76 188h-369v62h368c-7 73 -33 132 -80 177s-105 67 -176 67c-63 0 -123 -21 -182 -63l-34 56c70 48 145 72 226 72c97 0 177 -32 238 -97c62 -65 93 -148 93 -251s-31 -186 -93 -251
c-61 -65 -141 -97 -238 -97c-81 0 -156 24 -226 72z" />
    <glyph glyph-name="afii10048" unicode="&#x42e;" horiz-adv-x="1041" 
d="M182 0h-82v672h82v-294h153c9 91 43 164 103 221s134 85 223 85c97 0 176 -33 237 -98c62 -65 93 -148 93 -250s-31 -186 -93 -251c-61 -65 -140 -97 -237 -97c-91 0 -167 30 -228 89c-61 60 -94 138 -99 233h-152v-310zM414 336c0 -165 105 -281 247 -281
c73 0 132 26 178 78c46 53 69 120 69 202c0 83 -23 150 -69 203s-105 79 -178 79c-71 0 -130 -26 -177 -79s-70 -120 -70 -202z" />
    <glyph glyph-name="afii10049" unicode="&#x42f;" horiz-adv-x="652" 
d="M143 0h-91l196 279c-101 13 -169 91 -169 192c0 59 20 108 61 145s93 56 156 56h256v-672h-80v267h-145zM160 469c0 -81 61 -137 148 -137h164v275h-164c-87 0 -148 -57 -148 -138z" />
    <glyph glyph-name="afii10065" unicode="&#x430;" horiz-adv-x="545" 
d="M44 134c0 101 83 161 222 161c36 0 72 -5 109 -14v50c0 63 -48 106 -119 106c-51 0 -104 -12 -161 -36l-22 58c69 26 133 39 192 39c55 0 100 -16 134 -47c35 -31 52 -71 52 -122v-235c0 -27 17 -44 44 -44c3 0 12 1 26 3l6 -60c-20 -3 -37 -5 -52 -5
c-52 0 -88 30 -93 81c-39 -51 -102 -81 -169 -81c-48 0 -88 14 -121 41c-32 28 -48 63 -48 105zM122 139c0 -53 47 -93 110 -93c84 0 143 59 143 146v41c-35 8 -69 12 -100 12c-96 0 -153 -39 -153 -106z" />
    <glyph glyph-name="afii10066" unicode="&#x431;" horiz-adv-x="583" 
d="M52 289c0 215 84 345 253 390l157 42l15 -62l-157 -43c-107 -29 -164 -102 -184 -215c39 63 102 97 181 97c64 0 117 -23 159 -69s63 -104 63 -175c0 -79 -22 -143 -67 -192s-102 -74 -172 -74c-75 0 -135 27 -180 81c-45 55 -68 128 -68 220zM132 255
c0 -59 15 -107 46 -145s71 -57 119 -57s87 18 118 55s47 84 47 141c0 54 -15 98 -46 132c-30 34 -69 51 -116 51c-49 0 -90 -17 -121 -50s-47 -75 -47 -127z" />
    <glyph glyph-name="afii10067" unicode="&#x432;" horiz-adv-x="497" 
d="M297 0h-218v486h208c88 0 149 -52 149 -129c0 -48 -26 -86 -69 -105c55 -17 86 -62 86 -119c0 -79 -65 -133 -156 -133zM153 224v-167h134c55 0 91 34 91 83c0 51 -36 84 -91 84h-134zM153 429v-157h126c49 0 83 30 83 77s-35 80 -83 80h-126z" />
    <glyph glyph-name="afii10068" unicode="&#x433;" horiz-adv-x="433" 
d="M158 0h-79v486h320v-63h-241v-423z" />
    <glyph glyph-name="afii10069" unicode="&#x434;" horiz-adv-x="583" 
d="M28 -160v222h32c35 62 53 138 53 227v197h370v-424h64v-222h-74v160h-371v-160h-74zM141 62h271v361h-227v-139c0 -86 -15 -160 -44 -222z" />
    <glyph glyph-name="afii10070" unicode="&#x435;" horiz-adv-x="537" 
d="M281 498c65 0 117 -23 158 -69c41 -45 62 -104 62 -177c0 -13 0 -22 -1 -29h-376c3 -51 22 -93 55 -126c33 -32 75 -48 126 -48c47 0 96 14 147 41l25 -55c-63 -31 -123 -47 -180 -47c-74 0 -135 24 -182 71c-47 48 -71 109 -71 184s22 136 66 183c44 48 101 72 171 72z
M124 274h300c-4 96 -62 163 -143 163c-87 0 -149 -64 -157 -163z" />
    <glyph glyph-name="afii10072" unicode="&#x436;" horiz-adv-x="755" 
d="M116 0h-85l185 251l-174 235h83l154 -206h61v206h74v-206h61l155 206h83l-174 -235l185 -251h-85l-162 218h-63v-218h-74v218h-62z" />
    <glyph glyph-name="afii10073" unicode="&#x437;" horiz-adv-x="433" 
d="M23 31l24 57c52 -25 103 -38 152 -38c67 0 112 35 112 84c0 51 -49 89 -124 89h-46v51h46c67 0 112 34 112 82s-38 79 -99 79c-43 0 -90 -11 -141 -34l-24 58c63 26 121 39 174 39c101 0 167 -53 167 -133c0 -53 -34 -100 -90 -115c63 -16 103 -67 103 -124
c0 -41 -17 -74 -50 -100c-33 -25 -77 -38 -130 -38c-58 0 -120 14 -186 43z" />
    <glyph glyph-name="afii10074" unicode="&#x438;" horiz-adv-x="583" 
d="M155 0h-76v486h74v-378l275 378h77v-486h-74v378z" />
    <glyph glyph-name="afii10075" unicode="&#x439;" horiz-adv-x="583" 
d="M155 0h-76v486h74v-378l275 378h77v-486h-74v378zM140 694h53c4 -52 42 -87 95 -87s91 35 95 87h53c-3 -87 -64 -143 -148 -143s-145 56 -148 143z" />
    <glyph glyph-name="afii10076" unicode="&#x43a;" horiz-adv-x="509" 
d="M156 0h-77v486h77v-206h58l173 206h86l-195 -235l206 -251h-89l-180 218h-59v-218z" />
    <glyph glyph-name="afii10077" unicode="&#x43b;" horiz-adv-x="599" 
d="M18 -7l8 64c13 -3 24 -4 35 -4c51 0 79 36 79 101v332h381v-486h-77v423h-227v-275c0 -100 -55 -160 -144 -160c-19 0 -37 2 -55 5z" />
    <glyph glyph-name="afii10078" unicode="&#x43c;" horiz-adv-x="647" 
d="M153 0h-74v486h76l167 -228l170 228h77v-486h-74v378l-152 -202h-42l-148 202v-378z" />
    <glyph glyph-name="afii10079" unicode="&#x43d;" horiz-adv-x="583" 
d="M158 0h-79v486h79v-207h267v207h80v-486h-80v216h-267v-216z" />
    <glyph glyph-name="afii10080" unicode="&#x43e;" horiz-adv-x="583" 
d="M292 498c72 0 131 -24 177 -72c47 -47 70 -108 70 -183s-23 -136 -70 -184c-46 -47 -105 -71 -177 -71c-73 0 -132 24 -179 71c-46 48 -69 109 -69 184s23 136 69 183c47 48 106 72 179 72zM126 243c0 -56 15 -102 46 -138c31 -35 71 -53 120 -53s88 18 119 53
c31 36 47 82 47 138s-16 102 -47 137c-31 36 -70 54 -119 54s-89 -18 -120 -54c-31 -35 -46 -81 -46 -137z" />
    <glyph glyph-name="afii10081" unicode="&#x43f;" horiz-adv-x="583" 
d="M158 0h-79v486h426v-486h-80v423h-267v-423z" />
    <glyph glyph-name="afii10082" unicode="&#x440;" horiz-adv-x="583" 
d="M158 -208h-79v694h64l10 -81c33 60 94 93 167 93c63 0 116 -24 157 -72s62 -109 62 -183s-21 -135 -62 -183s-94 -72 -157 -72c-69 0 -126 32 -162 88v-284zM157 282v-78c0 -89 59 -151 144 -151c45 0 83 18 112 53c30 36 45 82 45 137s-15 101 -45 136
c-29 36 -67 54 -112 54c-85 0 -144 -62 -144 -151z" />
    <glyph glyph-name="afii10083" unicode="&#x441;" horiz-adv-x="492" 
d="M44 243c0 75 23 136 69 183c46 48 105 72 176 72c60 0 117 -18 172 -55l-33 -55c-43 29 -86 44 -129 44c-51 0 -93 -18 -125 -53s-48 -80 -48 -136s16 -102 48 -137s74 -53 125 -53c43 0 86 15 129 45l33 -55c-55 -37 -112 -55 -172 -55c-71 0 -130 24 -176 71
c-46 48 -69 109 -69 184z" />
    <glyph glyph-name="afii10084" unicode="&#x442;" horiz-adv-x="460" 
d="M190 423h-164v63h407v-63h-163v-423h-80v423z" />
    <glyph glyph-name="afii10085" unicode="&#x443;" horiz-adv-x="519" 
d="M224 4l-201 482h83l156 -394l151 394h84l-226 -559c-40 -103 -91 -147 -168 -147c-20 0 -43 3 -68 9l11 64c19 -5 36 -8 49 -8c49 0 79 28 104 96z" />
    <glyph glyph-name="afii10086" unicode="&#x444;" horiz-adv-x="685" 
d="M44 243c0 69 24 127 72 174s111 73 189 78v209h75v-209c78 -5 141 -31 189 -78s72 -105 72 -174s-24 -127 -72 -174c-48 -46 -111 -72 -189 -78v-199h-75v199c-78 6 -141 32 -189 78c-48 47 -72 105 -72 174zM118 243c0 -52 17 -95 52 -130s80 -54 135 -58v376
c-55 -4 -100 -24 -135 -59s-52 -78 -52 -129zM380 430v-374c55 4 100 23 135 57c35 35 52 78 52 130c0 51 -17 94 -52 128c-35 35 -80 54 -135 59z" />
    <glyph glyph-name="afii10087" unicode="&#x445;" horiz-adv-x="519" 
d="M116 0h-91l183 249l-175 237h89l138 -186l137 186h89l-175 -237l183 -249h-91l-143 198z" />
    <glyph glyph-name="afii10088" unicode="&#x446;" horiz-adv-x="605" 
d="M495 0h-416v486h79v-424h267v424h80v-424h64v-222h-74v160z" />
    <glyph glyph-name="afii10089" unicode="&#x447;" horiz-adv-x="535" 
d="M52 354v132h80v-126c0 -64 47 -108 112 -108c45 0 89 5 133 14v220h80v-486h-80v204c-49 -11 -100 -16 -152 -16c-51 0 -92 15 -125 46c-32 31 -48 71 -48 120z" />
    <glyph glyph-name="afii10090" unicode="&#x448;" horiz-adv-x="849" 
d="M771 0h-692v486h79v-424h227v424h80v-424h226v424h80v-486z" />
    <glyph glyph-name="afii10091" unicode="&#x449;" horiz-adv-x="871" 
d="M761 0h-682v486h79v-424h227v424h80v-424h226v424h80v-424h64v-222h-74v160z" />
    <glyph glyph-name="afii10092" unicode="&#x44a;" horiz-adv-x="583" 
d="M164 424h-138v62h212v-188h149c93 0 160 -61 160 -149s-66 -149 -159 -149h-224v424zM238 238v-178h138c56 0 95 36 95 89s-39 89 -96 89h-137z" />
    <glyph glyph-name="afii10093" unicode="&#x44b;" horiz-adv-x="732" 
d="M302 0h-223v486h74v-188h148c93 0 160 -61 160 -149s-66 -149 -159 -149zM153 238v-178h137c57 0 96 36 96 89c0 52 -39 89 -96 89h-137zM653 0h-77v486h77v-486z" />
    <glyph glyph-name="afii10094" unicode="&#x44c;" horiz-adv-x="497" 
d="M302 0h-223v486h74v-188h148c93 0 160 -61 160 -149s-66 -149 -159 -149zM153 238v-178h137c57 0 96 36 96 89c0 52 -39 89 -96 89h-137z" />
    <glyph glyph-name="afii10095" unicode="&#x44d;" horiz-adv-x="503" 
d="M41 43l32 50c43 -29 86 -44 131 -44c48 0 88 16 120 48s50 73 53 124h-255v54h253c-9 96 -79 162 -171 162c-45 0 -88 -15 -131 -44l-32 50c55 37 112 55 173 55c71 0 129 -24 175 -72c46 -47 69 -108 69 -183s-23 -136 -69 -184c-46 -47 -104 -71 -175 -71
c-61 0 -118 18 -173 55z" />
    <glyph glyph-name="afii10096" unicode="&#x44e;" horiz-adv-x="804" 
d="M158 0h-79v486h79v-207h127c7 65 33 117 76 158s97 61 160 61c69 0 126 -24 171 -72c45 -47 68 -108 68 -183s-23 -136 -68 -184c-45 -47 -102 -71 -171 -71c-65 0 -120 21 -163 63s-68 97 -73 165h-127v-216zM361 243c0 -56 15 -102 44 -138c30 -35 69 -53 116 -53
s85 18 114 53c30 36 45 82 45 138s-15 102 -45 137c-29 36 -67 54 -114 54s-86 -18 -116 -54c-29 -35 -44 -81 -44 -137z" />
    <glyph glyph-name="afii10097" unicode="&#x44f;" horiz-adv-x="509" 
d="M122 0h-84l136 196c-69 12 -116 68 -116 139c0 89 66 151 162 151h210v-486h-74v183h-108zM134 335c0 -56 39 -92 99 -92h123v183h-123c-60 0 -99 -38 -99 -91z" />
    <glyph glyph-name="uni0450" unicode="&#x450;" horiz-adv-x="537" 
d="M281 498c65 0 117 -23 158 -69c41 -45 62 -104 62 -177c0 -13 0 -22 -1 -29h-376c3 -51 22 -93 55 -126c33 -32 75 -48 126 -48c47 0 96 14 147 41l25 -55c-63 -31 -123 -47 -180 -47c-74 0 -135 24 -182 71c-47 48 -71 109 -71 184s22 136 66 183c44 48 101 72 171 72z
M124 274h300c-4 96 -62 163 -143 163c-87 0 -149 -64 -157 -163zM319 551l-175 111l36 52l170 -118z" />
    <glyph glyph-name="afii10071" unicode="&#x451;" horiz-adv-x="537" 
d="M281 498c65 0 117 -23 158 -69c41 -45 62 -104 62 -177c0 -13 0 -22 -1 -29h-376c3 -51 22 -93 55 -126c33 -32 75 -48 126 -48c47 0 96 14 147 41l25 -55c-63 -31 -123 -47 -180 -47c-74 0 -135 24 -182 71c-47 48 -71 109 -71 184s22 136 66 183c44 48 101 72 171 72z
M124 274h300c-4 96 -62 163 -143 163c-87 0 -149 -64 -157 -163zM140 598c-17 19 -17 52 0 71c19 19 52 19 71 0s19 -52 0 -71c-19 -17 -52 -17 -71 0zM351 598c-19 19 -19 52 0 71s53 19 70 0c19 -19 19 -52 0 -71c-17 -17 -51 -17 -70 0z" />
    <glyph glyph-name="afii10099" unicode="&#x452;" horiz-adv-x="583" 
d="M79 569h-69v56h69v79h79v-79h175v-56h-175v-167c33 61 95 96 170 96c54 0 98 -17 133 -51s52 -78 52 -132v-393c0 -84 -59 -142 -146 -142c-30 0 -63 4 -98 13l11 62c27 -7 50 -10 69 -10c51 0 84 35 84 84v374c0 76 -52 128 -128 128c-43 0 -78 -14 -106 -43
c-27 -29 -41 -65 -41 -109v-279h-79v569z" />
    <glyph glyph-name="afii10100" unicode="&#x453;" horiz-adv-x="433" 
d="M158 0h-79v486h320v-63h-241v-423zM190 551l-31 45l170 118l36 -52z" />
    <glyph glyph-name="afii10101" unicode="&#x454;" horiz-adv-x="503" 
d="M289 498c60 0 117 -18 172 -55l-32 -50c-43 29 -86 44 -130 44c-93 0 -161 -65 -172 -162h253v-54h-254c3 -51 21 -92 53 -124s72 -48 120 -48c44 0 87 15 130 44l32 -50c-55 -37 -112 -55 -172 -55c-71 0 -130 24 -176 71c-46 48 -69 109 -69 184s23 136 69 183
c46 48 105 72 176 72z" />
    <glyph glyph-name="afii10102" unicode="&#x455;" horiz-adv-x="449" 
d="M44 25l19 59c57 -23 109 -35 156 -35c65 0 108 32 108 79c0 124 -279 51 -279 234c0 39 16 72 49 97c33 26 76 39 128 39c53 0 107 -11 164 -34l-18 -59c-51 21 -98 32 -140 32c-63 0 -104 -30 -104 -75c0 -120 278 -48 278 -234c0 -83 -73 -140 -180 -140
c-57 0 -118 12 -181 37z" />
    <glyph glyph-name="afii10103" unicode="&#x456;" horiz-adv-x="237" 
d="M65 634c0 31 22 53 54 53c31 0 53 -22 53 -53s-22 -53 -53 -53c-32 0 -54 22 -54 53zM158 0h-79v486h79v-486z" />
    <glyph glyph-name="afii10104" unicode="&#x457;" horiz-adv-x="237" 
d="M-21 598c-19 19 -19 52 0 71s53 19 70 0c19 -19 19 -52 0 -71c-17 -17 -51 -17 -70 0zM158 0h-79v486h79v-486zM189 598c-19 19 -19 52 0 71s53 19 70 0c19 -19 19 -52 0 -71c-17 -17 -51 -17 -70 0z" />
    <glyph glyph-name="afii10105" unicode="&#x458;" horiz-adv-x="245" 
d="M-77 -207l11 62c28 -7 51 -10 69 -10c49 0 84 35 84 84v557h79v-564c0 -84 -59 -142 -146 -142c-31 0 -63 4 -97 13zM127 687c31 0 53 -22 53 -53s-22 -53 -53 -53c-32 0 -54 21 -54 52c0 32 22 54 54 54z" />
    <glyph glyph-name="afii10106" unicode="&#x459;" horiz-adv-x="847" 
d="M18 -7l8 64c13 -3 24 -4 35 -4c51 0 79 36 79 101v332h370v-188h140c93 0 160 -61 160 -149s-66 -149 -159 -149h-215v423h-219v-275c0 -100 -55 -160 -144 -160c-19 0 -37 2 -55 5zM510 238v-178h129c57 0 96 36 96 89c0 52 -39 89 -96 89h-129z" />
    <glyph glyph-name="afii10107" unicode="&#x45a;" horiz-adv-x="831" 
d="M156 0h-77v486h77v-199h264v199h74v-199h146c89 0 154 -58 154 -143s-63 -144 -154 -144h-220v228h-264v-228zM494 230v-173h132c56 0 93 35 93 87c0 51 -38 86 -94 86h-131z" />
    <glyph glyph-name="afii10108" unicode="&#x45b;" horiz-adv-x="583" 
d="M79 569h-69v56h69v79h79v-79h175v-56h-175v-168c33 61 95 97 170 97c54 0 98 -17 133 -51c35 -33 52 -77 52 -130v-317h-80v305c0 75 -52 126 -128 126c-42 0 -77 -15 -105 -44s-42 -67 -42 -113v-274h-79v569z" />
    <glyph glyph-name="afii10109" unicode="&#x45c;" horiz-adv-x="509" 
d="M156 0h-77v486h77v-206h58l173 206h86l-195 -235l206 -251h-89l-180 218h-59v-218zM223 551l-31 45l170 118l36 -52z" />
    <glyph glyph-name="uni045D" unicode="&#x45d;" horiz-adv-x="583" 
d="M155 0h-76v486h74v-378l275 378h77v-486h-74v378zM330 551l-175 111l36 52l170 -118z" />
    <glyph glyph-name="afii10110" unicode="&#x45e;" horiz-adv-x="519" 
d="M224 4l-201 482h83l156 -394l151 394h84l-226 -559c-40 -103 -91 -147 -168 -147c-20 0 -43 3 -68 9l11 64c19 -5 36 -8 49 -8c49 0 79 28 104 96zM112 694h53c4 -52 42 -87 95 -87s91 35 95 87h53c-3 -87 -64 -143 -148 -143s-145 56 -148 143z" />
    <glyph glyph-name="afii10193" unicode="&#x45f;" horiz-adv-x="583" 
d="M255 0h-176v486h79v-424h267v424h80v-486h-176v-160h-74v160z" />
    <glyph glyph-name="afii10050" unicode="&#x490;" horiz-adv-x="534" 
d="M182 0h-82v672h331v160h77v-225h-326v-607z" />
    <glyph glyph-name="afii10098" unicode="&#x491;" horiz-adv-x="433" 
d="M158 0h-79v486h245v160h75v-223h-241v-423z" />
    <glyph glyph-name="uni0492" unicode="&#x492;" horiz-adv-x="550" 
d="M116 287h-90v63h90v322h408v-65h-326v-257h193v-63h-193v-287h-82v287z" />
    <glyph glyph-name="uni0493" unicode="&#x493;" horiz-adv-x="441" 
d="M87 200h-74v60h74v226h320v-62h-241v-164h132v-60h-132v-200h-79v200z" />
    <glyph glyph-name="uni049A" unicode="&#x49a;" horiz-adv-x="706" 
d="M180 0h-80v672h80v-295h90l255 295h93l-279 -324l245 -283h94v-241h-77v176h-63l-265 311h-93v-311z" />
    <glyph glyph-name="uni049B" unicode="&#x49b;" horiz-adv-x="544" 
d="M156 0h-77v486h77v-206h58l173 206h86l-194 -233l162 -191h75v-222h-75v160h-46l-179 218h-60v-218z" />
    <glyph glyph-name="uni04A2" unicode="&#x4a2;" horiz-adv-x="804" 
d="M182 0h-82v672h82v-295h402v295h83v-607h96v-241h-77v176h-102v311h-402v-311z" />
    <glyph glyph-name="uni04A3" unicode="&#x4a3;" horiz-adv-x="605" 
d="M158 0h-79v486h79v-207h267v207h80v-424h64v-222h-74v160h-70v216h-267v-216z" />
    <glyph glyph-name="uni04AE" unicode="&#x4ae;" horiz-adv-x="599" 
d="M258 287l-246 385h91l197 -311l196 311h92l-247 -385v-287h-83v287z" />
    <glyph glyph-name="uni04AF" unicode="&#x4af;" horiz-adv-x="519" 
d="M220 7l-197 479h83l154 -391l153 391h84l-197 -479v-215h-80v215z" />
    <glyph glyph-name="uni04B0" unicode="&#x4b0;" horiz-adv-x="599" 
d="M236 324l-224 348h91l197 -311l196 311h92l-225 -348h130v-66h-152v-258h-83v258h-152v66h130z" />
    <glyph glyph-name="uni04B1" unicode="&#x4b1;" horiz-adv-x="519" 
d="M206 42l-183 444h83l154 -391l153 391h84l-184 -444h124v-56h-137v-194h-80v194h-138v56h124z" />
    <glyph glyph-name="uni04BA" unicode="&#x4ba;" horiz-adv-x="697" 
d="M182 0h-82v672h82v-294c76 17 148 26 217 26c70 0 127 -21 171 -63c45 -41 67 -95 67 -161v-180h-83v174c0 48 -16 87 -48 118s-73 46 -124 46c-57 0 -123 -8 -200 -25v-313z" />
    <glyph glyph-name="uni04BB" unicode="&#x4bb;" horiz-adv-x="583" 
d="M158 0h-79v704h79v-303c33 61 95 97 170 97c54 0 98 -17 133 -51c35 -33 52 -77 52 -130v-317h-80v305c0 75 -52 126 -128 126c-42 0 -77 -15 -105 -44s-42 -67 -42 -113v-274z" />
    <glyph glyph-name="uni04D8" unicode="&#x4d8;" horiz-adv-x="708" 
d="M37 321c0 8 1 20 2 35h535c-3 78 -29 141 -79 190c-49 49 -112 73 -188 73c-65 0 -133 -19 -205 -56l-29 58c81 42 161 63 242 63c197 3 346 -144 343 -348c3 -202 -135 -351 -320 -348c-88 0 -160 31 -217 92c-56 62 -84 142 -84 241zM574 300h-455
c1 -73 22 -133 63 -179c41 -45 93 -68 156 -68c66 0 120 22 163 67s68 105 73 180z" />
    <glyph glyph-name="afii10846" unicode="&#x4d9;" horiz-adv-x="537" 
d="M36 234c0 5 1 23 1 28h376c-3 52 -21 94 -54 126c-33 33 -76 49 -127 49c-45 0 -93 -14 -146 -41l-26 55c62 31 122 47 181 47c74 0 134 -24 181 -72c47 -47 71 -108 71 -183s-22 -136 -66 -184c-44 -47 -101 -71 -170 -71c-65 0 -119 23 -160 68c-41 46 -61 105 -61 178
zM413 211h-300c3 -96 61 -162 144 -162c85 0 149 65 156 162z" />
    <glyph glyph-name="uni04E8" unicode="&#x4e8;" horiz-adv-x="767" 
d="M91 155c-28 53 -42 114 -42 181c0 135 60 245 161 304c51 29 108 44 172 44c129 0 236 -61 292 -168c29 -53 43 -113 43 -180c0 -135 -59 -245 -162 -304c-51 -29 -108 -44 -173 -44c-128 0 -234 62 -291 167zM636 314h-506c4 -77 29 -140 76 -189s106 -73 177 -73
s130 24 177 73s72 112 76 189zM132 374h502c-7 73 -33 132 -80 177c-46 46 -103 69 -172 69c-68 0 -125 -23 -171 -69c-46 -45 -72 -104 -79 -177z" />
    <glyph glyph-name="uni04E9" unicode="&#x4e9;" horiz-adv-x="583" 
d="M292 498c72 0 131 -24 177 -72c47 -47 70 -108 70 -183s-23 -136 -70 -184c-46 -47 -105 -71 -177 -71c-73 0 -132 24 -179 71c-46 48 -69 109 -69 184s23 136 69 183c47 48 106 72 179 72zM463 221h-343c3 -52 21 -94 52 -127c32 -32 72 -48 120 -48
c95 0 164 71 171 175zM121 272h341c-9 100 -78 168 -170 168c-93 0 -162 -68 -171 -168z" />
    <glyph glyph-name="uni2010" unicode="&#x2010;" horiz-adv-x="320" 
d="M294 218h-268v62h268v-62z" />
    <glyph glyph-name="uni2011" unicode="&#x2011;" horiz-adv-x="320" 
d="M294 218h-268v62h268v-62z" />
    <glyph glyph-name="endash" unicode="&#x2013;" horiz-adv-x="480" 
d="M454 218h-428v62h428v-62z" />
    <glyph glyph-name="emdash" unicode="&#x2014;" horiz-adv-x="960" 
d="M934 218h-908v62h908v-62z" />
    <glyph glyph-name="afii00208" unicode="&#x2015;" horiz-adv-x="960" 
d="M934 218h-908v62h908v-62z" />
    <glyph glyph-name="quoteleft" unicode="&#x2018;" horiz-adv-x="247" 
d="M64 500c0 73 41 141 110 186l25 -34c-46 -36 -70 -76 -73 -121c29 1 54 -21 54 -52c0 -32 -24 -56 -56 -56c-36 0 -60 30 -60 77z" />
    <glyph glyph-name="quoteright" unicode="&#x2019;" horiz-adv-x="247" 
d="M73 420l-25 34c46 35 70 76 73 121c-29 -1 -53 22 -53 51c0 33 23 56 56 56c36 0 59 -30 59 -77c0 -73 -41 -140 -110 -185z" />
    <glyph glyph-name="quotesinglbase" unicode="&#x201a;" horiz-adv-x="215" 
d="M73 -160l-25 34c46 35 70 76 73 121c-29 -1 -53 20 -53 51c0 33 23 56 56 56c36 0 59 -30 59 -77c0 -73 -41 -140 -110 -185z" />
    <glyph glyph-name="quotedblleft" unicode="&#x201c;" horiz-adv-x="442" 
d="M64 500c0 73 41 141 110 186l25 -34c-46 -36 -70 -76 -73 -121c29 1 54 -21 54 -52c0 -32 -24 -56 -56 -56c-36 0 -60 30 -60 77zM259 500c0 73 41 141 110 186l25 -34c-46 -36 -70 -76 -73 -121c29 1 54 -21 54 -52c0 -32 -24 -56 -56 -56c-36 0 -60 30 -60 77z" />
    <glyph glyph-name="quotedblright" unicode="&#x201d;" horiz-adv-x="442" 
d="M73 420l-25 34c46 35 70 76 73 121c-29 -1 -53 22 -53 51c0 33 23 56 56 56c36 0 59 -30 59 -77c0 -73 -41 -140 -110 -185zM268 420l-25 34c46 35 70 75 73 121c-31 -1 -53 22 -53 51c0 33 23 56 56 56c36 0 59 -30 59 -77c0 -73 -41 -140 -110 -185z" />
    <glyph glyph-name="quotedblbase" unicode="&#x201e;" horiz-adv-x="442" 
d="M73 -160l-25 34c46 35 70 76 73 121c-29 -1 -53 20 -53 51c0 33 23 56 56 56c36 0 59 -30 59 -77c0 -73 -41 -140 -110 -185zM268 -160l-25 34c46 35 70 75 73 121c-31 -1 -53 20 -53 51c0 33 23 56 56 56c36 0 59 -30 59 -77c0 -73 -41 -140 -110 -185z" />
    <glyph glyph-name="dagger" unicode="&#x2020;" horiz-adv-x="492" 
d="M215 437h-173v63h173v172h62v-172h172v-63h-172v-437h-62v437z" />
    <glyph glyph-name="daggerdbl" unicode="&#x2021;" horiz-adv-x="492" 
d="M215 172h-173v63h173v202h-173v63h173v172h62v-172h172v-63h-172v-202h172v-63h-172v-172h-62v172z" />
    <glyph glyph-name="bullet" unicode="&#x2022;" horiz-adv-x="480" 
d="M138 186c-28 28 -42 62 -42 102s14 74 42 102s62 42 102 42s74 -14 102 -42s42 -62 42 -102s-14 -74 -42 -102s-62 -42 -102 -42s-74 14 -102 42z" />
    <glyph glyph-name="ellipsis" unicode="&#x2026;" horiz-adv-x="960" 
d="M104 46c0 33 23 56 56 56s56 -23 56 -56c0 -32 -23 -55 -56 -55s-56 22 -56 55zM424 46c0 33 23 56 56 56c32 0 56 -23 56 -56c0 -32 -24 -55 -56 -55c-33 0 -56 22 -56 55zM744 46c0 33 23 56 56 56c32 0 56 -23 56 -56c0 -32 -24 -55 -56 -55c-33 0 -56 22 -56 55z" />
    <glyph glyph-name="perthousand" unicode="&#x2030;" horiz-adv-x="1249" 
d="M44 504c0 53 16 96 47 129c31 34 71 51 120 51s88 -17 119 -51c31 -33 47 -76 47 -129s-16 -96 -47 -130c-31 -33 -70 -50 -119 -50s-89 17 -120 50c-31 34 -47 77 -47 130zM105 504c0 -77 43 -131 106 -131c61 0 105 52 105 131c0 77 -44 131 -105 131
s-106 -54 -106 -131zM201 -16l-42 32l504 672l42 -32zM487 168c0 53 15 96 46 129c31 34 71 51 120 51s89 -17 120 -51c31 -33 47 -76 47 -129s-16 -96 -47 -130c-31 -33 -71 -50 -120 -50s-89 17 -120 50s-46 77 -46 130zM548 168c0 -79 42 -131 105 -131s106 54 106 131
s-44 131 -107 131c-61 0 -104 -54 -104 -131zM872 168c0 53 16 96 47 129c31 34 71 51 120 51s88 -17 119 -51c31 -33 47 -76 47 -129s-16 -97 -47 -130s-70 -50 -119 -50s-90 17 -121 50s-46 77 -46 130zM933 168c0 -79 43 -131 106 -131c61 0 105 52 105 131
c0 77 -44 131 -105 131c-63 0 -106 -54 -106 -131z" />
    <glyph glyph-name="guilsinglleft" unicode="&#x2039;" horiz-adv-x="311" 
d="M227 10l-198 221v36l198 220l48 -38l-168 -200l168 -200z" />
    <glyph glyph-name="guilsinglright" unicode="&#x203a;" horiz-adv-x="311" 
d="M84 10l-48 39l168 200l-168 200l48 38l198 -220v-36z" />
    <glyph glyph-name="fraction" unicode="&#x2044;" horiz-adv-x="192" 
d="M-135 -16l-42 32l504 672l42 -32z" />
    <glyph glyph-name="Euro" unicode="&#x20ac;" 
d="M111 247h-77v50h70c-1 9 -1 22 -1 39c0 25 1 43 2 55h-71v50h81c17 75 49 134 97 177c49 44 106 66 172 66c62 0 120 -16 175 -47l-31 -55c-45 25 -90 38 -135 38c-96 0 -172 -71 -197 -179h245v-50h-259c-1 -12 -2 -30 -2 -55c0 -17 0 -30 1 -39h260v-50h-249
c21 -119 98 -195 201 -195c45 0 90 13 135 38l31 -55c-55 -31 -114 -47 -175 -47c-69 0 -128 23 -177 70s-81 110 -96 189z" />
    <glyph glyph-name="afii61248" unicode="&#x2105;" horiz-adv-x="844" 
d="M37 511c0 49 16 90 47 121c31 32 71 48 120 48c37 0 76 -12 115 -37l-27 -42c-28 19 -55 29 -82 29c-65 0 -111 -50 -111 -119c0 -71 46 -120 111 -120c27 0 54 10 82 29l27 -42c-39 -25 -78 -37 -115 -37c-49 0 -89 16 -120 48s-47 73 -47 122zM193 -16l-43 32l504 672
l43 -32zM472 161c0 50 15 91 46 122c31 32 72 48 121 48s89 -16 120 -48c31 -31 47 -72 47 -122c0 -49 -16 -90 -47 -122c-31 -31 -71 -47 -120 -47s-90 16 -121 47c-31 32 -46 73 -46 122zM534 161c0 -71 44 -120 105 -120c63 0 105 49 105 120c0 72 -42 121 -105 121
c-61 0 -105 -49 -105 -121z" />
    <glyph glyph-name="litre" unicode="&#x2113;" horiz-adv-x="381" 
d="M79 130v429c0 93 57 157 141 157c39 0 72 -15 97 -44s38 -65 38 -109c0 -111 -74 -221 -202 -306v-121c0 -48 34 -83 83 -83c21 0 45 4 72 11l11 -63c-33 -9 -65 -13 -94 -13c-43 0 -78 13 -105 40s-41 61 -41 102zM153 555v-224c89 65 139 143 139 222
c0 57 -28 97 -69 97s-70 -39 -70 -95z" />
    <glyph glyph-name="numero" unicode="&#x2116;" horiz-adv-x="1176" 
d="M177 0h-77v672h81l409 -558v558h77v-672h-81l-409 558v-558zM804 513c0 50 15 91 46 122c31 32 72 48 121 48s89 -16 120 -48c31 -31 47 -72 47 -122c0 -49 -16 -90 -47 -122c-31 -31 -71 -47 -120 -47s-90 16 -121 47c-31 32 -46 73 -46 122zM1134 231h-325v45h325v-45z
M866 513c0 -71 44 -120 105 -120c63 0 105 49 105 120c0 72 -42 121 -105 121c-61 0 -105 -49 -105 -121z" />
    <glyph glyph-name="uni2117" unicode="&#x2117;" horiz-adv-x="832" 
d="M95 145c-31 56 -47 119 -47 190c0 143 66 259 178 322c56 31 119 47 190 47c141 0 258 -66 321 -178c31 -56 47 -120 47 -191c0 -141 -66 -257 -178 -320c-56 -31 -119 -47 -190 -47c-141 0 -258 66 -321 177zM416 13c189 0 323 134 323 323c0 125 -57 227 -156 282
c-49 27 -104 41 -167 41s-119 -14 -168 -41c-97 -55 -155 -157 -155 -282c0 -189 134 -323 323 -323zM345 128h-58v416h161c84 0 143 -54 143 -133s-59 -134 -143 -134h-103v-149zM345 495v-169h97c52 0 90 36 90 85s-38 84 -90 84h-97z" />
    <glyph glyph-name="uni2120" unicode="&#x2120;" horiz-adv-x="930" 
d="M39 280l17 48c49 -20 92 -30 130 -30c57 0 93 27 93 68c0 104 -236 46 -236 199c0 67 60 115 147 115c44 0 90 -9 139 -28l-17 -48c-44 17 -83 25 -118 25c-55 0 -89 -25 -89 -64c0 -102 236 -40 236 -199c0 -69 -62 -118 -151 -118c-49 0 -99 11 -151 32zM505 256h-57
v416h62l145 -198l145 198h62v-416h-57v331l-132 -180h-36l-132 180v-331z" />
    <glyph glyph-name="trademark" unicode="&#x2122;" horiz-adv-x="942" 
d="M165 623h-141v49h343v-49h-140v-367h-62v367zM516 256h-56v416h61l146 -198l145 198h62v-416h-58v331l-131 -180h-37l-132 180v-331z" />
    <glyph glyph-name="uni2126" unicode="&#x2126;" horiz-adv-x="785" 
d="M332 0h-280v65h179c-104 73 -160 177 -160 298c0 94 30 171 90 231s137 90 232 90s172 -30 231 -90c60 -60 90 -137 90 -231c0 -121 -55 -225 -159 -298h178v-65h-280v55c119 77 178 178 178 302c0 77 -22 139 -66 187c-44 49 -101 73 -172 73s-128 -24 -173 -73
c-44 -48 -66 -110 -66 -187c0 -124 63 -226 178 -302v-55z" />
    <glyph glyph-name="estimated" unicode="&#x212e;" horiz-adv-x="960" 
d="M864 336c0 -7 0 -13 -1 -16h-623v-196c60 -68 145 -108 240 -108c96 0 183 41 243 112h66c-72 -88 -185 -144 -309 -144c-159 0 -294 89 -354 215c-63 129 -22 293 82 386c101 95 281 134 421 75c138 -54 235 -178 235 -324zM240 548v-196h480v196
c-60 67 -147 108 -240 108c-95 0 -180 -41 -240 -108z" />
    <glyph glyph-name="uni215F" unicode="&#x215f;" 
d="M92 553l-23 42l135 77h50v-416h-60v355zM249 -16l-42 32l504 672l42 -32z" />
    <glyph glyph-name="arrowleft" unicode="&#x2190;" horiz-adv-x="960" 
d="M353 -33l-321 321l321 321l55 -51l-239 -233h759v-74h-759l239 -233z" />
    <glyph glyph-name="arrowup" unicode="&#x2191;" horiz-adv-x="960" 
d="M210 360l-51 55l321 321l321 -321l-51 -55l-233 239v-759h-74v759z" />
    <glyph glyph-name="arrowright" unicode="&#x2192;" horiz-adv-x="960" 
d="M791 251h-759v74h759l-239 233l55 51l321 -321l-321 -321l-55 51z" />
    <glyph glyph-name="arrowdown" unicode="&#x2193;" horiz-adv-x="960" 
d="M480 -160l-321 321l51 55l233 -239v759h74v-759l233 239l51 -55z" />
    <glyph glyph-name="uni2196" unicode="&#x2196;" horiz-adv-x="960" 
d="M238 148l-75 2v455h455l2 -75l-334 4l537 -537l-52 -52l-537 537z" />
    <glyph glyph-name="uni2197" unicode="&#x2197;" horiz-adv-x="960" 
d="M189 -55l-52 52l537 537l-334 -4l2 75h455v-455l-75 -2l4 334z" />
    <glyph glyph-name="uni2198" unicode="&#x2198;" horiz-adv-x="960" 
d="M674 42l-537 537l52 52l537 -537l-4 334l75 -2v-455h-455l-2 75z" />
    <glyph glyph-name="uni2199" unicode="&#x2199;" horiz-adv-x="960" 
d="M618 -29h-455v455l75 2l-4 -334l537 537l52 -52l-537 -537l334 4z" />
    <glyph glyph-name="partialdiff" unicode="&#x2202;" horiz-adv-x="583" 
d="M44 254c0 70 21 128 64 174c43 47 96 70 161 70c77 0 142 -34 179 -97c-8 163 -74 251 -186 251c-43 0 -89 -12 -138 -37l-29 58c57 29 115 43 173 43c169 0 263 -129 263 -400c0 -101 -23 -181 -68 -240s-105 -88 -180 -88c-70 0 -127 25 -172 74s-67 113 -67 192z
M121 249c0 -57 15 -104 46 -140s71 -54 119 -54s87 20 118 60c31 41 47 92 47 155c0 46 -16 84 -47 115s-70 46 -118 46s-88 -17 -119 -51c-31 -33 -46 -77 -46 -131z" />
    <glyph glyph-name="uni2206" unicode="&#x2206;" horiz-adv-x="671" 
d="M637 0h-603v47l263 625h77l263 -625v-47zM335 578l-213 -513h426z" />
    <glyph glyph-name="product" unicode="&#x220f;" horiz-adv-x="785" 
d="M182 -208h-82v912h586v-912h-83v847h-421v-847z" />
    <glyph glyph-name="summation" unicode="&#x2211;" horiz-adv-x="630" 
d="M41 -208v50l326 414l-310 398v50h534v-65h-424l280 -363v-40l-296 -379h456v-65h-566z" />
    <glyph glyph-name="minus" unicode="&#x2212;" 
d="M524 254h-472v68h472v-68z" />
    <glyph glyph-name="uni2215" unicode="&#x2215;" horiz-adv-x="192" 
d="M-135 -16l-42 32l504 672l42 -32z" />
    <glyph glyph-name="radical" unicode="&#x221a;" horiz-adv-x="663" 
d="M23 78l-21 64l227 73l111 -326l236 825l67 -17l-260 -905h-83l-115 338z" />
    <glyph glyph-name="integral" unicode="&#x222b;" horiz-adv-x="401" 
d="M84 -207l16 64c17 -7 35 -10 52 -10c74 2 98 90 64 208c-19 81 -49 163 -77 246s-50 173 -50 240c0 51 14 93 41 126c28 33 64 49 108 49c27 0 53 -4 80 -13l-16 -64c-17 7 -35 10 -53 10c-74 -2 -97 -90 -65 -208c20 -81 51 -163 79 -246s50 -173 50 -240
c0 -51 -14 -93 -42 -126s-64 -49 -107 -49c-27 0 -53 4 -80 13z" />
    <glyph glyph-name="approxequal" unicode="&#x2248;" 
d="M78 126l-37 57c43 37 91 56 145 56c72 0 140 -48 204 -48c38 0 74 14 108 43l37 -57c-43 -37 -92 -55 -145 -55c-72 0 -140 48 -204 48c-39 0 -75 -15 -108 -44zM78 342l-37 57c43 37 92 55 145 55c85 0 127 -48 204 -48c38 0 74 15 108 44l37 -57
c-43 -37 -92 -56 -145 -56c-72 0 -140 48 -204 48c-38 0 -74 -14 -108 -43z" />
    <glyph glyph-name="notequal" unicode="&#x2260;" 
d="M180 149h-128v68h162l71 142h-233v68h267l72 144l61 -30l-57 -114h129v-68h-163l-70 -142h233v-68h-267l-72 -144l-61 30z" />
    <glyph glyph-name="uni22C5" unicode="&#x22c5;" horiz-adv-x="247" 
d="M68 248c0 33 23 56 56 56c32 0 56 -23 56 -56c0 -32 -24 -55 -56 -55c-33 0 -56 23 -56 55z" />
    <glyph glyph-name="lozenge" unicode="&#x25ca;" 
d="M254 0l-213 336l213 336h68l213 -336l-213 -336h-68zM288 597l-165 -261l165 -263l165 263z" />
    <glyph glyph-name="uniE000" unicode="&#xe000;" horiz-adv-x="485" 
d="M485 0h-485v485h485v-485z" />
    <glyph glyph-name="afii10066.locl" unicode="&#xe700;" horiz-adv-x="535" 
d="M36 203c0 99 63 187 163 236c-61 37 -91 80 -91 130c0 81 66 135 167 135h164v-62h-155c-63 0 -99 -28 -99 -73c0 -118 314 -117 314 -362c0 -64 -22 -117 -65 -158s-99 -61 -166 -61c-68 0 -124 20 -167 60c-43 41 -65 92 -65 155zM115 207c0 -45 14 -83 43 -112
s65 -43 110 -43s81 15 109 44c29 30 43 68 43 114c0 84 -48 138 -155 194c-96 -44 -150 -117 -150 -197z" />
    <glyph glyph-name="afii10068.alt" unicode="&#xe701;" horiz-adv-x="449" 
d="M44 128c0 186 279 113 279 234c0 45 -41 75 -104 75c-43 0 -90 -11 -140 -32l-19 59c57 23 112 34 165 34c52 0 94 -13 127 -39c33 -25 49 -58 49 -97c0 -183 -278 -110 -278 -234c0 -47 44 -79 108 -79c47 0 99 12 156 35l18 -59c-63 -25 -123 -37 -180 -37
c-107 0 -181 57 -181 140z" />
    <glyph glyph-name="afii10069.alt" unicode="&#xe702;" horiz-adv-x="583" 
d="M44 243c0 74 21 135 62 183s94 72 158 72c72 0 132 -33 167 -93l10 81h64v-495c0 -61 -23 -112 -68 -151c-45 -40 -102 -60 -172 -60c-59 0 -123 14 -192 43l24 60c60 -26 114 -39 162 -39c97 0 166 59 166 144v88c-35 -56 -93 -88 -161 -88c-64 0 -117 24 -158 71
c-41 48 -62 109 -62 184zM126 243c0 -55 15 -101 44 -137c29 -35 67 -53 113 -53c84 0 143 62 143 151v78c0 88 -59 151 -143 151c-46 0 -84 -18 -113 -54c-29 -35 -44 -81 -44 -136z" />
    <glyph glyph-name="afii10081.alt" unicode="&#xe703;" horiz-adv-x="583" 
d="M158 0h-79v486h64l10 -89c33 64 98 101 175 101c54 0 98 -17 133 -51c35 -33 52 -77 52 -130v-317h-80v305c0 75 -52 126 -128 126c-42 0 -77 -15 -105 -44s-42 -67 -42 -113v-274z" />
    <glyph glyph-name="afii10084.alt" unicode="&#xe704;" horiz-adv-x="905" 
d="M158 0h-79v486h64l10 -85c35 63 94 97 167 97c76 0 137 -41 160 -106c39 67 102 106 178 106c52 0 94 -16 127 -49c33 -32 50 -73 50 -124v-325h-80v313c0 69 -50 118 -119 118c-41 0 -74 -14 -100 -42s-39 -64 -39 -107v-282h-80v313c0 69 -49 118 -120 118
c-81 0 -139 -61 -139 -149v-282z" />
    <glyph glyph-name="commaaccent.alt" unicode="&#xea01;" horiz-adv-x="240" 
d="M67 611c0 63 35 120 95 157l23 -31c-38 -29 -58 -62 -61 -100c25 1 45 -18 45 -43c0 -28 -20 -49 -49 -49c-32 0 -53 26 -53 66z" />
    <glyph glyph-name="caron.alt" unicode="&#xea02;" horiz-adv-x="240" 
d="M134 545l-53 18l63 170l60 -20z" />
    <glyph glyph-name="ringacute" unicode="&#xea03;" horiz-adv-x="240" 
d="M20 629c0 35 16 63 48 84l162 109l33 -50l-96 -59c33 -15 53 -45 53 -84c0 -56 -40 -94 -99 -94s-101 38 -101 94zM120 688c-35 0 -59 -24 -59 -59s25 -59 60 -59s58 24 58 59s-24 59 -59 59z" />
    <glyph glyph-name="registered.alt" unicode="&#xec00;" horiz-adv-x="512" 
d="M95 303c-42 42 -63 96 -63 161s21 119 63 161s96 63 161 63s119 -21 161 -63s63 -96 63 -161s-21 -119 -63 -161s-96 -63 -161 -63s-119 21 -161 63zM117 602c-35 -36 -53 -82 -53 -139c0 -56 18 -102 53 -138c36 -35 82 -53 138 -53c57 0 103 18 139 53
c36 36 54 82 54 138c0 57 -18 103 -54 139s-82 54 -139 54c-56 0 -102 -18 -138 -54zM210 344h-35v240h94c47 0 80 -30 80 -73c0 -36 -22 -64 -57 -69l67 -98h-41l-61 92h-47v-92zM210 555v-89h54c64 -6 64 93 0 89h-54z" />
    <glyph glyph-name="apple" unicode="&#xf8ff;" horiz-adv-x="591" 
d="M238 0h-138v659h391v-65h-326v-529h73v-65zM491 202h-261v65h196v66h-196v195h261v-65h-196v-65h196v-196z" />
    <glyph glyph-name="yen.001" 
d="M225 359l-201 313h88l176 -285l176 285h88l-201 -313h141v-57h-163v-93h163v-57h-163v-152h-82v152h-163v57h163v93h-163v57h141z" />
    <glyph glyph-name="plusminus.001" 
d="M524 0h-472v68h472v-68zM254 343h-202v68h202v201h68v-201h202v-68h-202v-202h-68v202z" />
    <glyph glyph-name="lessequal.001" 
d="M524 0h-472v68h472v-68zM503 135l-451 208v68l451 208l28 -65l-386 -177l386 -178z" />
    <glyph glyph-name="greaterequal.001" 
d="M73 135l-28 64l386 178l-386 177l28 65l451 -208v-68zM524 0h-472v68h472v-68z" />
    <glyph glyph-name="infinity.001" horiz-adv-x="785" 
d="M36 288c0 56 16 102 48 138s74 54 125 54c77 0 129 -40 184 -135c56 96 107 135 184 135c51 0 93 -18 124 -54c32 -35 48 -81 48 -138c0 -55 -16 -101 -48 -138c-31 -36 -73 -54 -124 -54c-77 0 -128 40 -184 135c-55 -95 -107 -135 -184 -135c-52 0 -94 18 -126 54
c-31 36 -47 82 -47 138zM110 288c0 -76 44 -128 109 -128c57 0 94 39 138 128c-44 89 -81 128 -138 128c-65 0 -109 -53 -109 -128zM428 288c45 -89 82 -128 139 -128c64 0 108 53 108 128c0 76 -44 128 -108 128c-57 0 -94 -39 -139 -128z" />
    <glyph glyph-name="ordfeminine.001" horiz-adv-x="384" 
d="M357 231h-331v45h331v-45zM37 442c0 65 57 105 149 105c22 0 45 -3 70 -8v27c0 43 -30 71 -77 71c-35 0 -70 -8 -107 -24l-16 43c46 18 89 27 128 27c77 0 129 -47 129 -119v-146c0 -16 10 -26 26 -26c7 0 14 1 19 2l5 -47c-11 -2 -24 -3 -38 -3c-33 0 -60 21 -65 50
c-26 -33 -62 -50 -109 -50c-65 0 -114 42 -114 98zM96 445c0 -33 29 -57 69 -57c53 0 91 36 91 87v28c-24 5 -45 8 -64 8c-60 0 -96 -25 -96 -66z" />
    <glyph glyph-name="ordmasculine.001" horiz-adv-x="409" 
d="M37 513c0 50 16 91 47 122c31 32 72 48 121 48s89 -16 120 -48c31 -31 47 -72 47 -122c0 -49 -16 -90 -47 -122c-31 -31 -71 -47 -120 -47s-90 16 -121 47c-31 32 -47 73 -47 122zM367 231h-325v45h325v-45zM100 513c0 -71 44 -120 105 -120s104 49 104 120
c0 72 -43 121 -104 121s-105 -49 -105 -121z" />
    </font>
</defs>
</svg>
