<?xml version="1.0" standalone="no"?>
<!DOCTYPE svg PUBLIC "-//W3C//DTD SVG 1.1//EN" "http://www.w3.org/Graphics/SVG/1.1/DTD/svg11.dtd" >
<svg xmlns="http://www.w3.org/2000/svg" xmlns:xlink="http://www.w3.org/1999/xlink" version="1.1">
<metadata>
Created by FontForge 20161116 at Thu Feb 20 05:22:56 2014
 By Jimmy Warting
Copyright \(c\) 2012 by Fontsmith Ltd. All rights reserved.
</metadata>
<defs>
<font id="FSElliotPro-Heavy" horiz-adv-x="576" >
  <font-face 
    font-family="FS Elliot Pro"
    font-weight="900"
    font-stretch="normal"
    units-per-em="1000"
    panose-1="2 0 5 3 5 0 0 2 0 4"
    ascent="800"
    descent="-200"
    x-height="495"
    cap-height="672"
    bbox="-200 -321 1249 930"
    underline-thickness="50"
    underline-position="-100"
    unicode-range="U+000D-FB04"
  />
<missing-glyph horiz-adv-x="500" 
d="M488 0h-476v672h476v-672zM60 580v-488l162 244zM250 292l-162 -244h324zM412 624h-324l162 -244zM440 580l-162 -244l162 -244v488z" />
    <glyph glyph-name="f_f" unicode="ff" horiz-adv-x="742" 
d="M100 362h-83v133h83v46c0 53 17 95 51 127c35 32 80 48 135 48c41 0 82 -5 123 -16l-22 -130c-23 4 -42 6 -58 6c-32 0 -53 -20 -53 -53v-28h171v46c0 53 17 95 51 127s79 48 134 48c41 0 82 -5 124 -16l-23 -130c-23 4 -42 6 -57 6c-33 0 -53 -20 -53 -53v-28h101v-133
h-101v-362h-176v362h-171v-362h-176v362z" />
    <glyph glyph-name="fi" unicode="fi" horiz-adv-x="659" 
d="M100 362h-83v133h83v23c0 58 21 105 64 142s99 56 168 56c59 0 121 -9 186 -28l-30 -132c-51 16 -94 24 -127 24c-52 0 -85 -28 -85 -69v-16h331v-495h-176v362h-155v-362h-176v362z" />
    <glyph glyph-name="fl" unicode="fl" horiz-adv-x="707" 
d="M100 362h-83v133h83v23c0 59 22 106 66 143c45 37 102 55 173 55c72 0 161 -9 268 -27v-522c0 -24 15 -39 39 -39c9 0 22 1 41 4l18 -132c-38 -8 -72 -12 -103 -12c-51 0 -92 15 -124 45c-31 30 -47 69 -47 116v424c-29 5 -55 7 -78 7c-47 0 -77 -28 -77 -69v-16h102
v-133h-102v-362h-176v362z" />
    <glyph glyph-name="f_f_i" unicode="ffi" horiz-adv-x="1005" 
d="M100 362h-83v133h83v46c0 53 17 95 51 127c35 32 80 48 135 48c41 0 82 -5 123 -16l-22 -130c-23 4 -42 6 -58 6c-32 0 -53 -20 -53 -53v-28h171v23c0 58 21 105 64 142s99 56 167 56c59 0 121 -9 186 -28l-30 -132c-51 16 -93 24 -127 24c-52 0 -84 -28 -84 -69v-16h330
v-495h-176v362h-154v-362h-176v362h-171v-362h-176v362z" />
    <glyph glyph-name="f_f_l" unicode="ffl" horiz-adv-x="1053" 
d="M100 362h-83v133h83v46c0 53 17 95 51 127c35 32 80 48 135 48c41 0 82 -5 123 -16l-22 -130c-23 4 -42 6 -58 6c-32 0 -53 -20 -53 -53v-28h171v23c0 59 22 106 66 143s101 55 172 55c73 0 162 -9 268 -27v-522c0 -24 15 -39 39 -39c9 0 22 1 41 4l19 -132
c-39 -8 -73 -12 -104 -12c-51 0 -92 15 -124 45c-31 30 -47 69 -47 116v424c-83 18 -155 5 -154 -62v-16h101v-133h-101v-362h-176v362h-171v-362h-176v362z" />
    <glyph glyph-name=".notdef" horiz-adv-x="500" 
d="M488 0h-476v672h476v-672zM60 580v-488l162 244zM250 292l-162 -244h324zM412 624h-324l162 -244zM440 580l-162 -244l162 -244v488z" />
    <glyph glyph-name="NULL" horiz-adv-x="0" 
 />
    <glyph glyph-name="NULL" horiz-adv-x="0" 
 />
    <glyph glyph-name="CR.001" horiz-adv-x="333" 
 />
    <glyph glyph-name="CR" unicode="&#xd;" horiz-adv-x="240" 
 />
    <glyph glyph-name="space" unicode=" " horiz-adv-x="240" 
 />
    <glyph glyph-name="exclam" unicode="!" horiz-adv-x="298" 
d="M49 89c0 57 41 100 100 100s100 -41 100 -100c0 -60 -41 -101 -100 -101c-61 0 -100 41 -100 101zM76 236l-15 436h176l-15 -436h-146z" />
    <glyph glyph-name="quotedbl" unicode="&#x22;" horiz-adv-x="483" 
d="M59 407l-15 265h162l-15 -265h-132zM292 407l-15 265h162l-15 -265h-132z" />
    <glyph glyph-name="numbersign" unicode="#" horiz-adv-x="669" 
d="M94 135h-78v133h104l26 136h-79v133h104l29 146l130 -18l-24 -128h135l28 146l130 -18l-24 -128h78v-133h-104l-26 -136h79v-133h-104l-29 -146l-130 18l24 128h-134l-29 -146l-130 18zM280 404l-26 -136h135l26 136h-135z" />
    <glyph glyph-name="dollar" unicode="$" 
d="M49 82l41 136c70 -28 131 -42 183 -42c49 0 74 15 74 46c0 74 -294 9 -294 232c0 87 63 153 162 174v172h146v-169c45 -7 94 -20 146 -39l-41 -136c-63 27 -118 40 -163 40s-70 -15 -70 -42c0 -69 294 -2 294 -232c0 -89 -65 -157 -166 -178v-172h-146v169
c-57 6 -112 20 -166 41z" />
    <glyph glyph-name="percent" unicode="%" horiz-adv-x="864" 
d="M215 684c55 0 100 -17 135 -51c36 -33 54 -76 54 -129s-18 -96 -54 -130c-35 -33 -80 -50 -135 -50s-101 17 -136 50c-35 34 -52 77 -52 130s17 96 52 129c35 34 81 51 136 51zM224 -33l-88 66l504 672l88 -66zM215 424c36 0 60 32 60 80s-24 80 -60 80s-59 -32 -59 -80
s23 -80 59 -80zM649 348c54 0 99 -17 134 -51c36 -33 54 -76 54 -129s-18 -96 -54 -130c-35 -33 -80 -50 -134 -50c-55 0 -101 17 -136 50c-35 34 -53 77 -53 130s18 96 53 129c35 34 81 51 136 51zM649 88c35 0 59 32 59 80s-24 80 -59 80c-36 0 -60 -32 -60 -80
s24 -80 60 -80z" />
    <glyph glyph-name="ampersand" unicode="&#x26;" horiz-adv-x="668" 
d="M20 191c0 76 48 142 135 182c-42 45 -63 90 -63 135c0 51 20 93 60 126s91 50 153 50c61 0 111 -15 150 -46c39 -30 58 -69 58 -118c0 -77 -45 -137 -136 -180l88 -95c11 23 18 53 19 90h147c-3 -78 -25 -145 -66 -200l123 -135h-191l-46 50c-58 -41 -118 -62 -180 -62
c-73 0 -134 19 -181 56c-47 38 -70 87 -70 147zM185 205c0 -48 49 -85 101 -85c28 0 54 9 77 26l-129 141c-31 -20 -49 -50 -49 -82zM249 501c0 -19 15 -42 46 -69c43 22 64 46 64 72c0 28 -22 48 -54 48c-33 0 -56 -22 -56 -51z" />
    <glyph glyph-name="quotesingle" unicode="'" horiz-adv-x="250" 
d="M59 407l-15 265h162l-15 -265h-132z" />
    <glyph glyph-name="parenleft" unicode="(" horiz-adv-x="364" 
d="M52 288c0 175 64 339 183 468l124 -81c-97 -111 -145 -240 -145 -387s48 -276 145 -387l-124 -81c-119 128 -183 292 -183 468z" />
    <glyph glyph-name="parenright" unicode=")" horiz-adv-x="364" 
d="M129 -180l-125 81c97 111 146 240 146 387s-49 276 -146 387l125 81c119 -128 182 -292 182 -468c0 -175 -63 -340 -182 -468z" />
    <glyph glyph-name="asterisk" unicode="*" horiz-adv-x="509" 
d="M160 420l-134 44l37 111l133 -43v140h117v-140l133 43l37 -111l-134 -44l83 -114l-94 -70l-83 119l-84 -119l-94 70z" />
    <glyph glyph-name="plus" unicode="+" 
d="M215 215h-180v146h180v180h146v-180h180v-146h-180v-180h-146v180z" />
    <glyph glyph-name="comma" unicode="," horiz-adv-x="282" 
d="M37 92c0 60 44 104 104 104c63 0 105 -49 105 -120c0 -92 -54 -180 -146 -236l-52 67c34 29 58 58 72 89c-49 7 -83 45 -83 96z" />
    <glyph glyph-name="hyphen" unicode="-" horiz-adv-x="320" 
d="M303 187h-286v132h286v-132z" />
    <glyph glyph-name="period" unicode="." horiz-adv-x="282" 
d="M37 92c0 60 44 104 104 104c61 0 104 -44 104 -104s-44 -104 -104 -104s-104 44 -104 104z" />
    <glyph glyph-name="slash" unicode="/" horiz-adv-x="384" 
d="M113 -157l-139 44l297 846l139 -44z" />
    <glyph glyph-name="zero" unicode="0" 
d="M89 79c-46 61 -69 146 -69 256c0 111 23 196 69 257c47 61 113 92 199 92s152 -31 198 -92c47 -61 70 -146 70 -257c0 -110 -23 -195 -70 -256c-46 -61 -112 -91 -198 -91s-152 30 -199 91zM212 487c-18 -35 -27 -86 -27 -151s9 -116 27 -152c18 -35 43 -53 76 -53
s58 18 76 53c18 36 27 87 27 152s-9 116 -27 151c-18 36 -43 54 -76 54s-58 -18 -76 -54z" />
    <glyph glyph-name="one" unicode="1" 
d="M114 427l-59 118l223 127h147v-672h-176v503z" />
    <glyph glyph-name="two" unicode="2" 
d="M95 484l-66 129c84 47 165 71 243 71c67 0 122 -20 164 -59c43 -39 64 -90 64 -151c0 -72 -33 -141 -99 -207l-127 -127h234v-140h-466v110l216 216c47 47 70 88 70 123c0 52 -39 88 -92 88c-16 0 -32 -3 -49 -8c-33 -11 -48 -20 -92 -45z" />
    <glyph glyph-name="three" unicode="3" 
d="M21 43l55 129c61 -29 118 -44 171 -44c52 0 89 29 89 73c0 48 -44 80 -111 80h-53v126h53c59 0 99 29 99 72c0 39 -29 65 -74 65c-46 0 -99 -13 -158 -40l-55 129c79 34 159 51 242 51c65 0 118 -17 159 -52s62 -80 62 -135c0 -68 -36 -124 -93 -149
c64 -24 109 -90 109 -165c0 -58 -22 -105 -67 -141c-44 -36 -101 -54 -170 -54c-91 0 -177 18 -258 55z" />
    <glyph glyph-name="four" unicode="4" 
d="M319 132h-301v118l293 422h169v-407h76v-133h-76v-132h-161v132zM319 466l-139 -201h139v201z" />
    <glyph glyph-name="five" unicode="5" 
d="M36 51l67 129c50 -33 97 -49 140 -49c63 0 102 31 102 82c0 57 -45 90 -124 90c-43 0 -88 -5 -137 -16v385h409v-140h-255v-109c9 1 22 1 41 1c72 0 130 -20 173 -59s65 -90 65 -155c0 -64 -24 -117 -73 -159s-111 -63 -187 -63c-79 0 -152 21 -221 63z" />
    <glyph glyph-name="six" unicode="6" 
d="M29 310c0 117 27 209 82 275s130 99 225 99c71 0 136 -16 195 -47l-59 -125c-47 24 -90 36 -129 36c-85 0 -142 -54 -149 -145c41 31 87 46 139 46c65 0 119 -21 160 -62c42 -41 63 -93 63 -158c0 -71 -24 -129 -71 -174s-107 -67 -181 -67c-172 0 -275 121 -275 322z
M202 228c0 -61 39 -104 95 -104s97 42 97 98s-39 94 -94 94c-57 0 -98 -36 -98 -88z" />
    <glyph glyph-name="seven" unicode="7" 
d="M325 532h-281v140h472v-110l-237 -562h-184z" />
    <glyph glyph-name="eight" unicode="8" 
d="M21 186c0 69 40 127 111 158c-59 29 -95 85 -95 150c0 57 23 103 69 138c47 35 107 52 182 52s135 -17 181 -52c47 -35 70 -81 70 -138c0 -65 -36 -121 -95 -150c71 -32 111 -89 111 -158c0 -59 -25 -107 -74 -144c-49 -36 -113 -54 -193 -54s-145 18 -194 54
c-49 37 -73 85 -73 144zM197 197c0 -45 38 -77 91 -77s91 32 91 77c0 39 -30 67 -91 84c-61 -17 -91 -45 -91 -84zM206 483c0 -36 27 -61 82 -76c55 15 82 40 82 76c0 40 -34 69 -82 69s-82 -29 -82 -69z" />
    <glyph glyph-name="nine" unicode="9" 
d="M20 443c0 71 24 128 71 173s108 68 181 68c172 0 275 -121 275 -322c0 -117 -27 -209 -82 -275s-130 -99 -225 -99c-70 0 -135 16 -195 47l59 125c47 -24 90 -36 129 -36c84 0 142 54 149 145c-41 -31 -87 -46 -139 -46c-65 0 -119 20 -161 61c-41 41 -62 94 -62 159z
M182 450c0 -55 38 -94 94 -94c57 0 98 36 98 88c0 60 -40 104 -95 104c-56 0 -97 -42 -97 -98z" />
    <glyph glyph-name="colon" unicode=":" horiz-adv-x="298" 
d="M45 92c0 60 44 104 104 104s104 -44 104 -104s-44 -104 -104 -104s-104 44 -104 104zM45 402c0 60 44 104 104 104s104 -44 104 -104s-44 -104 -104 -104s-104 44 -104 104z" />
    <glyph glyph-name="semicolon" unicode=";" horiz-adv-x="298" 
d="M45 92c0 60 44 104 104 104c61 0 105 -49 105 -120c0 -92 -54 -180 -146 -236l-52 67c33 28 57 58 72 89c-49 7 -83 45 -83 96zM45 402c0 60 44 104 104 104s104 -44 104 -104s-44 -104 -104 -104s-104 44 -104 104z" />
    <glyph glyph-name="less" unicode="&#x3c;" 
d="M497 7l-462 208v146l462 208l59 -139l-323 -142l323 -142z" />
    <glyph glyph-name="equal" unicode="=" 
d="M541 89h-506v147h506v-147zM541 340h-506v147h506v-147z" />
    <glyph glyph-name="greater" unicode="&#x3e;" 
d="M79 7l-59 139l323 142l-323 142l59 139l462 -208v-146z" />
    <glyph glyph-name="question" unicode="?" horiz-adv-x="477" 
d="M84 495l-66 125c65 43 134 64 205 64c65 0 117 -18 158 -53s62 -79 62 -134c0 -142 -131 -185 -145 -253l-2 -8h-147v22c0 113 118 145 118 214c0 39 -30 65 -73 65c-32 0 -62 -14 -110 -42zM122 92c0 59 41 97 101 97c59 0 100 -38 100 -97s-43 -104 -100 -104
c-59 0 -101 44 -101 104z" />
    <glyph glyph-name="at" unicode="@" horiz-adv-x="989" 
d="M28 247c0 265 198 452 479 452c266 -1 455 -163 454 -396c0 -81 -22 -147 -65 -198s-99 -76 -168 -76c-61 0 -106 19 -136 58c-43 -39 -93 -58 -150 -58s-105 20 -142 61s-55 94 -55 157s18 115 55 156s85 62 142 62c45 0 83 -13 114 -40l18 30h143v-262
c0 -23 13 -39 33 -39c39 0 65 54 65 134c0 83 -29 151 -86 203c-57 53 -131 79 -222 79c-194 0 -332 -134 -332 -323c0 -95 31 -172 93 -232s142 -90 239 -90c72 0 151 24 237 72l66 -114c-108 -58 -209 -87 -303 -87c-282 0 -479 186 -479 451zM487 163c35 0 58 29 58 66
v36c0 39 -23 66 -58 66c-39 0 -66 -35 -66 -84s27 -84 66 -84z" />
    <glyph glyph-name="A" unicode="A" horiz-adv-x="692" 
d="M173 0h-184l273 672h169l272 -672h-183l-50 136h-247zM346 473l-76 -205h152z" />
    <glyph glyph-name="B" unicode="B" horiz-adv-x="669" 
d="M398 0h-329v672h313c67 0 121 -17 163 -51c43 -34 64 -78 64 -132c0 -63 -34 -111 -83 -138c67 -27 107 -87 107 -160c0 -56 -22 -102 -66 -138c-44 -35 -100 -53 -169 -53zM245 285v-153h124c51 0 85 30 85 77c0 45 -34 76 -85 76h-124zM245 540v-137h112
c45 0 76 27 76 68s-31 69 -76 69h-112z" />
    <glyph glyph-name="C" unicode="C" horiz-adv-x="655" 
d="M28 336c-3 201 152 351 359 348c88 0 173 -26 255 -79l-73 -121c-54 37 -106 55 -157 55c-59 0 -106 -19 -143 -57c-36 -37 -54 -86 -54 -146s18 -109 54 -147c37 -37 84 -56 143 -56c51 0 103 18 157 55l73 -121c-82 -53 -167 -79 -255 -79c-207 -3 -362 147 -359 348z
" />
    <glyph glyph-name="D" unicode="D" horiz-adv-x="740" 
d="M362 0h-293v672h293c105 0 189 -31 254 -93s97 -143 97 -243c0 -99 -33 -180 -98 -243c-65 -62 -149 -93 -253 -93zM252 532v-392h88c54 0 98 18 133 55s53 84 53 141s-18 104 -53 141s-79 55 -133 55h-88z" />
    <glyph glyph-name="E" unicode="E" horiz-adv-x="607" 
d="M572 0h-503v672h487v-136h-304v-126h272v-132h-272v-142h320v-136z" />
    <glyph glyph-name="F" unicode="F" horiz-adv-x="591" 
d="M252 0h-183v672h487v-140h-304v-146h272v-139h-272v-247z" />
    <glyph glyph-name="G" unicode="G" horiz-adv-x="724" 
d="M28 336c0 204 152 348 367 348c86 0 174 -24 263 -71l-66 -122c-68 35 -126 53 -175 53c-62 0 -113 -19 -152 -58s-58 -89 -58 -150c0 -62 19 -112 58 -151c39 -38 90 -57 152 -57c31 0 60 5 88 15v117h-134v133h302v-346c-95 -39 -185 -59 -270 -59
c-217 -3 -378 146 -375 348z" />
    <glyph glyph-name="H" unicode="H" horiz-adv-x="788" 
d="M252 0h-183v672h183v-258h284v258h183v-672h-183v274h-284v-274z" />
    <glyph glyph-name="I" unicode="I" horiz-adv-x="321" 
d="M252 0h-183v672h183v-672z" />
    <glyph glyph-name="J" unicode="J" horiz-adv-x="461" 
d="M10 8l22 139c37 -8 66 -12 87 -12c52 0 90 37 90 90v447h183v-465c0 -65 -21 -118 -64 -159c-42 -40 -97 -60 -165 -60c-50 0 -101 7 -153 20z" />
    <glyph glyph-name="K" unicode="K" horiz-adv-x="698" 
d="M245 0h-176v672h176v-284l248 284h210l-286 -314l298 -358h-213l-207 251l-50 -54v-197z" />
    <glyph glyph-name="L" unicode="L" horiz-adv-x="543" 
d="M525 0h-456v672h183v-532h273v-140z" />
    <glyph glyph-name="M" unicode="M" horiz-adv-x="876" 
d="M238 0h-169v672h176l193 -267l193 267h176v-672h-168v423l-151 -209h-100l-150 209v-423z" />
    <glyph glyph-name="N" unicode="N" horiz-adv-x="788" 
d="M238 0h-169v672h176l306 -423v423h168v-672h-176l-305 423v-423z" />
    <glyph glyph-name="O" unicode="O" horiz-adv-x="788" 
d="M55 195c-36 87 -36 196 0 281c36 87 100 147 191 182s205 35 296 0s156 -95 192 -182c36 -85 36 -194 0 -281c-36 -85 -101 -146 -192 -181s-205 -35 -296 0s-155 96 -191 181zM394 131c53 0 97 19 130 57c33 39 50 88 50 148s-17 109 -50 147c-33 39 -77 58 -130 58
s-96 -19 -129 -58c-33 -38 -50 -87 -50 -147s17 -109 50 -148c33 -38 76 -57 129 -57z" />
    <glyph glyph-name="P" unicode="P" horiz-adv-x="637" 
d="M245 0h-176v672h297c74 0 134 -22 181 -65s70 -99 70 -167s-23 -124 -70 -168c-47 -43 -107 -65 -181 -65h-121v-207zM245 532v-185h92c60 0 101 37 101 93c0 53 -41 92 -101 92h-92z" />
    <glyph glyph-name="Q" unicode="Q" horiz-adv-x="788" 
d="M761 336c0 -115 -48 -211 -131 -274l132 -94l-88 -111l-191 141c-33 -7 -62 -10 -89 -10c-162 0 -286 82 -339 207c-56 131 -22 307 75 391c32 31 71 55 116 72c91 35 205 35 296 0c134 -51 219 -168 219 -322zM394 131c53 0 97 19 130 57c33 39 50 88 50 148
s-17 109 -50 147c-33 39 -77 58 -130 58s-96 -19 -129 -58c-33 -38 -50 -87 -50 -147s17 -109 50 -148c33 -38 76 -57 129 -57z" />
    <glyph glyph-name="R" unicode="R" horiz-adv-x="669" 
d="M245 0h-176v672h304c71 0 130 -21 175 -62c46 -41 69 -94 69 -159c0 -97 -54 -174 -141 -199l172 -252h-198l-143 223h-62v-223zM245 532v-169h99c55 0 93 34 93 85c0 49 -38 84 -93 84h-99z" />
    <glyph glyph-name="S" unicode="S" horiz-adv-x="597" 
d="M31 44l41 136c86 -33 157 -49 212 -49c64 0 102 24 102 65c0 111 -351 30 -351 284c0 61 25 110 74 147c49 38 113 57 190 57s158 -16 243 -48l-41 -136c-69 27 -132 41 -188 41c-60 0 -98 -22 -98 -61c0 -108 351 -21 351 -284c0 -62 -25 -112 -75 -151
c-49 -38 -113 -57 -192 -57c-87 0 -176 19 -268 56z" />
    <glyph glyph-name="T" unicode="T" horiz-adv-x="607" 
d="M212 532h-195v140h572v-140h-194v-532h-183v532z" />
    <glyph glyph-name="U" unicode="U" horiz-adv-x="788" 
d="M61 270v402h183v-395c0 -87 62 -146 150 -146c89 0 150 59 150 146v395h183v-402c3 -166 -142 -285 -333 -282c-191 -3 -336 116 -333 282z" />
    <glyph glyph-name="V" unicode="V" horiz-adv-x="692" 
d="M262 0l-273 672h191l166 -452l167 452h190l-272 -672h-169z" />
    <glyph glyph-name="W" unicode="W" horiz-adv-x="1028" 
d="M214 0l-213 672h183l123 -452l123 452h169l122 -452l123 452h183l-212 -672h-178l-123 452l-122 -452h-178z" />
    <glyph glyph-name="X" unicode="X" horiz-adv-x="700" 
d="M196 0h-205l242 344l-230 328h201l146 -214l146 214h202l-231 -328l243 -344h-206l-154 230z" />
    <glyph glyph-name="Y" unicode="Y" horiz-adv-x="634" 
d="M225 260l-244 412h198l138 -250l138 250h198l-244 -412v-260h-184v260z" />
    <glyph glyph-name="Z" unicode="Z" horiz-adv-x="645" 
d="M614 0h-583v103l336 429h-324v140h559v-103l-336 -429h348v-140z" />
    <glyph glyph-name="bracketleft" unicode="[" horiz-adv-x="364" 
d="M345 -143h-275v862h275v-140h-114v-582h114v-140z" />
    <glyph glyph-name="backslash" unicode="\" horiz-adv-x="384" 
d="M271 -157l-297 846l139 44l297 -846z" />
    <glyph glyph-name="bracketright" unicode="]" horiz-adv-x="364" 
d="M19 -143v140h113v582h-113v140h275v-862h-275z" />
    <glyph glyph-name="asciicircum" unicode="^" 
d="M146 144l-139 51l208 477h146l208 -477l-139 -51l-142 330z" />
    <glyph glyph-name="underscore" unicode="_" horiz-adv-x="480" 
d="M0 -194v132h480v-132h-480z" />
    <glyph glyph-name="grave" unicode="`" horiz-adv-x="240" 
d="M167 518l-211 125l77 110l200 -140z" />
    <glyph glyph-name="a" unicode="a" horiz-adv-x="564" 
d="M27 149c0 105 85 167 230 167c26 0 54 -3 85 -8v4c0 39 -37 66 -86 66c-47 0 -101 -12 -160 -36l-44 121c79 29 154 44 226 44c68 0 122 -18 163 -55s62 -85 62 -144v-163c0 -15 10 -25 25 -25c6 0 14 1 23 2l11 -126c-28 -5 -56 -8 -83 -8c-49 0 -87 21 -110 57
c-45 -36 -105 -57 -160 -57c-53 0 -97 15 -131 45s-51 69 -51 116zM192 160c0 -29 27 -51 64 -51c49 0 86 35 86 83v18c-23 5 -44 7 -63 7c-52 0 -87 -22 -87 -57z" />
    <glyph glyph-name="b" unicode="b" horiz-adv-x="618" 
d="M192 0h-140v704h176v-244c38 31 82 47 133 47c67 0 122 -24 165 -73c43 -48 65 -110 65 -187c0 -76 -22 -138 -65 -187c-43 -48 -98 -72 -165 -72c-60 0 -109 19 -147 58zM225 273v-52c0 -55 36 -95 89 -95c57 0 98 50 98 121c0 72 -41 122 -98 122
c-53 0 -89 -40 -89 -96z" />
    <glyph glyph-name="c" unicode="c" horiz-adv-x="509" 
d="M27 247c0 76 26 138 77 187s117 73 198 73c71 0 139 -20 203 -60l-70 -117c-39 25 -75 37 -108 37c-71 0 -120 -49 -120 -120s49 -119 120 -119c33 0 69 12 108 37l70 -118c-65 -39 -132 -59 -203 -59c-81 0 -147 24 -198 73s-77 111 -77 186z" />
    <glyph glyph-name="d" unicode="d" horiz-adv-x="618" 
d="M27 247c0 77 21 139 64 187c43 49 99 73 166 73c51 0 95 -16 133 -47v244h176v-704h-140l-22 46c-38 -39 -87 -58 -147 -58c-67 0 -123 24 -166 72c-43 49 -64 111 -64 187zM207 247c0 -71 40 -121 97 -121c53 0 89 40 89 95v52c0 56 -36 96 -89 96
c-57 0 -97 -50 -97 -122z" />
    <glyph glyph-name="e" unicode="e" horiz-adv-x="564" 
d="M27 247c0 77 25 139 74 187c50 49 114 73 193 73c74 0 134 -23 181 -70s70 -107 70 -182c0 -18 -1 -36 -3 -53h-339c13 -52 64 -85 129 -85c40 0 86 13 137 40l52 -118c-73 -34 -144 -51 -211 -51c-83 0 -151 24 -204 72c-53 49 -79 111 -79 187zM203 305h173
c-5 44 -38 73 -82 73c-45 0 -82 -29 -91 -73z" />
    <glyph glyph-name="f" unicode="f" horiz-adv-x="396" 
d="M100 362h-83v133h83v46c0 53 17 95 51 127c35 32 80 48 135 48c41 0 82 -5 123 -16l-22 -130c-23 4 -42 6 -58 6c-32 0 -53 -20 -53 -53v-28h102v-133h-102v-362h-176v362z" />
    <glyph glyph-name="g" unicode="g" horiz-adv-x="618" 
d="M27 247c0 77 21 139 64 187c43 49 99 73 166 73c59 0 108 -19 147 -58l22 46h140v-469c0 -71 -27 -130 -82 -176c-54 -47 -123 -70 -206 -70c-73 0 -149 16 -226 47l48 129c59 -27 114 -40 163 -40c76 0 127 42 127 103v16c-38 -31 -82 -47 -133 -47
c-67 0 -123 24 -166 72c-43 49 -64 111 -64 187zM207 247c0 -71 40 -121 97 -121c53 0 89 40 89 95v52c0 56 -36 96 -89 96c-57 0 -97 -50 -97 -122z" />
    <glyph glyph-name="h" unicode="h" horiz-adv-x="618" 
d="M228 0h-176v704h176v-252c39 37 89 55 148 55s106 -18 143 -55c37 -36 55 -82 55 -139v-313h-176v284c0 45 -33 79 -78 79c-55 0 -92 -39 -92 -98v-265z" />
    <glyph glyph-name="i" unicode="i" horiz-adv-x="281" 
d="M40 625c0 59 43 101 100 101c60 0 101 -42 101 -101c0 -57 -41 -100 -101 -100c-57 0 -100 43 -100 100zM228 0h-176v495h176v-495z" />
    <glyph glyph-name="j" unicode="j" horiz-adv-x="289" 
d="M-73 -204l22 130c22 -4 41 -6 58 -6c33 0 53 20 53 53v522h176v-540c0 -53 -17 -95 -51 -127s-79 -48 -134 -48c-40 0 -81 5 -124 16zM48 625c0 59 41 101 100 101s101 -42 101 -101c0 -57 -42 -100 -101 -100s-100 43 -100 100z" />
    <glyph glyph-name="k" unicode="k" horiz-adv-x="553" 
d="M221 0h-169v704h169v-388l143 179h198l-203 -232l211 -263h-202l-122 160l-25 -27v-133z" />
    <glyph glyph-name="l" unicode="l" horiz-adv-x="329" 
d="M52 149v555h176v-537c0 -24 16 -39 40 -39c9 0 22 1 41 4l18 -132c-37 -8 -72 -12 -103 -12c-105 0 -172 62 -172 161z" />
    <glyph glyph-name="m" unicode="m" horiz-adv-x="932" 
d="M228 0h-176v495h140l22 -50c44 41 95 62 154 62c65 0 122 -27 153 -74c55 49 113 74 176 74c56 0 102 -18 137 -53s53 -79 53 -133v-321h-176v292c0 43 -29 71 -70 71c-49 0 -83 -37 -83 -90v-273h-176v292c0 41 -29 71 -70 71c-49 0 -84 -37 -84 -90v-273z" />
    <glyph glyph-name="n" unicode="n" horiz-adv-x="618" 
d="M228 0h-176v495h140l22 -54c41 44 95 66 162 66c59 0 106 -18 143 -55c37 -36 55 -82 55 -139v-313h-176v284c0 45 -33 79 -78 79c-55 0 -92 -39 -92 -98v-265z" />
    <glyph glyph-name="o" unicode="o" horiz-adv-x="618" 
d="M27 247c0 76 26 138 79 187s120 73 203 73s151 -24 203 -73c53 -48 79 -110 79 -187c0 -76 -26 -138 -79 -187c-52 -48 -120 -72 -203 -72s-150 24 -203 72c-53 49 -79 111 -79 187zM207 247c0 -72 42 -123 102 -123s103 51 103 123c0 73 -43 124 -103 124
s-102 -51 -102 -124z" />
    <glyph glyph-name="p" unicode="p" horiz-adv-x="618" 
d="M228 -208h-176v703h140l22 -46c38 39 87 58 147 58c67 0 122 -24 165 -73c43 -48 65 -110 65 -187c0 -76 -22 -138 -65 -187c-43 -48 -98 -72 -165 -72c-50 0 -94 16 -133 47v-243zM225 273v-52c0 -55 36 -95 89 -95c57 0 98 50 98 121c0 72 -41 122 -98 122
c-53 0 -89 -40 -89 -96z" />
    <glyph glyph-name="q" unicode="q" horiz-adv-x="618" 
d="M27 247c0 77 21 139 64 187c43 49 99 73 166 73c59 0 108 -19 147 -58l22 46h140v-703h-176v243c-38 -31 -82 -47 -133 -47c-67 0 -123 24 -166 72c-43 49 -64 111 -64 187zM207 247c0 -71 40 -121 97 -121c53 0 89 40 89 95v52c0 56 -36 96 -89 96
c-57 0 -97 -50 -97 -122z" />
    <glyph glyph-name="r" unicode="r" horiz-adv-x="418" 
d="M228 0h-176v495h140l22 -62c29 44 81 70 138 70c16 0 35 -2 57 -7l-15 -139c-21 4 -40 6 -57 6c-67 0 -109 -48 -109 -120v-243z" />
    <glyph glyph-name="s" unicode="s" horiz-adv-x="476" 
d="M27 28l37 125c57 -24 110 -36 159 -36c35 0 53 14 53 35c0 63 -245 4 -245 195c0 46 19 84 58 114c39 31 88 46 149 46s126 -12 195 -36l-37 -125c-55 21 -103 32 -144 32c-31 0 -49 -12 -49 -31c0 -58 246 -1 246 -195c0 -48 -20 -87 -59 -118s-90 -46 -152 -46
c-67 0 -137 13 -211 40z" />
    <glyph glyph-name="t" unicode="t" horiz-adv-x="428" 
d="M100 362h-83v133h83v144h176v-144h118v-133h-118v-181c0 -33 21 -53 53 -53c17 0 37 2 58 6l22 -130c-42 -11 -83 -16 -123 -16c-55 0 -100 16 -135 48c-34 32 -51 74 -51 127v199z" />
    <glyph glyph-name="u" unicode="u" horiz-adv-x="618" 
d="M44 182v313h176v-284c0 -47 32 -80 79 -80c53 0 91 41 91 98v266h176v-495h-140l-22 54c-41 -44 -95 -66 -162 -66c-58 0 -106 18 -143 54s-55 83 -55 140z" />
    <glyph glyph-name="v" unicode="v" horiz-adv-x="554" 
d="M196 0l-200 495h184l97 -297l97 297h184l-200 -495h-162z" />
    <glyph glyph-name="w" unicode="w" horiz-adv-x="810" 
d="M164 0l-160 495h176l72 -296l72 296h162l72 -296l72 296h176l-160 -495h-169l-72 296l-72 -296h-169z" />
    <glyph glyph-name="x" unicode="x" horiz-adv-x="554" 
d="M188 0h-198l173 253l-165 242h194l85 -133l85 133h194l-165 -242l173 -253h-198l-89 145z" />
    <glyph glyph-name="y" unicode="y" horiz-adv-x="554" 
d="M197 7l-201 488h184l97 -297l97 297h184l-211 -533c-47 -121 -121 -182 -223 -182c-26 0 -54 3 -85 10l22 136c17 -4 32 -6 45 -6c39 0 63 20 82 65z" />
    <glyph glyph-name="z" unicode="z" horiz-adv-x="508" 
d="M481 0h-454v96l218 266h-210v133h438v-96l-219 -267h227v-132z" />
    <glyph glyph-name="braceleft" unicode="{" horiz-adv-x="364" 
d="M20 218h-16v140h16c37 0 67 25 67 57c0 14 -1 34 -4 59s-4 45 -4 59c0 54 19 98 58 133s88 53 148 53h60v-140h-16c-49 0 -85 -35 -85 -82c0 -11 1 -28 2 -49c2 -21 3 -37 3 -48c0 -55 -28 -96 -80 -112c52 -16 80 -57 80 -112c0 -11 -1 -28 -3 -49c-1 -21 -2 -37 -2 -48
c0 -47 36 -82 85 -82h16v-140h-60c-60 0 -109 18 -148 53s-58 79 -58 133c0 14 1 34 4 59c3 26 4 46 4 59c0 33 -30 57 -67 57z" />
    <glyph glyph-name="bar" unicode="|" horiz-adv-x="240" 
d="M193 -224h-146v960h146v-960z" />
    <glyph glyph-name="braceright" unicode="}" horiz-adv-x="364" 
d="M19 -143v140h16c49 0 85 35 85 82c0 11 -1 27 -3 48c-1 21 -2 38 -2 49c0 55 28 96 79 112c-51 16 -79 57 -79 112c0 11 1 27 2 48c2 21 3 38 3 49c0 47 -36 82 -85 82h-16v140h60c60 0 109 -18 148 -53s58 -79 58 -133c0 -14 -2 -34 -5 -59s-4 -45 -4 -59
c0 -32 28 -57 67 -57h16v-140h-16c-39 0 -67 -24 -67 -57c0 -13 1 -33 4 -59c3 -25 5 -45 5 -59c0 -54 -19 -98 -58 -133s-88 -53 -148 -53h-60z" />
    <glyph glyph-name="asciitilde" unicode="~" 
d="M83 198l-77 125c55 41 112 62 171 62c41 0 88 -12 116 -24c29 -12 71 -24 106 -24c33 0 59 12 94 41l77 -125c-56 -41 -113 -62 -171 -62c-43 0 -89 12 -118 24c-28 12 -69 24 -104 24c-31 0 -62 -14 -94 -41z" />
    <glyph glyph-name="nbspace" unicode="&#xa0;" horiz-adv-x="240" 
 />
    <glyph glyph-name="exclamdown" unicode="&#xa1;" horiz-adv-x="298" 
d="M149 506c61 0 100 -41 100 -100s-41 -100 -100 -100s-100 42 -100 99c0 59 41 101 100 101zM237 -177h-176l15 436h146z" />
    <glyph glyph-name="cent" unicode="&#xa2;" 
d="M247 583v153h146v-146c51 -7 99 -25 145 -54l-70 -118c-41 25 -77 38 -107 38c-71 0 -121 -49 -121 -120s50 -120 121 -120c30 0 66 13 107 38l70 -118c-46 -29 -94 -47 -145 -55v-145h-146v153c-113 31 -187 126 -187 247s74 216 187 247z" />
    <glyph glyph-name="sterling" unicode="&#xa3;" 
d="M541 0h-490v136h83v142h-67v132h67v59c0 63 22 114 66 154c45 41 101 61 168 61c51 0 110 -12 179 -35l-44 -129c-35 14 -68 21 -99 21c-51 0 -87 -35 -87 -86v-45h157v-132h-157v-142h224v-136z" />
    <glyph glyph-name="currency" unicode="&#xa4;" 
d="M115 60l-103 103l76 77c-13 29 -19 61 -19 96s6 66 19 95l-76 78l103 103l77 -77c28 13 60 20 96 20c35 0 66 -7 95 -20l78 77l103 -103l-77 -78c13 -28 20 -60 20 -95s-7 -67 -20 -96l77 -77l-103 -103l-78 76c-29 -13 -61 -19 -95 -19c-35 0 -67 6 -96 19zM225 398
c-16 -16 -24 -37 -24 -62s8 -46 24 -62c17 -16 38 -24 63 -24s46 8 62 24c17 16 25 37 25 62s-8 46 -25 62c-16 17 -37 25 -62 25s-46 -8 -63 -25z" />
    <glyph glyph-name="yen" unicode="&#xa5;" 
d="M152 380l-176 292h191l121 -233l121 233h191l-176 -292h85v-117h-129v-41h129v-118h-129v-104h-184v104h-129v118h129v41h-129v117h85z" />
    <glyph glyph-name="brokenbar" unicode="&#xa6;" horiz-adv-x="240" 
d="M193 -176h-146v384h146v-384zM193 304h-146v384h146v-384z" />
    <glyph glyph-name="section" unicode="&#xa7;" horiz-adv-x="556" 
d="M31 -126l40 136c72 -26 133 -39 184 -39c48 0 74 18 74 47c0 75 -294 23 -294 239c0 51 20 93 61 124c-30 29 -45 68 -45 117c0 55 22 99 65 134c44 35 101 52 170 52c67 0 140 -15 219 -44l-40 -136c-60 25 -115 37 -165 37c-45 0 -70 -16 -70 -43
c0 -69 295 -16 295 -239c0 -50 -20 -92 -59 -125c29 -30 43 -69 43 -116c0 -57 -22 -103 -67 -138c-44 -35 -101 -52 -172 -52c-79 0 -158 15 -239 46zM214 266c0 -17 10 -30 31 -41c21 -9 37 -14 70 -22c19 9 30 28 30 47c0 15 -8 26 -19 34c-18 15 -44 21 -76 29
c-23 -9 -36 -27 -36 -47z" />
    <glyph glyph-name="dieresis" unicode="&#xa8;" horiz-adv-x="240" 
d="M-62 560c-17 17 -25 38 -25 65s8 48 25 65c16 17 37 25 64 25s48 -8 64 -25c17 -17 25 -38 25 -65s-8 -48 -25 -65c-16 -16 -37 -24 -64 -24s-48 8 -64 24zM173 560c-16 17 -24 38 -24 65s8 48 24 65c17 17 38 25 65 25s48 -8 64 -25c17 -17 25 -38 25 -65
s-8 -48 -25 -65c-16 -16 -37 -24 -64 -24s-48 8 -65 24z" />
    <glyph glyph-name="copyright" unicode="&#xa9;" horiz-adv-x="832" 
d="M95 145c-31 56 -47 119 -47 190c0 143 66 259 178 322c56 31 119 47 190 47c141 0 258 -66 321 -178c31 -56 47 -120 47 -191c0 -141 -66 -257 -178 -320c-56 -31 -119 -47 -190 -47c-141 0 -258 66 -321 177zM215 537c-52 -52 -78 -119 -78 -201s26 -149 78 -201
s119 -78 201 -78s149 26 201 78s78 119 78 201s-26 149 -78 201s-119 78 -201 78s-149 -26 -201 -78zM428 552c59 0 114 -16 165 -49l-54 -89c-90 66 -207 20 -202 -78c-5 -98 112 -144 202 -78l54 -89c-51 -33 -106 -49 -165 -49c-67 0 -121 20 -163 60
c-41 41 -62 93 -62 156s21 115 62 155c42 41 96 61 163 61z" />
    <glyph glyph-name="ordfeminine" unicode="&#xaa;" horiz-adv-x="401" 
d="M384 204h-367v89h367v-89zM24 451c0 65 60 107 157 107c16 0 33 -2 51 -5c0 25 -18 44 -54 44c-33 0 -69 -8 -108 -24l-29 85c56 19 106 29 150 29c97 0 157 -53 157 -138v-95c0 -8 6 -15 14 -15c5 0 10 0 13 1l9 -90c-23 -4 -42 -6 -58 -6c-35 0 -60 12 -75 37
c-28 -25 -63 -37 -104 -37c-71 0 -123 46 -123 107zM144 458c0 -16 17 -29 37 -29c29 0 51 18 51 45v13c-13 2 -26 3 -37 3c-32 0 -51 -12 -51 -32z" />
    <glyph glyph-name="guillemotleft" unicode="&#xab;" horiz-adv-x="625" 
d="M224 -7l-199 223v74l199 224l103 -81l-133 -180l133 -179zM503 -7l-199 223v74l199 224l103 -81l-133 -180l133 -179z" />
    <glyph glyph-name="logicalnot" unicode="&#xac;" 
d="M394 215h-359v146h506v-326h-147v180z" />
    <glyph glyph-name="uni00AD" unicode="&#xad;" horiz-adv-x="320" 
d="M306 187h-286v132h286v-132z" />
    <glyph glyph-name="registered" unicode="&#xae;" horiz-adv-x="832" 
d="M95 145c-31 56 -47 119 -47 190c0 143 66 259 178 322c56 31 119 47 190 47c141 0 258 -66 321 -178c31 -56 47 -120 47 -191c0 -141 -66 -257 -178 -320c-56 -31 -119 -47 -190 -47c-141 0 -258 66 -321 177zM215 537c-52 -52 -78 -119 -78 -201s26 -149 78 -201
s119 -78 201 -78s149 26 201 78s78 119 78 201s-26 149 -78 201s-119 78 -201 78s-149 -26 -201 -78zM367 128h-122v416h197c91 0 155 -57 155 -140c0 -59 -32 -106 -80 -123l94 -153h-137l-73 133h-34v-133zM367 446v-91h58c29 0 48 17 48 46c0 27 -19 45 -48 45h-58z" />
    <glyph glyph-name="overscore" unicode="&#xaf;" horiz-adv-x="240" 
d="M285 567h-330v117h330v-117z" />
    <glyph glyph-name="degree" unicode="&#xb0;" horiz-adv-x="349" 
d="M31 540c0 84 60 144 144 144c41 0 76 -14 103 -41s41 -61 41 -103s-14 -77 -41 -104s-62 -40 -103 -40c-84 0 -144 60 -144 144zM123 540c-6 -68 109 -68 103 0c0 31 -22 51 -51 51c-31 0 -52 -20 -52 -51z" />
    <glyph glyph-name="plusminus" unicode="&#xb1;" 
d="M541 0h-506v147h506v-147zM215 364h-180v147h180v180h146v-180h180v-147h-180v-179h-146v179z" />
    <glyph glyph-name="twosuperior" unicode="&#xb2;" horiz-adv-x="347" 
d="M55 670l-47 93c53 30 105 45 155 45c87 0 146 -56 146 -133c0 -45 -20 -87 -59 -125l-66 -66h130v-100h-295v79l125 126c27 27 40 49 40 66c0 28 -18 46 -47 46c-21 0 -49 -10 -82 -31z" />
    <glyph glyph-name="threesuperior" unicode="&#xb3;" horiz-adv-x="347" 
d="M3 412l39 88c38 -17 71 -26 100 -26c28 0 48 15 48 38c0 25 -23 43 -56 43h-40v84h40c29 0 49 16 49 37c0 20 -14 34 -38 34c-27 0 -58 -8 -93 -24l-39 89c54 22 106 33 156 33c83 0 141 -49 141 -118c0 -41 -18 -74 -51 -90c36 -16 61 -56 61 -101
c0 -72 -63 -123 -151 -123c-57 0 -113 12 -166 36z" />
    <glyph glyph-name="acute" unicode="&#xb4;" horiz-adv-x="240" 
d="M88 518l-66 95l200 140l76 -110z" />
    <glyph glyph-name="uni00B5" unicode="&#xb5;" horiz-adv-x="642" 
d="M228 -208h-176v703h176v-284c0 -47 32 -80 79 -80c53 0 91 41 91 98v266h176v-342c0 -15 10 -25 25 -25c5 0 12 1 21 2l13 -134c-29 -5 -57 -8 -83 -8c-56 0 -99 25 -122 68c-36 -43 -84 -64 -127 -64c-29 0 -53 4 -73 12v-212z" />
    <glyph glyph-name="paragraph" unicode="&#xb6;" horiz-adv-x="618" 
d="M20 444c0 67 23 121 70 164s107 64 181 64h278v-832h-147v685h-97v-310h-34c-74 0 -134 21 -181 64s-70 98 -70 165z" />
    <glyph glyph-name="middot" unicode="&#xb7;" horiz-adv-x="282" 
d="M37 253c0 60 44 104 104 104c61 0 104 -44 104 -104s-44 -104 -104 -104s-104 44 -104 104z" />
    <glyph glyph-name="cedilla" unicode="&#xb8;" horiz-adv-x="240" 
d="M-12 -218l28 96c27 -9 48 -13 63 -13c19 0 32 9 32 24c0 13 -18 23 -43 23h-15l16 88h118l-6 -32c43 -13 70 -50 70 -97c0 -65 -62 -109 -154 -109c-38 0 -74 7 -109 20z" />
    <glyph glyph-name="onesuperior" unicode="&#xb9;" horiz-adv-x="289" 
d="M36 637l-44 83l141 80h104v-416h-126v294z" />
    <glyph glyph-name="ordmasculine" unicode="&#xba;" horiz-adv-x="432" 
d="M24 516c0 50 18 91 54 123s82 48 138 48s102 -16 138 -48s54 -73 54 -123c0 -51 -18 -92 -54 -124s-82 -48 -138 -48s-102 16 -138 48s-54 73 -54 124zM399 204h-366v89h366v-89zM157 516c0 -43 23 -72 58 -72c36 0 61 29 61 72s-25 72 -61 72c-35 0 -58 -29 -58 -72z
" />
    <glyph glyph-name="guillemotright" unicode="&#xbb;" horiz-adv-x="625" 
d="M122 -7l-103 81l134 179l-134 180l103 81l199 -224v-74zM401 -7l-103 81l134 179l-134 180l103 81l199 -224v-74z" />
    <glyph glyph-name="onequarter" unicode="&#xbc;" horiz-adv-x="960" 
d="M83 509l-44 83l141 80h104v-416h-126v294zM272 -33l-88 66l504 672l88 -66zM785 77h-188v88l179 251h121v-249h42v-90h-42v-77h-112v77zM785 282l-81 -115h81v115z" />
    <glyph glyph-name="onehalf" unicode="&#xbd;" horiz-adv-x="960" 
d="M83 509l-44 83l141 80h104v-416h-126v294zM272 -33l-88 66l504 672l88 -66zM649 286l-47 93c53 30 105 45 155 45c87 0 146 -56 146 -133c0 -45 -20 -87 -59 -125l-66 -66h130v-100h-295v79l125 126c27 27 40 49 40 66c0 28 -19 46 -47 46c-22 0 -49 -10 -82 -31z" />
    <glyph glyph-name="threequarters" unicode="&#xbe;" horiz-adv-x="960" 
d="M21 284l39 88c38 -17 71 -26 100 -26c28 0 48 15 48 38c0 24 -23 43 -56 43h-40v84h40c29 0 49 16 49 37c0 20 -14 34 -38 34c-27 0 -58 -8 -93 -24l-39 89c53 22 105 33 156 33c83 0 141 -49 141 -118c0 -41 -18 -74 -51 -90c36 -16 61 -56 61 -101
c0 -72 -63 -123 -151 -123c-57 0 -113 12 -166 36zM272 -33l-88 66l504 672l88 -66zM785 77h-188v88l179 251h121v-249h42v-90h-42v-77h-112v77zM785 282l-81 -115h81v115z" />
    <glyph glyph-name="questiondown" unicode="&#xbf;" horiz-adv-x="413" 
d="M26 -3c0 144 130 185 145 254l2 8h147v-23c0 -113 -118 -144 -118 -213c0 -40 30 -66 73 -66c11 0 22 2 35 7c27 8 40 15 75 35l66 -125c-64 -42 -132 -63 -205 -63c-65 0 -118 18 -159 53s-61 79 -61 133zM247 506c59 0 100 -42 100 -101c0 -57 -41 -99 -100 -99
s-101 42 -101 99c0 59 42 101 101 101z" />
    <glyph glyph-name="multiply" unicode="&#xd7;" 
d="M138 35l-103 103l149 150l-149 150l103 103l150 -149l150 149l103 -103l-149 -150l149 -150l-103 -103l-150 149z" />
    <glyph glyph-name="germandbls" unicode="&#xdf;" horiz-adv-x="650" 
d="M221 0h-169v514c0 60 23 109 69 146s106 56 180 56c67 0 123 -17 167 -52s66 -79 66 -132c0 -88 -67 -120 -67 -165c0 -69 164 -56 164 -215c0 -49 -19 -89 -57 -119c-37 -30 -86 -45 -146 -45c-57 0 -114 12 -171 36l44 125c42 -19 80 -29 113 -29c31 0 49 12 49 32
c0 56 -172 50 -172 201c0 81 67 112 67 172c0 35 -25 59 -64 59c-43 0 -73 -32 -73 -77v-507z" />
    <glyph glyph-name="divide" unicode="&#xf7;" 
d="M541 222h-506v132h506v-132zM199 96c0 52 37 89 89 89s89 -37 89 -89s-37 -89 -89 -89c-51 0 -89 37 -89 89zM288 569c53 0 89 -34 89 -89c0 -26 -8 -47 -25 -64c-33 -33 -95 -33 -128 0c-17 17 -25 38 -25 64c0 52 37 89 89 89z" />
    <glyph glyph-name="florin" unicode="&#x192;" 
d="M76 2l22 136c19 -5 36 -7 50 -7c25 0 44 17 44 44v138h-76v132h76v66c0 51 17 92 51 124c35 33 79 49 133 49c39 0 77 -5 116 -14l-23 -136c-16 5 -31 7 -46 7c-28 0 -48 -17 -48 -44v-52h86v-132h-86v-152c0 -51 -17 -92 -52 -125c-34 -32 -78 -48 -131 -48
c-39 0 -78 5 -116 14z" />
    <glyph glyph-name="circumflex" unicode="&#x2c6;" horiz-adv-x="240" 
d="M15 518l-74 81l127 120h104l127 -120l-74 -81l-105 83z" />
    <glyph glyph-name="caron" unicode="&#x2c7;" horiz-adv-x="240" 
d="M68 532l-127 120l74 81l105 -83l105 83l74 -81l-127 -120h-104z" />
    <glyph glyph-name="breve" unicode="&#x2d8;" horiz-adv-x="240" 
d="M-59 703h111c-4 -80 140 -80 136 0h111c-4 -111 -76 -179 -179 -179s-175 68 -179 179z" />
    <glyph glyph-name="dotaccent" unicode="&#x2d9;" horiz-adv-x="240" 
d="M23 625c0 57 40 97 97 97s97 -40 97 -97c0 -56 -40 -96 -97 -96s-97 40 -97 96z" />
    <glyph glyph-name="ring" unicode="&#x2da;" horiz-adv-x="240" 
d="M3 625c0 65 48 110 117 110s117 -45 117 -110c0 -64 -48 -109 -117 -109s-117 45 -117 109zM84 625c0 -46 72 -46 72 0c0 23 -15 36 -36 36s-36 -15 -36 -36z" />
    <glyph glyph-name="ogonek" unicode="&#x2db;" horiz-adv-x="240" 
d="M8 -133c0 52 38 106 105 149l95 -16c-47 -37 -71 -71 -71 -100c0 -21 17 -35 38 -35c5 0 15 1 30 4l18 -93c-27 -9 -58 -14 -92 -14c-75 0 -123 41 -123 105z" />
    <glyph glyph-name="tilde" unicode="&#x2dc;" horiz-adv-x="240" 
d="M37 550l-103 30c9 73 58 121 122 121c48 0 94 -33 113 -33c15 0 27 11 34 33l103 -30c-9 -73 -58 -121 -122 -121c-49 0 -95 33 -113 33c-17 0 -29 -11 -34 -33z" />
    <glyph glyph-name="hungarumlaut" unicode="&#x2dd;" horiz-adv-x="240" 
d="M-12 517l-88 88l161 172l99 -99zM235 517l-88 88l161 172l99 -99z" />
    <glyph glyph-name="commaaccent" unicode="&#x326;" horiz-adv-x="240" 
d="M31 -118c0 53 36 89 89 89s90 -42 90 -99c0 -77 -44 -148 -123 -193l-45 59c27 23 46 46 57 69c-40 1 -68 35 -68 75z" />
    <glyph glyph-name="uni0400" unicode="&#x400;" horiz-adv-x="607" 
d="M572 0h-503v672h487v-136h-304v-126h272v-132h-272v-142h320v-136zM358 695l-211 125l77 110l200 -140z" />
    <glyph glyph-name="afii10023" unicode="&#x401;" horiz-adv-x="607" 
d="M572 0h-503v672h487v-136h-304v-126h272v-132h-272v-142h320v-136zM193 892c53 0 89 -37 89 -90s-36 -89 -89 -89s-89 36 -89 89s36 90 89 90zM429 892c53 0 89 -37 89 -90s-36 -89 -89 -89s-89 36 -89 89s36 90 89 90z" />
    <glyph glyph-name="afii10051" unicode="&#x402;" horiz-adv-x="847" 
d="M196 532h-179v140h572v-140h-210v-131c70 12 137 18 201 18c73 0 133 -20 178 -60c46 -39 69 -91 69 -154s-23 -115 -70 -156c-46 -41 -105 -61 -176 -61c-49 0 -99 7 -150 20l35 139c37 -8 68 -12 93 -12c48 0 81 26 81 66c0 45 -37 75 -97 75c-49 0 -104 -5 -164 -14
v-262h-183v532z" />
    <glyph glyph-name="afii10052" unicode="&#x403;" horiz-adv-x="543" 
d="M252 0h-183v672h456v-140h-273v-532zM271 695l-66 95l200 140l76 -110z" />
    <glyph glyph-name="afii10053" unicode="&#x404;" horiz-adv-x="663" 
d="M28 336c-3 201 152 351 359 348c91 0 176 -25 255 -75l-73 -118c-53 35 -106 53 -157 53c-97 0 -171 -51 -194 -134h306v-132h-310c19 -92 94 -150 198 -150c51 0 103 18 157 53l73 -118c-79 -50 -164 -75 -255 -75c-207 -3 -362 147 -359 348z" />
    <glyph glyph-name="afii10054" unicode="&#x405;" horiz-adv-x="597" 
d="M31 44l41 136c86 -33 157 -49 212 -49c64 0 102 24 102 65c0 111 -351 30 -351 284c0 61 25 110 74 147c49 38 113 57 190 57s158 -16 243 -48l-41 -136c-69 27 -132 41 -188 41c-60 0 -98 -22 -98 -61c0 -108 351 -21 351 -284c0 -62 -25 -112 -75 -151
c-49 -38 -113 -57 -192 -57c-87 0 -176 19 -268 56z" />
    <glyph glyph-name="afii10055" unicode="&#x406;" horiz-adv-x="321" 
d="M252 0h-183v672h183v-672z" />
    <glyph glyph-name="afii10056" unicode="&#x407;" horiz-adv-x="321" 
d="M-21 737c-17 17 -25 38 -25 65s8 48 25 65c16 17 37 25 64 25s48 -8 64 -25c17 -17 25 -38 25 -65s-8 -48 -25 -65c-16 -16 -37 -24 -64 -24s-48 8 -64 24zM252 0h-183v672h183v-672zM279 892c53 0 89 -37 89 -90s-36 -89 -89 -89s-89 36 -89 89s36 90 89 90z" />
    <glyph glyph-name="afii10057" unicode="&#x408;" horiz-adv-x="461" 
d="M10 8l22 139c37 -8 66 -12 87 -12c52 0 90 37 90 90v447h183v-465c0 -65 -21 -118 -64 -159c-42 -40 -97 -60 -165 -60c-50 0 -101 7 -153 20z" />
    <glyph glyph-name="afii10058" unicode="&#x409;" horiz-adv-x="1135" 
d="M1 -4l15 143c27 -3 44 -4 49 -4c55 0 88 43 88 114v423h574v-238h152c69 0 125 -20 169 -61c45 -40 67 -92 67 -156s-22 -116 -67 -157c-44 -40 -100 -60 -169 -60h-320v532h-230v-298c0 -75 -21 -134 -64 -179s-100 -67 -171 -67c-29 0 -60 3 -93 8zM727 295v-155h130
c51 0 86 32 86 77c0 44 -35 78 -86 78h-130z" />
    <glyph glyph-name="afii10059" unicode="&#x40a;" horiz-adv-x="1111" 
d="M245 0h-176v672h176v-254h290v254h168v-254h152c69 0 126 -19 170 -58s66 -89 66 -151s-22 -112 -66 -151s-101 -58 -170 -58h-320v282h-290v-282zM703 286v-154h130c52 0 86 30 86 77c0 44 -35 77 -86 77h-130z" />
    <glyph glyph-name="afii10060" unicode="&#x40b;" horiz-adv-x="847" 
d="M196 532h-179v140h572v-140h-210v-131c61 12 121 18 178 18c73 0 132 -21 178 -64s69 -98 69 -166v-189h-184v175c0 60 -44 101 -107 101c-40 0 -85 -5 -134 -14v-262h-183v532z" />
    <glyph glyph-name="afii10061" unicode="&#x40c;" horiz-adv-x="698" 
d="M245 0h-176v672h176v-258h51l190 258h202l-242 -319l262 -353h-206l-199 274h-58v-274zM325 695l-66 95l200 140l76 -110z" />
    <glyph glyph-name="uni040D" unicode="&#x40d;" horiz-adv-x="788" 
d="M245 0h-176v672h169v-423l305 423h176v-672h-168v423zM441 695l-211 125l77 110l200 -140z" />
    <glyph glyph-name="afii10062" unicode="&#x40e;" horiz-adv-x="653" 
d="M245 194l-240 478h191l139 -324l138 324h191l-250 -532c-48 -101 -124 -152 -228 -152c-33 0 -71 5 -113 16l26 139c29 -5 50 -8 65 -8c35 0 61 16 76 49zM156 880h111c3 -37 29 -61 68 -61s65 24 68 61h111c-4 -111 -76 -179 -179 -179s-175 68 -179 179z" />
    <glyph glyph-name="afii10145" unicode="&#x40f;" horiz-adv-x="788" 
d="M310 0h-241v672h183v-532h284v532h183v-672h-240v-176h-169v176z" />
    <glyph glyph-name="afii10017" unicode="&#x410;" horiz-adv-x="692" 
d="M173 0h-184l273 672h169l272 -672h-183l-50 136h-247zM346 473l-76 -205h152z" />
    <glyph glyph-name="afii10018" unicode="&#x411;" horiz-adv-x="660" 
d="M401 0h-332v672h502v-132h-326v-128h156c67 0 123 -19 166 -58c44 -38 66 -87 66 -148s-22 -110 -66 -149c-43 -38 -99 -57 -166 -57zM245 279v-147h127c49 0 82 29 82 74c0 44 -33 73 -82 73h-127z" />
    <glyph glyph-name="afii10019" unicode="&#x412;" horiz-adv-x="669" 
d="M398 0h-329v672h313c67 0 121 -17 163 -51c43 -34 64 -78 64 -132c0 -63 -34 -111 -83 -138c67 -27 107 -87 107 -160c0 -56 -22 -102 -66 -138c-44 -35 -100 -53 -169 -53zM245 285v-153h124c51 0 85 30 85 77c0 45 -34 76 -85 76h-124zM245 540v-137h112
c45 0 76 27 76 68s-31 69 -76 69h-112z" />
    <glyph glyph-name="afii10020" unicode="&#x413;" horiz-adv-x="543" 
d="M252 0h-183v672h456v-140h-273v-532z" />
    <glyph glyph-name="afii10021" unicode="&#x414;" horiz-adv-x="796" 
d="M11 -176v316h48c49 81 73 174 73 280v252h549v-532h96v-316h-169v176h-428v-176h-169zM253 140h252v392h-197v-126c0 -103 -18 -191 -55 -266z" />
    <glyph glyph-name="afii10022" unicode="&#x415;" horiz-adv-x="607" 
d="M572 0h-503v672h487v-136h-304v-126h272v-132h-272v-142h320v-136z" />
    <glyph glyph-name="afii10024" unicode="&#x416;" horiz-adv-x="1040" 
d="M189 0h-198l244 351l-225 321h191l178 -258h53v258h176v-258h53l178 258h191l-225 -321l244 -351h-198l-185 274h-58v-274h-176v274h-58z" />
    <glyph glyph-name="afii10025" unicode="&#x417;" horiz-adv-x="557" 
d="M3 43l51 133c69 -30 134 -45 194 -45c63 0 102 29 102 73c0 48 -43 77 -119 77h-70v126h70c68 0 106 26 106 69c0 40 -30 65 -85 65c-49 0 -110 -14 -182 -41l-51 133c91 34 177 51 258 51c70 0 127 -17 170 -52c44 -35 66 -80 66 -135c0 -68 -40 -126 -100 -149
c68 -24 116 -89 116 -165c0 -58 -24 -105 -71 -141s-107 -54 -181 -54c-93 0 -185 18 -274 55z" />
    <glyph glyph-name="afii10026" unicode="&#x418;" horiz-adv-x="788" 
d="M245 0h-176v672h169v-423l305 423h176v-672h-168v423z" />
    <glyph glyph-name="afii10027" unicode="&#x419;" horiz-adv-x="788" 
d="M245 0h-176v672h169v-423l305 423h176v-672h-168v423zM215 880h111c3 -37 29 -61 68 -61s65 24 68 61h111c-4 -111 -76 -179 -179 -179s-175 68 -179 179z" />
    <glyph glyph-name="afii10028" unicode="&#x41a;" horiz-adv-x="698" 
d="M245 0h-176v672h176v-258h51l190 258h202l-242 -319l262 -353h-206l-199 274h-58v-274z" />
    <glyph glyph-name="afii10029" unicode="&#x41b;" horiz-adv-x="812" 
d="M1 -4l15 143c27 -3 44 -4 49 -4c55 0 88 43 88 114v423h590v-672h-176v532h-238v-298c0 -75 -21 -134 -64 -179s-100 -67 -171 -67c-29 0 -60 3 -93 8z" />
    <glyph glyph-name="afii10030" unicode="&#x41c;" horiz-adv-x="876" 
d="M238 0h-169v672h176l193 -267l193 267h176v-672h-168v423l-151 -209h-100l-150 209v-423z" />
    <glyph glyph-name="afii10031" unicode="&#x41d;" horiz-adv-x="788" 
d="M252 0h-183v672h183v-258h284v258h183v-672h-183v274h-284v-274z" />
    <glyph glyph-name="afii10032" unicode="&#x41e;" horiz-adv-x="788" 
d="M55 195c-36 87 -36 196 0 281c36 87 100 147 191 182s205 35 296 0s156 -95 192 -182c36 -85 36 -194 0 -281c-36 -85 -101 -146 -192 -181s-205 -35 -296 0s-155 96 -191 181zM394 131c53 0 97 19 130 57c33 39 50 88 50 148s-17 109 -50 147c-33 39 -77 58 -130 58
s-96 -19 -129 -58c-33 -38 -50 -87 -50 -147s17 -109 50 -148c33 -38 76 -57 129 -57z" />
    <glyph glyph-name="afii10033" unicode="&#x41f;" horiz-adv-x="788" 
d="M252 0h-183v672h650v-672h-183v532h-284v-532z" />
    <glyph glyph-name="afii10034" unicode="&#x420;" horiz-adv-x="637" 
d="M245 0h-176v672h297c74 0 134 -22 181 -65s70 -99 70 -167s-23 -124 -70 -168c-47 -43 -107 -65 -181 -65h-121v-207zM245 532v-185h92c60 0 101 37 101 93c0 53 -41 92 -101 92h-92z" />
    <glyph glyph-name="afii10035" unicode="&#x421;" horiz-adv-x="655" 
d="M28 336c-3 201 152 351 359 348c88 0 173 -26 255 -79l-73 -121c-54 37 -106 55 -157 55c-59 0 -106 -19 -143 -57c-36 -37 -54 -86 -54 -146s18 -109 54 -147c37 -37 84 -56 143 -56c51 0 103 18 157 55l73 -121c-82 -53 -167 -79 -255 -79c-207 -3 -362 147 -359 348z
" />
    <glyph glyph-name="afii10036" unicode="&#x422;" horiz-adv-x="607" 
d="M212 532h-195v140h572v-140h-194v-532h-183v532z" />
    <glyph glyph-name="afii10037" unicode="&#x423;" horiz-adv-x="653" 
d="M245 194l-240 478h191l139 -324l138 324h191l-250 -532c-48 -101 -124 -152 -228 -152c-33 0 -71 5 -113 16l26 139c29 -5 50 -8 65 -8c35 0 61 16 76 49z" />
    <glyph glyph-name="afii10038" unicode="&#x424;" horiz-adv-x="810" 
d="M20 344c0 163 125 279 301 293v67h168v-67c89 -7 161 -38 217 -92c57 -53 85 -120 85 -201s-28 -148 -85 -202c-56 -53 -128 -84 -217 -91v-83h-168v83c-89 7 -162 38 -218 91c-55 53 -83 121 -83 202zM321 191v306c-79 -15 -129 -74 -129 -153s50 -138 129 -153z
M489 497v-306c77 15 129 74 129 153s-52 138 -129 153z" />
    <glyph glyph-name="afii10039" unicode="&#x425;" horiz-adv-x="700" 
d="M196 0h-205l242 344l-230 328h201l146 -214l146 214h202l-231 -328l243 -344h-206l-154 230z" />
    <glyph glyph-name="afii10040" unicode="&#x426;" horiz-adv-x="835" 
d="M647 0h-578v672h183v-532h284v532h183v-532h96v-316h-168v176z" />
    <glyph glyph-name="afii10041" unicode="&#x427;" horiz-adv-x="724" 
d="M43 475v197h183v-183c0 -65 43 -109 107 -109c41 0 87 5 138 14v278h184v-672h-184v255c-69 -12 -129 -18 -182 -18c-72 0 -131 22 -177 67s-69 102 -69 171z" />
    <glyph glyph-name="afii10042" unicode="&#x428;" horiz-adv-x="1103" 
d="M1033 0h-964v672h183v-532h208v532h183v-532h207v532h183v-672z" />
    <glyph glyph-name="afii10043" unicode="&#x429;" horiz-adv-x="1149" 
d="M953 0h-884v672h183v-532h208v532h183v-532h207v532h183v-532h96v-316h-176v176z" />
    <glyph glyph-name="afii10044" unicode="&#x42a;" horiz-adv-x="781" 
d="M197 532h-180v140h356v-238h152c69 0 126 -20 170 -61c44 -40 66 -92 66 -156s-22 -116 -66 -157c-44 -40 -101 -60 -170 -60h-328v532zM373 295v-155h123c52 0 86 30 86 77c0 45 -34 78 -86 78h-123z" />
    <glyph glyph-name="afii10045" unicode="&#x42b;" horiz-adv-x="975" 
d="M397 0h-328v672h176v-238h152c69 0 125 -20 169 -61c45 -40 67 -92 67 -156s-22 -116 -66 -157c-44 -40 -101 -60 -170 -60zM245 295v-155h123c52 0 86 30 86 77c0 45 -34 78 -86 78h-123zM905 0h-183v672h183v-672z" />
    <glyph glyph-name="afii10046" unicode="&#x42c;" horiz-adv-x="653" 
d="M397 0h-328v672h176v-238h152c69 0 125 -20 169 -61c45 -40 67 -92 67 -156s-22 -116 -66 -157c-44 -40 -101 -60 -170 -60zM245 295v-155h123c52 0 86 30 86 77c0 45 -34 78 -86 78h-123z" />
    <glyph glyph-name="afii10047" unicode="&#x42d;" horiz-adv-x="663" 
d="M20 63l74 118c54 -35 106 -53 156 -53c104 0 180 58 199 150h-311v132h306c-23 83 -97 134 -194 134c-51 0 -103 -18 -156 -53l-74 118c80 50 165 75 256 75c211 0 359 -144 359 -348c0 -203 -148 -348 -359 -348c-91 0 -176 25 -256 75z" />
    <glyph glyph-name="afii10048" unicode="&#x42e;" horiz-adv-x="1102" 
d="M252 0h-183v672h183v-255h106c17 80 57 144 121 193c65 49 142 74 233 74c208 3 366 -147 362 -348c4 -202 -154 -351 -362 -348c-188 0 -331 113 -357 283h-103v-271zM712 131c52 0 95 19 128 57c34 39 51 88 51 148s-17 109 -51 147c-33 39 -76 58 -128 58
c-53 0 -96 -19 -130 -58c-33 -38 -50 -87 -50 -147s17 -109 50 -148c34 -38 77 -57 130 -57z" />
    <glyph glyph-name="afii10049" unicode="&#x42f;" horiz-adv-x="669" 
d="M219 0h-198l172 252c-87 25 -141 102 -141 199c0 65 23 118 68 159c46 41 105 62 176 62h304v-672h-176v223h-62zM232 448c0 -51 38 -85 93 -85h99v169h-99c-55 0 -93 -35 -93 -84z" />
    <glyph glyph-name="afii10065" unicode="&#x430;" horiz-adv-x="572" 
d="M27 149c0 105 85 167 230 167c26 0 54 -3 85 -8v4c0 39 -37 66 -86 66c-47 0 -101 -12 -160 -36l-44 121c79 29 154 44 226 44c68 0 122 -18 163 -55s62 -85 62 -144v-163c0 -15 10 -25 25 -25c6 0 14 1 23 2l11 -126c-28 -5 -56 -8 -83 -8c-49 0 -87 21 -110 57
c-45 -36 -105 -57 -160 -57c-53 0 -97 15 -131 45s-51 69 -51 116zM192 160c0 -29 27 -51 64 -51c49 0 86 35 86 83v18c-23 5 -44 7 -63 7c-52 0 -87 -22 -87 -57z" />
    <glyph glyph-name="afii10066" unicode="&#x431;" horiz-adv-x="618" 
d="M35 316c0 208 104 344 297 384l159 34l30 -132l-160 -34c-80 -17 -129 -53 -146 -106c43 30 92 45 146 45c65 0 119 -23 163 -70c45 -47 67 -105 67 -174c0 -81 -25 -148 -75 -199s-114 -76 -192 -76c-87 0 -157 30 -210 89c-53 60 -79 140 -79 239zM211 252
c0 -35 10 -64 31 -88s46 -36 75 -36c61 0 106 51 106 124c0 68 -45 115 -106 115s-106 -47 -106 -115z" />
    <glyph glyph-name="afii10067" unicode="&#x432;" horiz-adv-x="524" 
d="M310 0h-258v495h246c53 0 97 -13 131 -38c35 -25 52 -58 52 -101c0 -41 -18 -73 -55 -96c43 -23 71 -67 71 -118c0 -41 -18 -75 -53 -102s-80 -40 -134 -40zM214 203v-85h70c62 -5 64 92 0 85h-70zM214 377v-78h62c24 0 43 16 43 39s-19 39 -43 39h-62z" />
    <glyph glyph-name="afii10068" unicode="&#x433;" horiz-adv-x="446" 
d="M228 0h-176v495h368v-133h-192v-362z" />
    <glyph glyph-name="afii10069" unicode="&#x434;" horiz-adv-x="618" 
d="M11 -160v292h32c33 48 49 109 49 184v179h443v-363h64v-292h-161v160h-266v-160h-161zM216 132h165v230h-135v-61c0 -67 -10 -123 -30 -169z" />
    <glyph glyph-name="afii10070" unicode="&#x435;" horiz-adv-x="564" 
d="M27 247c0 77 25 139 74 187c50 49 114 73 193 73c74 0 134 -23 181 -70s70 -107 70 -182c0 -18 -1 -36 -3 -53h-339c13 -52 64 -85 129 -85c40 0 86 13 137 40l52 -118c-73 -34 -144 -51 -211 -51c-83 0 -151 24 -204 72c-53 49 -79 111 -79 187zM203 305h173
c-5 44 -38 73 -82 73c-45 0 -82 -29 -91 -73z" />
    <glyph glyph-name="afii10072" unicode="&#x436;" horiz-adv-x="807" 
d="M174 0h-180l162 259l-147 236h177l108 -176h29v176h161v-176h30l107 176h177l-147 -236l162 -259h-180l-116 187h-33v-187h-161v187h-33z" />
    <glyph glyph-name="afii10073" unicode="&#x437;" horiz-adv-x="460" 
d="M10 35l48 122c55 -25 104 -37 145 -37c35 0 57 15 57 38c0 27 -28 44 -69 44h-54v103h54c37 0 61 13 61 36c0 17 -17 33 -45 33c-39 0 -84 -11 -137 -32l-48 121c74 29 143 44 207 44c57 0 103 -14 138 -41c36 -27 54 -61 54 -102c0 -47 -26 -90 -65 -107
c45 -20 77 -66 77 -119c0 -43 -19 -79 -58 -108c-38 -28 -87 -42 -146 -42c-64 0 -137 16 -219 47z" />
    <glyph glyph-name="afii10074" unicode="&#x438;" horiz-adv-x="618" 
d="M218 0h-166v495h162v-260l187 260h165v-495h-162v260z" />
    <glyph glyph-name="afii10075" unicode="&#x439;" horiz-adv-x="618" 
d="M218 0h-166v495h162v-260l187 260h165v-495h-162v260zM130 703h111c3 -37 29 -61 68 -61s65 24 68 61h111c-4 -111 -76 -179 -179 -179s-175 68 -179 179z" />
    <glyph glyph-name="afii10076" unicode="&#x43a;" horiz-adv-x="553" 
d="M221 0h-169v495h169v-176h22l121 176h184l-164 -236l179 -259h-191l-125 187h-26v-187z" />
    <glyph glyph-name="afii10077" unicode="&#x43b;" horiz-adv-x="634" 
d="M9 -6l15 137c13 -2 24 -3 33 -3c33 0 52 24 52 65v302h473v-495h-169v362h-135v-183c0 -57 -18 -103 -54 -138c-35 -35 -81 -53 -138 -53c-28 0 -54 2 -77 6z" />
    <glyph glyph-name="afii10078" unicode="&#x43c;" horiz-adv-x="682" 
d="M214 0h-162v495h166l123 -172l124 172h165v-495h-162v261l-83 -116h-88l-83 115v-260z" />
    <glyph glyph-name="afii10079" unicode="&#x43d;" horiz-adv-x="618" 
d="M228 0h-176v495h176v-179h162v179h176v-495h-176v183h-162v-183z" />
    <glyph glyph-name="afii10080" unicode="&#x43e;" horiz-adv-x="618" 
d="M27 247c0 76 26 138 79 187s120 73 203 73s151 -24 203 -73c53 -48 79 -110 79 -187c0 -76 -26 -138 -79 -187c-52 -48 -120 -72 -203 -72s-150 24 -203 72c-53 49 -79 111 -79 187zM207 247c0 -72 42 -123 102 -123s103 51 103 123c0 73 -43 124 -103 124
s-102 -51 -102 -124z" />
    <glyph glyph-name="afii10081" unicode="&#x43f;" horiz-adv-x="618" 
d="M228 0h-176v495h514v-495h-176v362h-162v-362z" />
    <glyph glyph-name="afii10082" unicode="&#x440;" horiz-adv-x="618" 
d="M228 -208h-176v703h140l22 -46c38 39 87 58 147 58c67 0 122 -24 165 -73c43 -48 65 -110 65 -187c0 -76 -22 -138 -65 -187c-43 -48 -98 -72 -165 -72c-50 0 -94 16 -133 47v-243zM225 273v-52c0 -55 36 -95 89 -95c57 0 98 50 98 121c0 72 -41 122 -98 122
c-53 0 -89 -40 -89 -96z" />
    <glyph glyph-name="afii10083" unicode="&#x441;" horiz-adv-x="509" 
d="M27 247c0 76 26 138 77 187s117 73 198 73c71 0 139 -20 203 -60l-70 -117c-39 25 -75 37 -108 37c-71 0 -120 -49 -120 -120s49 -119 120 -119c33 0 69 12 108 37l70 -118c-65 -39 -132 -59 -203 -59c-81 0 -147 24 -198 73s-77 111 -77 186z" />
    <glyph glyph-name="afii10084" unicode="&#x442;" horiz-adv-x="477" 
d="M151 362h-134v133h443v-133h-133v-362h-176v362z" />
    <glyph glyph-name="afii10085" unicode="&#x443;" horiz-adv-x="554" 
d="M197 7l-201 488h184l97 -297l97 297h184l-211 -533c-47 -121 -121 -182 -223 -182c-26 0 -54 3 -85 10l22 136c17 -4 32 -6 45 -6c39 0 63 20 82 65z" />
    <glyph glyph-name="afii10086" unicode="&#x444;" horiz-adv-x="729" 
d="M27 247c0 65 23 121 69 167s109 74 188 85v205h161v-205c79 -11 142 -39 188 -85s69 -102 69 -167s-23 -121 -70 -167c-46 -46 -108 -74 -187 -85v-203h-161v203c-79 11 -141 39 -188 85c-46 46 -69 102 -69 167zM188 247c0 -57 36 -101 96 -116v232
c-60 -15 -96 -59 -96 -116zM445 360v-225c61 15 95 55 95 112s-35 98 -95 113z" />
    <glyph glyph-name="afii10087" unicode="&#x445;" horiz-adv-x="554" 
d="M188 0h-198l173 253l-165 242h194l85 -133l85 133h194l-165 -242l173 -253h-198l-89 145z" />
    <glyph glyph-name="afii10088" unicode="&#x446;" horiz-adv-x="649" 
d="M468 0h-416v495h176v-363h162v363h176v-363h64v-292h-162v160z" />
    <glyph glyph-name="afii10089" unicode="&#x447;" horiz-adv-x="570" 
d="M35 345v150h176v-135c0 -36 24 -60 57 -60c25 0 50 2 74 5v190h176v-495h-176v173c-36 -6 -76 -9 -121 -9c-55 0 -99 17 -134 50c-35 34 -52 78 -52 131z" />
    <glyph glyph-name="afii10090" unicode="&#x448;" horiz-adv-x="876" 
d="M823 0h-771v495h176v-363h122v363h176v-363h121v363h176v-495z" />
    <glyph glyph-name="afii10091" unicode="&#x449;" horiz-adv-x="906" 
d="M726 0h-674v495h176v-363h122v363h176v-363h121v363h176v-363h64v-292h-161v160z" />
    <glyph glyph-name="afii10092" unicode="&#x44a;" horiz-adv-x="618" 
d="M147 362h-130v133h291v-158h107c54 0 98 -16 132 -47c35 -31 52 -72 52 -121s-17 -90 -52 -122c-34 -31 -78 -47 -132 -47h-268v362zM308 211v-84h80c27 0 46 17 46 42c0 24 -19 42 -46 42h-80z" />
    <glyph glyph-name="afii10093" unicode="&#x44b;" horiz-adv-x="797" 
d="M321 0h-269v495h162v-158h107c53 0 97 -16 132 -47s52 -72 52 -121s-17 -90 -52 -122c-35 -31 -79 -47 -132 -47zM214 211v-84h79c27 0 47 17 47 42c0 24 -20 42 -47 42h-79zM745 0h-169v495h169v-495z" />
    <glyph glyph-name="afii10094" unicode="&#x44c;" horiz-adv-x="524" 
d="M321 0h-269v495h162v-158h107c53 0 97 -16 132 -47s52 -72 52 -121s-17 -90 -52 -122c-35 -31 -79 -47 -132 -47zM214 211v-84h79c27 0 47 17 47 42c0 24 -20 42 -47 42h-79z" />
    <glyph glyph-name="afii10095" unicode="&#x44d;" horiz-adv-x="524" 
d="M20 47l66 107c39 -25 76 -37 111 -37c60 0 104 28 121 79h-205v111h201c-19 44 -61 71 -117 71c-35 0 -72 -12 -111 -37l-66 106c63 40 130 60 203 60c80 0 146 -24 197 -73s77 -111 77 -187c0 -75 -26 -137 -77 -186s-117 -73 -197 -73c-72 0 -140 20 -203 59z" />
    <glyph glyph-name="afii10096" unicode="&#x44e;" horiz-adv-x="883" 
d="M228 0h-176v495h176v-179h89c14 57 45 103 93 138s105 53 172 53c80 0 146 -24 197 -73s77 -111 77 -187s-26 -138 -77 -187c-51 -48 -117 -72 -197 -72c-68 0 -126 18 -174 53c-48 36 -79 83 -92 142h-88v-183zM484 247c0 -72 41 -123 98 -123s98 51 98 123
c0 73 -41 124 -98 124s-98 -51 -98 -124z" />
    <glyph glyph-name="afii10097" unicode="&#x44f;" horiz-adv-x="553" 
d="M203 0h-180l118 175c-55 24 -92 80 -92 147c0 51 17 93 52 125s81 48 138 48h261v-495h-161v146h-43zM215 320c0 -29 22 -49 55 -49h69v98h-69c-33 0 -55 -20 -55 -49z" />
    <glyph glyph-name="uni0450" unicode="&#x450;" horiz-adv-x="564" 
d="M27 247c0 77 25 139 74 187c50 49 114 73 193 73c74 0 134 -23 181 -70s70 -107 70 -182c0 -18 -1 -36 -3 -53h-339c13 -52 64 -85 129 -85c40 0 86 13 137 40l52 -118c-73 -34 -144 -51 -211 -51c-83 0 -151 24 -204 72c-53 49 -79 111 -79 187zM341 518l-211 125
l77 110l200 -140zM203 305h173c-5 44 -38 73 -82 73c-45 0 -82 -29 -91 -73z" />
    <glyph glyph-name="afii10071" unicode="&#x451;" horiz-adv-x="564" 
d="M27 247c0 77 25 139 74 187c50 49 114 73 193 73c74 0 134 -23 181 -70s70 -107 70 -182c0 -18 -1 -36 -3 -53h-339c13 -52 64 -85 129 -85c40 0 86 13 137 40l52 -118c-73 -34 -144 -51 -211 -51c-83 0 -151 24 -204 72c-53 49 -79 111 -79 187zM111 560
c-16 17 -24 38 -24 65s8 48 24 65c17 17 38 25 65 25s48 -8 64 -25c17 -17 25 -38 25 -65s-8 -48 -25 -65c-16 -16 -37 -24 -64 -24s-48 8 -65 24zM203 305h173c-5 44 -38 73 -82 73c-45 0 -82 -29 -91 -73zM347 560c-16 17 -24 38 -24 65s8 48 24 65c17 17 38 25 65 25
s48 -8 64 -25c17 -17 25 -38 25 -65s-8 -48 -25 -65c-16 -16 -37 -24 -64 -24s-48 8 -65 24z" />
    <glyph glyph-name="afii10099" unicode="&#x452;" horiz-adv-x="618" 
d="M52 534h-51v118h51v52h176v-52h149v-118h-149v-81c39 36 88 54 148 54c59 0 106 -18 143 -55c37 -36 55 -83 55 -140v-357c0 -53 -17 -95 -52 -127c-34 -32 -79 -48 -134 -48c-40 0 -81 5 -123 16l22 130c21 -4 40 -6 58 -6c33 0 53 20 53 53v310c0 47 -33 80 -78 80
c-53 0 -92 -38 -92 -91v-272h-176v534z" />
    <glyph glyph-name="afii10100" unicode="&#x453;" horiz-adv-x="446" 
d="M228 0h-176v495h368v-133h-192v-362zM199 518l-66 95l200 140l76 -110z" />
    <glyph glyph-name="afii10101" unicode="&#x454;" horiz-adv-x="524" 
d="M27 247c0 76 26 138 77 187s117 73 198 73c71 0 139 -20 203 -60l-67 -106c-39 25 -76 37 -111 37c-56 0 -98 -27 -117 -71h201v-111h-204c16 -51 60 -79 120 -79c36 0 73 12 111 37l67 -107c-65 -39 -132 -59 -203 -59c-81 0 -147 24 -198 73s-77 111 -77 186z" />
    <glyph glyph-name="afii10102" unicode="&#x455;" horiz-adv-x="476" 
d="M27 28l37 125c57 -24 110 -36 159 -36c35 0 53 14 53 35c0 63 -245 4 -245 195c0 46 19 84 58 114c39 31 88 46 149 46s126 -12 195 -36l-37 -125c-55 21 -103 32 -144 32c-31 0 -49 -12 -49 -31c0 -58 246 -1 246 -195c0 -48 -20 -87 -59 -118s-90 -46 -152 -46
c-67 0 -137 13 -211 40z" />
    <glyph glyph-name="afii10103" unicode="&#x456;" horiz-adv-x="281" 
d="M40 625c0 59 43 101 100 101c60 0 101 -42 101 -101c0 -57 -41 -100 -101 -100c-57 0 -100 43 -100 100zM228 0h-176v495h176v-495z" />
    <glyph glyph-name="afii10104" unicode="&#x457;" horiz-adv-x="281" 
d="M-42 560c-17 17 -25 38 -25 65s8 48 25 65c16 17 37 25 64 25s48 -8 64 -25c17 -17 25 -38 25 -65s-8 -48 -25 -65c-16 -16 -37 -24 -64 -24s-48 8 -64 24zM228 0h-176v495h176v-495zM193 560c-16 17 -24 38 -24 65s8 48 24 65c17 17 38 25 65 25s48 -8 64 -25
c17 -17 25 -38 25 -65s-8 -48 -25 -65c-16 -16 -37 -24 -64 -24s-48 8 -65 24z" />
    <glyph glyph-name="afii10105" unicode="&#x458;" horiz-adv-x="289" 
d="M-73 -204l22 130c22 -4 41 -6 58 -6c33 0 53 20 53 53v522h176v-540c0 -53 -17 -95 -51 -127s-79 -48 -134 -48c-40 0 -81 5 -124 16zM48 625c0 59 41 101 100 101s101 -42 101 -101c0 -57 -42 -100 -101 -100s-100 43 -100 100z" />
    <glyph glyph-name="afii10106" unicode="&#x459;" horiz-adv-x="868" 
d="M9 -6l15 137c13 -2 24 -3 33 -3c33 0 52 24 52 65v302h458v-158h98c54 0 98 -16 132 -47c35 -31 52 -72 52 -121s-17 -90 -52 -122c-34 -31 -78 -47 -131 -47h-261v362h-127v-183c0 -57 -18 -103 -54 -138c-35 -35 -81 -53 -138 -53c-28 0 -54 2 -77 6zM567 211v-84h71
c27 0 46 17 46 42c0 24 -19 42 -46 42h-71z" />
    <glyph glyph-name="afii10107" unicode="&#x45a;" horiz-adv-x="852" 
d="M221 0h-169v495h169v-173h168v173h162v-173h106c51 0 93 -15 126 -45s50 -69 50 -116s-17 -86 -50 -116s-75 -45 -126 -45h-268v197h-168v-197zM551 203v-83h72c28 0 45 17 45 41c0 25 -17 42 -46 42h-71z" />
    <glyph glyph-name="afii10108" unicode="&#x45b;" horiz-adv-x="618" 
d="M52 534h-51v118h51v52h176v-52h149v-118h-149v-82c39 37 89 55 148 55s106 -18 143 -55c37 -36 55 -82 55 -139v-313h-176v284c0 45 -33 79 -78 79c-55 0 -92 -39 -92 -98v-265h-176v534z" />
    <glyph glyph-name="afii10109" unicode="&#x45c;" horiz-adv-x="553" 
d="M221 0h-169v495h169v-176h22l121 176h184l-164 -236l179 -259h-191l-125 187h-26v-187zM244 518l-66 95l200 140l76 -110z" />
    <glyph glyph-name="uni045D" unicode="&#x45d;" horiz-adv-x="618" 
d="M218 0h-166v495h162v-260l187 260h165v-495h-162v260zM356 518l-211 125l77 110l200 -140z" />
    <glyph glyph-name="afii10110" unicode="&#x45e;" horiz-adv-x="554" 
d="M197 7l-201 488h184l97 -297l97 297h184l-211 -533c-47 -121 -121 -182 -223 -182c-26 0 -54 3 -85 10l22 136c17 -4 32 -6 45 -6c39 0 63 20 82 65zM98 703h111c-4 -80 140 -80 136 0h111c-4 -111 -76 -179 -179 -179s-175 68 -179 179z" />
    <glyph glyph-name="afii10193" unicode="&#x45f;" horiz-adv-x="618" 
d="M228 0h-176v495h176v-363h162v363h176v-495h-176v-160h-162v160z" />
    <glyph glyph-name="afii10050" unicode="&#x490;" horiz-adv-x="543" 
d="M252 0h-183v672h287v160h169v-300h-273v-532z" />
    <glyph glyph-name="afii10098" unicode="&#x491;" horiz-adv-x="446" 
d="M228 0h-176v495h207v160h161v-293h-192v-362z" />
    <glyph glyph-name="uni0492" unicode="&#x492;" horiz-adv-x="559" 
d="M85 250h-68v133h68v289h456v-140h-273v-149h158v-133h-158v-250h-183v250z" />
    <glyph glyph-name="uni0493" unicode="&#x493;" horiz-adv-x="454" 
d="M60 169h-51v126h51v200h368v-133h-192v-67h101v-126h-101v-169h-176v169z" />
    <glyph glyph-name="uni049A" unicode="&#x49a;" horiz-adv-x="745" 
d="M245 0h-176v672h176v-258h51l194 258h198l-242 -319l160 -213h129v-316h-169v176h-64l-199 274h-58v-274z" />
    <glyph glyph-name="uni049B" unicode="&#x49b;" horiz-adv-x="592" 
d="M221 0h-169v495h169v-176h22l121 176h184l-162 -233l90 -130h105v-292h-161v160h-48l-123 187h-28v-187z" />
    <glyph glyph-name="uni04A2" unicode="&#x4a2;" horiz-adv-x="835" 
d="M252 0h-183v672h183v-258h284v258h183v-532h96v-316h-168v176h-111v274h-284v-274z" />
    <glyph glyph-name="uni04A3" unicode="&#x4a3;" horiz-adv-x="649" 
d="M228 0h-176v495h176v-179h162v179h176v-363h64v-292h-162v160h-78v183h-162v-183z" />
    <glyph glyph-name="uni04AE" unicode="&#x4ae;" horiz-adv-x="634" 
d="M225 260l-244 412h198l138 -250l138 250h198l-244 -412v-260h-184v260z" />
    <glyph glyph-name="uni04AF" unicode="&#x4af;" horiz-adv-x="554" 
d="M189 18l-193 477h184l97 -289l97 289h184l-193 -477v-226h-176v226z" />
    <glyph glyph-name="uni04B0" unicode="&#x4b0;" horiz-adv-x="634" 
d="M178 341l-197 331h198l138 -250l138 250h198l-197 -331h81v-140h-128v-201h-184v201h-128v140h81z" />
    <glyph glyph-name="uni04B1" unicode="&#x4b1;" horiz-adv-x="554" 
d="M162 88l-166 407h184l97 -289l97 289h184l-166 -407h89v-117h-116v-179h-176v179h-116v117h89z" />
    <glyph glyph-name="uni04BA" unicode="&#x4ba;" horiz-adv-x="724" 
d="M252 0h-183v672h183v-255c68 12 129 18 182 18c73 0 132 -22 178 -67c46 -44 69 -101 69 -171v-197h-184v183c0 64 -43 109 -106 109c-40 0 -86 -5 -139 -14v-278z" />
    <glyph glyph-name="uni04BB" unicode="&#x4bb;" horiz-adv-x="618" 
d="M228 0h-176v704h176v-252c39 37 89 55 148 55s106 -18 143 -55c37 -36 55 -82 55 -139v-313h-176v284c0 45 -33 79 -78 79c-55 0 -92 -39 -92 -98v-265z" />
    <glyph glyph-name="uni04D8" unicode="&#x4d8;" horiz-adv-x="725" 
d="M16 324c0 21 1 42 3 63h492c-15 97 -94 157 -207 157c-61 0 -126 -17 -193 -52l-59 125c92 45 183 67 274 67c216 0 371 -141 371 -348c3 -204 -147 -351 -350 -348c-97 0 -177 31 -239 93c-61 63 -92 144 -92 243zM511 269h-316c8 -85 68 -141 152 -141
c88 0 149 53 164 141z" />
    <glyph glyph-name="afii10846" unicode="&#x4d9;" horiz-adv-x="564" 
d="M19 239c0 18 1 36 3 54h339c-13 52 -64 85 -129 85c-40 0 -86 -13 -137 -40l-52 117c72 35 142 52 211 52c84 0 152 -24 204 -73c53 -48 79 -110 79 -187c0 -76 -25 -138 -75 -187c-49 -48 -113 -72 -192 -72c-74 0 -134 23 -181 70s-70 107 -70 181zM361 190h-173
c5 -44 37 -73 82 -73s82 29 91 73z" />
    <glyph glyph-name="uni04E8" unicode="&#x4e8;" horiz-adv-x="788" 
d="M55 195c-36 87 -36 196 0 281c36 87 100 147 191 182s205 35 296 0c92 -35 156 -95 192 -182c36 -85 36 -194 0 -281c-36 -85 -100 -146 -192 -181c-91 -35 -205 -35 -296 0s-155 96 -191 181zM582 281h-376c19 -96 92 -157 188 -157s169 61 188 157zM211 407h366
c-23 87 -94 141 -183 141s-159 -54 -183 -141z" />
    <glyph glyph-name="uni04E9" unicode="&#x4e9;" horiz-adv-x="618" 
d="M27 247c0 76 26 138 79 187s120 73 203 73s151 -24 203 -73c53 -48 79 -110 79 -187c0 -76 -26 -138 -79 -187c-52 -48 -120 -72 -203 -72s-150 24 -203 72c-53 49 -79 111 -79 187zM425 200h-233c16 -56 61 -91 117 -91c57 0 101 35 116 91zM196 303h227
c-19 51 -61 82 -114 82s-97 -33 -113 -82z" />
    <glyph glyph-name="uni2010" unicode="&#x2010;" horiz-adv-x="320" 
d="M303 187h-286v132h286v-132z" />
    <glyph glyph-name="uni2011" unicode="&#x2011;" horiz-adv-x="320" 
d="M303 187h-286v132h286v-132z" />
    <glyph glyph-name="endash" unicode="&#x2013;" horiz-adv-x="480" 
d="M463 187h-446v132h446v-132z" />
    <glyph glyph-name="emdash" unicode="&#x2014;" horiz-adv-x="960" 
d="M943 187h-926v132h926v-132z" />
    <glyph glyph-name="afii00208" unicode="&#x2015;" horiz-adv-x="960" 
d="M943 187h-926v132h926v-132z" />
    <glyph glyph-name="quoteleft" unicode="&#x2018;" horiz-adv-x="282" 
d="M37 459c0 92 53 179 146 236l51 -67c-33 -27 -57 -57 -72 -89c51 -8 83 -46 83 -97c0 -60 -43 -104 -104 -104s-104 50 -104 121z" />
    <glyph glyph-name="quoteright" unicode="&#x2019;" horiz-adv-x="282" 
d="M37 583c0 60 44 104 104 104c63 0 105 -49 105 -120c0 -92 -54 -180 -146 -236l-52 67c34 29 58 58 72 89c-49 7 -83 45 -83 96z" />
    <glyph glyph-name="quotesinglbase" unicode="&#x201a;" horiz-adv-x="250" 
d="M37 92c0 60 44 104 104 104c63 0 105 -49 105 -120c0 -92 -54 -180 -146 -236l-52 67c34 29 58 58 72 89c-49 7 -83 45 -83 96z" />
    <glyph glyph-name="quotedblleft" unicode="&#x201c;" horiz-adv-x="529" 
d="M37 459c0 92 53 179 146 236l51 -67c-33 -27 -57 -57 -72 -89c51 -8 83 -46 83 -97c0 -60 -43 -104 -104 -104s-104 50 -104 121zM285 459c0 92 53 179 146 236l51 -67c-33 -27 -57 -57 -72 -89c51 -8 83 -46 83 -97c0 -60 -43 -104 -104 -104s-104 50 -104 121z" />
    <glyph glyph-name="quotedblright" unicode="&#x201d;" horiz-adv-x="529" 
d="M37 583c0 60 44 104 104 104c63 0 105 -49 105 -120c0 -92 -54 -180 -146 -236l-52 67c34 29 58 58 72 89c-49 7 -83 45 -83 96zM284 583c0 60 44 104 104 104c63 0 105 -49 105 -120c0 -92 -54 -180 -146 -236l-52 67c34 29 58 58 72 89c-49 7 -83 45 -83 96z" />
    <glyph glyph-name="quotedblbase" unicode="&#x201e;" horiz-adv-x="529" 
d="M37 92c0 60 44 104 104 104c63 0 105 -49 105 -120c0 -92 -54 -180 -146 -236l-52 67c34 29 58 58 72 89c-49 7 -83 45 -83 96zM284 92c0 60 44 104 104 104c63 0 105 -49 105 -120c0 -92 -54 -180 -146 -236l-52 67c34 29 58 58 72 89c-49 7 -83 45 -83 96z" />
    <glyph glyph-name="dagger" unicode="&#x2020;" horiz-adv-x="509" 
d="M188 385h-155v132h155v155h133v-155h155v-132h-155v-385h-133v385z" />
    <glyph glyph-name="daggerdbl" unicode="&#x2021;" horiz-adv-x="509" 
d="M188 155h-155v132h155v98h-155v132h155v155h133v-155h155v-132h-155v-98h155v-132h-155v-155h-133v155z" />
    <glyph glyph-name="bullet" unicode="&#x2022;" horiz-adv-x="480" 
d="M138 186c-28 28 -42 62 -42 102s14 74 42 102s62 42 102 42s74 -14 102 -42s42 -62 42 -102s-14 -74 -42 -102s-62 -42 -102 -42s-74 14 -102 42z" />
    <glyph glyph-name="ellipsis" unicode="&#x2026;" horiz-adv-x="960" 
d="M56 92c0 60 44 104 104 104c61 0 104 -44 104 -104s-44 -104 -104 -104s-104 44 -104 104zM376 92c0 60 44 104 104 104s104 -44 104 -104s-44 -104 -104 -104s-104 44 -104 104zM696 92c0 60 43 104 103 104c61 0 105 -44 105 -104s-44 -104 -104 -104s-104 44 -104 104
z" />
    <glyph glyph-name="perthousand" unicode="&#x2030;" horiz-adv-x="1276" 
d="M215 684c55 0 100 -17 135 -51c36 -33 54 -76 54 -129s-18 -96 -54 -130c-35 -33 -80 -50 -135 -50s-101 17 -136 50c-35 34 -52 77 -52 130s17 96 52 129c35 34 81 51 136 51zM224 -33l-88 66l504 672l88 -66zM215 424c36 0 60 32 60 80s-24 80 -60 80s-59 -32 -59 -80
s23 -80 59 -80zM649 348c54 0 99 -17 134 -51c36 -33 54 -76 54 -129s-18 -96 -54 -130c-35 -33 -80 -50 -134 -50c-55 0 -101 17 -136 50c-35 34 -53 77 -53 130s18 96 53 129c35 34 81 51 136 51zM649 88c35 0 59 32 59 80s-24 80 -59 80c-36 0 -60 -32 -60 -80
s24 -80 60 -80zM1060 348c55 0 100 -17 135 -51c36 -33 54 -76 54 -129s-18 -96 -54 -130c-35 -33 -80 -50 -135 -50s-100 17 -135 50c-35 34 -53 77 -53 130s18 96 53 129c35 34 80 51 135 51zM1060 88c36 0 60 32 60 80s-24 80 -60 80c-35 0 -59 -32 -59 -80
s24 -80 59 -80z" />
    <glyph glyph-name="guilsinglleft" unicode="&#x2039;" horiz-adv-x="346" 
d="M224 -7l-199 223v74l199 224l103 -81l-133 -180l133 -179z" />
    <glyph glyph-name="guilsinglright" unicode="&#x203a;" horiz-adv-x="346" 
d="M122 -7l-103 81l134 179l-134 180l103 81l199 -224v-74z" />
    <glyph glyph-name="fraction" unicode="&#x2044;" horiz-adv-x="192" 
d="M-112 -33l-88 66l504 672l88 -66z" />
    <glyph glyph-name="Euro" unicode="&#x20ac;" 
d="M91 220h-66v104h52c-1 3 -1 7 -1 12c0 13 0 22 1 28h-52v104h72c44 135 151 216 287 216c71 0 137 -17 196 -51l-62 -118c-37 22 -74 33 -112 33c-57 0 -108 -32 -129 -80h191v-104h-222c-1 -6 -1 -15 -1 -28v-12h223v-104h-199c23 -59 73 -96 137 -96c37 0 75 11 112 33
l62 -118c-59 -34 -125 -51 -196 -51c-140 0 -250 87 -293 232z" />
    <glyph glyph-name="afii61248" unicode="&#x2105;" horiz-adv-x="861" 
d="M24 508c0 50 18 91 53 123c35 33 80 49 134 49c43 0 89 -14 136 -41l-52 -85c-26 17 -49 25 -68 25c-41 0 -72 -30 -72 -71c0 -63 68 -95 140 -45l52 -85c-46 -27 -91 -41 -136 -41c-54 0 -99 16 -134 48s-53 73 -53 123zM218 -33l-89 66l504 672l89 -66zM453 164
c0 50 18 91 54 123s82 48 138 48s102 -16 138 -48s54 -73 54 -123c0 -51 -18 -92 -54 -124s-82 -48 -138 -48s-102 16 -138 48s-54 73 -54 124zM585 164c0 -43 25 -72 60 -72s60 29 60 72s-25 72 -60 72s-60 -29 -60 -72z" />
    <glyph glyph-name="litre" unicode="&#x2113;" horiz-adv-x="425" 
d="M52 163v369c0 55 17 100 52 133c35 34 79 51 133 51c49 0 90 -16 122 -49s48 -74 48 -124c0 -111 -65 -218 -193 -307v-59c0 -29 21 -49 53 -49c11 0 32 3 65 8l22 -132c-39 -11 -78 -16 -116 -16c-54 0 -99 16 -134 49s-52 75 -52 126zM214 523v-133c41 42 61 85 61 130
c0 33 -11 55 -31 55c-19 0 -30 -21 -30 -52z" />
    <glyph glyph-name="numero" unicode="&#x2116;" horiz-adv-x="1221" 
d="M238 0h-169v672h176l306 -423v423h168v-672h-176l-305 423v-423zM813 516c0 50 18 91 53 123c36 32 82 48 138 48s102 -16 138 -48s54 -73 54 -123c0 -51 -18 -92 -54 -124s-82 -48 -138 -48s-102 16 -138 48c-35 32 -53 73 -53 124zM1187 204h-365v89h365v-89zM945 516
c0 -43 24 -72 59 -72c36 0 60 29 60 72s-24 72 -60 72c-35 0 -59 -29 -59 -72z" />
    <glyph glyph-name="uni2117" unicode="&#x2117;" horiz-adv-x="832" 
d="M95 145c-31 56 -47 119 -47 190c0 143 66 259 178 322c56 31 119 47 190 47c141 0 258 -66 321 -178c31 -56 47 -120 47 -191c0 -141 -66 -257 -178 -320c-56 -31 -119 -47 -190 -47c-141 0 -258 66 -321 177zM215 537c-52 -52 -78 -119 -78 -201s26 -149 78 -201
s119 -78 201 -78s149 26 201 78s78 119 78 201s-26 149 -78 201s-119 78 -201 78s-149 -26 -201 -78zM382 128h-122v416h191c95 0 161 -61 161 -148c0 -43 -15 -78 -45 -106c-30 -27 -69 -41 -116 -41h-69v-121zM382 445v-98h53c32 0 54 21 54 49c0 29 -22 49 -54 49h-53z
" />
    <glyph glyph-name="uni2120" unicode="&#x2120;" horiz-adv-x="957" 
d="M26 283l32 96c49 -19 91 -29 128 -29c32 0 50 13 50 33c0 54 -206 6 -206 166c0 77 66 131 166 131c51 0 103 -10 158 -31l-32 -96c-43 16 -81 24 -116 24c-28 0 -46 -11 -46 -28c0 -50 206 -3 206 -166c0 -81 -67 -135 -170 -135c-57 0 -113 12 -170 35zM557 256h-118
v416h128l108 -152l108 152h127v-416h-120v239l-78 -113h-74l-81 113v-239z" />
    <glyph glyph-name="trademark" unicode="&#x2122;" horiz-adv-x="963" 
d="M132 572h-113v100h359v-100h-113v-316h-133v316zM562 256h-117v416h127l108 -152l108 152h127v-416h-120v239l-78 -113h-74l-81 113v-239z" />
    <glyph glyph-name="uni2126" unicode="&#x2126;" horiz-adv-x="812" 
d="M363 0h-328v140h121c-65 63 -98 139 -98 227c-3 184 146 320 348 317c200 3 351 -133 347 -317c0 -89 -33 -164 -98 -227h122v-140h-328v118c81 66 121 144 121 235c0 112 -64 188 -164 188s-165 -76 -165 -188c0 -90 41 -168 122 -235v-118z" />
    <glyph glyph-name="estimated" unicode="&#x212e;" horiz-adv-x="960" 
d="M864 336c0 -7 0 -13 -1 -16h-623v-196c60 -68 145 -108 240 -108c96 0 183 41 243 112h66c-72 -88 -185 -144 -309 -144c-159 0 -294 89 -354 215c-63 129 -22 293 82 386c101 95 281 134 421 75c138 -54 235 -178 235 -324zM240 548v-196h480v196
c-60 67 -147 108 -240 108c-95 0 -180 -41 -240 -108z" />
    <glyph glyph-name="uni215F" unicode="&#x215f;" 
d="M83 509l-44 83l141 80h104v-416h-126v294zM272 -33l-88 66l504 672l88 -66z" />
    <glyph glyph-name="arrowleft" unicode="&#x2190;" horiz-adv-x="960" 
d="M380 -60l-348 348l348 348l117 -111l-164 -156h595v-162h-595l164 -156z" />
    <glyph glyph-name="arrowup" unicode="&#x2191;" horiz-adv-x="960" 
d="M243 271l-111 117l348 348l348 -348l-111 -117l-156 164v-595h-162v595z" />
    <glyph glyph-name="arrowright" unicode="&#x2192;" horiz-adv-x="960" 
d="M627 207h-595v162h595l-164 156l117 111l348 -348l-348 -348l-117 111z" />
    <glyph glyph-name="arrowdown" unicode="&#x2193;" horiz-adv-x="960" 
d="M480 -160l-348 348l111 117l156 -164v595h162v-595l156 164l111 -117z" />
    <glyph glyph-name="uni2196" unicode="&#x2196;" horiz-adv-x="960" 
d="M325 108l-162 5v492h492l5 -162l-227 6l421 -421l-114 -114l-421 421z" />
    <glyph glyph-name="uni2197" unicode="&#x2197;" horiz-adv-x="960" 
d="M220 -86l-114 114l421 421l-227 -6l5 162h492v-492l-162 -5l6 227z" />
    <glyph glyph-name="uni2198" unicode="&#x2198;" horiz-adv-x="960" 
d="M527 127l-421 421l114 114l421 -421l-6 227l162 -5v-492h-492l-5 162z" />
    <glyph glyph-name="uni2199" unicode="&#x2199;" horiz-adv-x="960" 
d="M655 -29h-492v492l162 5l-6 -227l421 421l114 -114l-421 -421l227 6z" />
    <glyph glyph-name="partialdiff" unicode="&#x2202;" horiz-adv-x="618" 
d="M27 263c0 69 22 127 66 174c45 47 100 70 165 70c55 0 103 -15 145 -45c-9 75 -61 118 -132 118c-37 0 -80 -12 -130 -36l-59 125c64 31 132 47 203 47c93 0 165 -33 218 -98s80 -156 80 -271c0 -111 -26 -199 -79 -263c-52 -64 -122 -96 -210 -96c-79 0 -144 25 -193 76
s-74 118 -74 199zM196 252c0 -72 44 -121 105 -121c29 0 54 12 75 36s31 53 31 88c0 64 -43 108 -106 108c-61 0 -105 -46 -105 -111z" />
    <glyph glyph-name="uni2206" unicode="&#x2206;" horiz-adv-x="692" 
d="M674 0h-655v103l243 569h169l243 -569v-103zM346 473l-137 -333h274z" />
    <glyph glyph-name="product" unicode="&#x220f;" horiz-adv-x="812" 
d="M252 -208h-183v912h674v-912h-184v772h-307v-772z" />
    <glyph glyph-name="summation" unicode="&#x2211;" horiz-adv-x="639" 
d="M20 -208v107l286 357l-270 341v107h576v-140h-338l208 -267v-82l-224 -283h370v-140h-608z" />
    <glyph glyph-name="minus" unicode="&#x2212;" 
d="M541 215h-506v146h506v-146z" />
    <glyph glyph-name="uni2215" unicode="&#x2215;" horiz-adv-x="192" 
d="M-112 -33l-88 66l504 672l88 -66z" />
    <glyph glyph-name="radical" unicode="&#x221a;" horiz-adv-x="698" 
d="M39 20l-46 137l280 93l84 -252l195 728l143 -37l-243 -897h-179l-96 275z" />
    <glyph glyph-name="infinity" unicode="&#x221e;" horiz-adv-x="812" 
d="M19 288c0 63 19 115 56 155c38 41 87 61 147 61c77 0 129 -29 184 -98c53 69 107 98 184 98c59 0 108 -20 146 -61c38 -40 57 -92 57 -155s-19 -114 -57 -155s-87 -61 -146 -61c-77 0 -131 27 -184 98c-55 -71 -107 -98 -184 -98c-60 0 -109 20 -147 60
c-37 41 -56 93 -56 156zM180 288c0 -48 28 -80 67 -80c35 0 60 25 85 80c-25 56 -50 80 -85 80c-39 0 -67 -33 -67 -80zM479 288c25 -55 50 -80 85 -80c40 0 67 33 67 80c0 48 -27 80 -67 80c-35 0 -60 -25 -85 -80z" />
    <glyph glyph-name="integral" unicode="&#x222b;" horiz-adv-x="428" 
d="M53 -204l30 136c17 -6 33 -9 48 -9c37 0 63 29 63 70c0 44 -22 112 -50 180c-38 96 -91 223 -90 316c0 67 20 121 59 163c40 43 91 64 154 64c37 0 73 -5 108 -16l-30 -136c-17 6 -33 9 -49 9c-36 0 -63 -29 -63 -70c0 -44 22 -112 50 -181c40 -97 91 -221 91 -315
c0 -67 -20 -121 -60 -163c-39 -43 -90 -64 -153 -64c-37 0 -73 5 -108 16z" />
    <glyph glyph-name="approxequal" unicode="&#x2248;" 
d="M83 73l-77 125c55 41 112 62 171 62c41 0 88 -12 116 -24c29 -12 71 -24 106 -24c33 0 59 12 94 41l77 -125c-57 -42 -114 -63 -171 -63c-43 0 -89 12 -118 24c-28 12 -69 24 -104 24c-33 0 -61 -11 -94 -40zM83 323l-77 125c57 42 114 63 171 63c41 0 88 -12 116 -24
c29 -12 71 -24 106 -24c31 0 63 13 94 40l77 -125c-56 -41 -113 -62 -171 -62c-43 0 -89 12 -118 24c-28 12 -69 24 -104 24c-31 0 -62 -14 -94 -41z" />
    <glyph glyph-name="notequal" unicode="&#x2260;" 
d="M110 97h-75v147h148l45 88h-193v147h266l63 127l133 -64l-32 -63h76v-147h-149l-44 -88h193v-147h-267l-62 -125l-133 64z" />
    <glyph glyph-name="lessequal" unicode="&#x2264;" 
d="M541 0h-506v147h506v-147zM497 156l-462 208v147l462 208l59 -139l-323 -142l323 -142z" />
    <glyph glyph-name="greaterequal" unicode="&#x2265;" 
d="M79 156l-59 140l323 142l-323 142l59 139l462 -208v-147zM541 0h-506v147h506v-147z" />
    <glyph glyph-name="uni22C5" unicode="&#x22c5;" horiz-adv-x="282" 
d="M37 253c0 60 44 104 104 104c61 0 104 -44 104 -104s-44 -104 -104 -104s-104 44 -104 104z" />
    <glyph glyph-name="lozenge" unicode="&#x25ca;" 
d="M215 0l-209 336l209 336h146l209 -336l-209 -336h-146zM288 510l-106 -174l106 -175l106 175z" />
    <glyph glyph-name="uniE000" unicode="&#xe000;" horiz-adv-x="495" 
d="M495 0h-495v495h495v-495z" />
    <glyph glyph-name="afii10066.locl" unicode="&#xe700;" horiz-adv-x="570" 
d="M19 207c0 91 47 164 119 205c-41 31 -61 71 -61 122s18 92 55 123s86 47 147 47h195v-132h-173c-37 0 -55 -13 -55 -38c0 -78 305 -82 305 -323c0 -65 -25 -118 -75 -160c-49 -42 -113 -63 -191 -63c-77 0 -141 21 -191 62s-75 94 -75 157zM191 218c0 -55 38 -94 94 -94
s94 40 94 95c0 49 -34 89 -101 120c-57 -29 -87 -74 -87 -121z" />
    <glyph glyph-name="afii10068.alt" unicode="&#xe701;" horiz-adv-x="476" 
d="M27 152c0 195 245 136 245 195c0 19 -18 31 -49 31c-40 0 -88 -11 -143 -32l-37 125c69 24 134 36 195 36s110 -15 149 -46c39 -30 58 -68 58 -114c0 -191 -246 -132 -246 -195c0 -21 20 -35 53 -35c49 0 103 12 160 36l37 -125c-75 -27 -145 -40 -211 -40
c-62 0 -113 15 -152 46s-59 70 -59 118z" />
    <glyph glyph-name="afii10069.alt" unicode="&#xe702;" horiz-adv-x="618" 
d="M27 247c0 77 21 139 64 187c43 49 99 73 166 73c59 0 108 -19 147 -58l22 46h140v-469c0 -71 -27 -130 -82 -176c-54 -47 -123 -70 -206 -70c-73 0 -149 16 -226 47l48 129c59 -27 114 -40 163 -40c76 0 127 42 127 103v16c-38 -31 -82 -47 -133 -47
c-67 0 -123 24 -166 72c-43 49 -64 111 -64 187zM207 247c0 -71 40 -121 97 -121c53 0 89 40 89 95v52c0 56 -36 96 -89 96c-57 0 -97 -50 -97 -122z" />
    <glyph glyph-name="afii10081.alt" unicode="&#xe703;" horiz-adv-x="618" 
d="M228 0h-176v495h140l22 -54c41 44 95 66 162 66c59 0 106 -18 143 -55c37 -36 55 -82 55 -139v-313h-176v284c0 45 -33 79 -78 79c-55 0 -92 -39 -92 -98v-265z" />
    <glyph glyph-name="afii10084.alt" unicode="&#xe704;" horiz-adv-x="932" 
d="M228 0h-176v495h140l22 -50c44 41 95 62 154 62c65 0 122 -27 153 -74c55 49 113 74 176 74c56 0 102 -18 137 -53s53 -79 53 -133v-321h-176v292c0 43 -29 71 -70 71c-49 0 -83 -37 -83 -90v-273h-176v292c0 41 -29 71 -70 71c-49 0 -84 -37 -84 -90v-273z" />
    <glyph glyph-name="commaaccent.alt" unicode="&#xea01;" horiz-adv-x="240" 
d="M30 622c0 79 44 149 123 194l45 -59c-25 -23 -44 -46 -57 -69c40 -4 68 -36 68 -75c0 -53 -36 -89 -89 -89c-52 0 -90 42 -90 98z" />
    <glyph glyph-name="caron.alt" unicode="&#xea02;" horiz-adv-x="240" 
d="M160 522l-114 38l64 193l125 -43z" />
    <glyph glyph-name="ringacute" unicode="&#xea03;" horiz-adv-x="240" 
d="M3 625c0 36 17 65 50 88l176 118l69 -104l-81 -43c13 -16 20 -36 20 -59c0 -60 -49 -103 -117 -103c-69 0 -117 43 -117 103zM92 653c-15 -15 -15 -41 0 -57c15 -15 41 -15 56 0c15 16 15 42 0 57s-41 15 -56 0z" />
    <glyph glyph-name="registered.alt" unicode="&#xec00;" horiz-adv-x="512" 
d="M95 303c-42 42 -63 96 -63 161s21 119 63 161s96 63 161 63s119 -21 161 -63s63 -96 63 -161s-21 -119 -63 -161s-96 -63 -161 -63s-119 21 -161 63zM135 585c-31 -31 -47 -72 -47 -121s16 -90 47 -121s72 -47 121 -47s90 16 121 47s47 72 47 121s-16 90 -47 121
s-72 47 -121 47s-90 -16 -121 -47zM225 344h-63v240h108c51 0 87 -34 87 -79c0 -35 -17 -62 -48 -71l59 -90h-71l-48 78h-24v-78zM225 532v-57h34c19 0 32 11 32 28s-13 29 -32 29h-34z" />
    <glyph glyph-name="apple" unicode="&#xf8ff;" horiz-adv-x="591" 
d="M238 0h-138v659h391v-65h-326v-529h73v-65zM491 202h-261v65h196v66h-196v195h261v-65h-196v-65h196v-196z" />
    </font>
</defs>
</svg>
