<svg xmlns="http://www.w3.org/2000/svg" viewBox="0 0 1236 924"><style>.st0{fill:none;stroke:rgba(249, 249, 249, 0.15);stroke-width:2}</style><path class="st0" d="M1083.4 660.1c-7.4-4.5-16.1-7.2-23.7-6.3-7.1.8-13.7 3.7-20.6 5.7-6.8 2-14.3 3.3-21 .9-10.8-3.8-18.6-16.4-30-15-6.4.8-11.5 6.3-13.4 12.5-1.9 6.2-1 12.9.6 19.1 2 7.7 6.8 16.4 14.7 16.5 6.7.1 12.9-6.3 19.3-4.4 3.5 1 5.9 4.3 6.7 7.8s.2 7.2-.7 10.7c-3.2 12-10.7 19.3-18.1 28.7-4.5 5.7-12.8 15.4-11.9 23.1.8 7.6 11.5 8 17 7.3 19-2.2 36.8-9.8 52.9-20 21.8-13.9 59.8-43 41.9-73-2.8-5.3-7.9-10-13.7-13.6zM980.4 162.3c-3.6 10.8-7.3 21.7-13.5 31.1-7.2 11.1-18.3 19.2-28.5 27.1-2.7 2.2-5.6 4.9-5.8 8.5-.2 3.6 2.7 6.7 5.9 7.8 3.3 1.1 6.8.6 10.2-.2 17.1-4.2 31.9-15.4 48.8-20.7 2-.6 4.4-1.1 6 .3 1.2 1 1.5 2.7 1.5 4.2.1 8.2-6.9 14.9-7.7 23-.1 1.2-.1 2.4.4 3.4.6 1.4 1.9 2.3 3.3 2.8 6.7 2.8 14.1-1.6 20-6 17.4-12.8 34-26.8 49.7-41.8 7.3-7 13.9-15.5 21.7-21.8 7.9-6.5 18.5-10.8 27.8-14.6 12.4-5.1 26.1-9 34.9-19.3 1.5-1.8 3-4.1 2.3-6.5-.7-2.6-3.7-3.7-6.3-4.2-18.5-3.2-37.3 6.6-55.8 3.6-1.3-.2-2.8-.5-3.8-1.4-3.5-3.1-.1-9 3.4-12 4.7-4 30.2-17 23.4-23.4-1.4-1.3-3.3-2-5.2-2.6-12.4-3.6-25.4-1.6-37.7 1.5-11 2.8-21.7 3.8-33.1 4.4-10 .5-20.3 1.3-29.3 5.9-16 8.2-24.3 26.7-30.2 44.2-.9 2.2-1.6 4.5-2.4 6.7zM955.4 149.9c-4.4 14.1-6.1 29.4-13.9 42.2-7.2 11.8-18.7 21.2-32.2 24.3-8.1 1.8-18.4.3-22-7.2-1.5-3.1-1.5-6.8-1.4-10.3.2-9.8.9-19.7-1.6-29.1-4.3-16.4-18.9-29.5-35.7-32.1-9.3-1.4-20.1-.3-26.9-6.9-7.9-7.7-5.8-24-.1-32.4 7.4-10.8 25.9-17.3 37.9-20.6 14.9-4.1 30.5-5.3 46-5.6 12.9-.3 30.2-.9 41.4 6.9 21.6 15 14.7 50.6 8.5 70.8zM829.3 288.2c1.5 3.6 5.4 5.7 9.2 6.6 7.1 1.7 14.6.6 22 .9 7.3.3 15.4 2.7 19 9.1 1.6 2.8 2.2 6.1 2.1 9.4-.3 10.5-7.1 19.8-15.1 26.6-8 6.8-17.5 11.6-25.8 18-3 2.3-6.1 5.4-5.6 9.1.5 3.9 4.8 6.1 8.6 7.1 10.2 2.8 20.9 2.2 31.4 3.4 11.9 1.3 25.3 5.2 29.6 17.5 3.9 11.1-.4 23.2-3.6 34.5s-5 24.8 2.7 33.7c5 5.8 12.9 8.3 20.5 9.3 10.7 1.3 22.8-.3 29.9-8.4 4.9-5.6 7.3-14.7 6.4-22.1-1.1-8.9-6.3-16.8-6.8-26.3-.2-4.4.1-8.8 1.6-12.9 1.5-3.8 3.9-7.2 6.6-10.3 7-8.4 15.1-15.9 24.1-22.2 6.8-4.8 17.5-12.2 15.9-21.9-.9-5.4-5.7-9.4-10.8-11.1-5.2-1.7-10.7-1.6-16.2-1.7-9.3-.2-18.6-1.2-27.8-2.9-4.9-.9-10.5-2.8-11.9-7.5-1.3-4.7 2.4-9.2 5.9-12.6 8.4-8.1 17.6-15.4 27.3-21.9 3.7-2.5 7.8-5.2 9-9.5 1.3-4.6-1.4-9.5-5.2-12.4-3.8-2.8-8.6-3.9-13.3-4.8-31.1-6-62.2-2.5-93.8.7-9.3.9-16.1-.4-24.5 4.7-6 3.4-14.5 10.1-11.4 17.9zM526.3 201.5c7.5-15.3 3.1-26.9-13-31-13.3-3.4-23.8.7-36.4 4-13.1 3.4-25.6 8.1-37.3 14.8-3.5 2-6.9 4.2-9.1 7.6-2.2 3.4-2.6 8.1-.1 11.2 2.5 3 6.9 3.5 10.5 5 6.9 2.9 11.4 10.9 10.3 18.4-1.6 10.7-29.2 30.6-38 17.7-2.9-4.3-.8-10.4-3-15.1-2.7-5.8-10.8-6.8-17-5-14.9 4.2-25.6 20.8-34.6 32.5-10.9 14.1-20.4 29.3-28.5 45.2-2.1 4.2-4.2 8.7-4.5 13.9-.3 5.2 1.7 11.3 5.7 14.3 4.5 3.3 9.8 1.7 14.1-.5 15.4-8 50-51.6 68.5-31.8 4.1 4.4 5.7 10.5 7.2 16.4 1.8 7.4 3.7 14.8 5.5 22.2 1.1 4.3 2.2 8.8 5 12.4 4.6 5.8 13.2 7.7 20 4.8 6.8-2.9 11.4-10 11.8-17.3.2-3.7-.6-7.4-.4-11.1.2-3.7 1.7-7.7 5-9.4 8.4-4.2 18.4 17.3 26 20.7 5.1 2.2 11 4 16.1 1.7 4.9-2.2 7.6-7.6 8.4-12.9 2-14.3-8.9-19.1-16.9-28.4-7.8-9-12.1-21-11.9-32.9.7-27.1 25.5-44.8 36.6-67.4zM786.1 255.1c3.1-2.4 6.5-4.5 10.4-6.2 9.1-4.1 19.3-5.7 27.9-10.7 10.4-6 17.7-16.5 22.4-27.6 3.2-7.5 5.5-15.8 4.2-23.8-1.5-9.7-8.5-18.4-17.8-21.6-9.3-3.2-20.4-.5-26.9 6.8-3.5 4-5.6 9-8.6 13.5-4.3 6.5-11.3 12-19.1 11.8-5.8-.2-11.4-3.7-14-8.9-4.7-9.4 1.8-17.6 6.3-25.5 3.2-5.6 5.1-12.2 8.1-17.9 6.3-12.2 10.1-30.3.3-41.8-8.9-10.5-27-7.1-35.9 1.8-17.1 17.3-33.3 35.7-49.4 53.9-6.9 7.8-14 16.3-15.7 26.6-1.7 10.3 4.6 22.6 15 23.5 3.9.3 7.9-1 11.8 0 4.1 1 7.3 4.5 8.7 8.5 1.5 4 1.4 8.4.9 12.6-1.4 10.9-7.3 22.5-17.9 25.1-6.8 1.7-14.4-.6-20.8 2.3-8 3.6-10.7 13.6-10.8 22.4-.2 13.2 3.5 26.4 10.4 37.7.8 1.3 1.6 2.5 2.5 3.7 8.3 11.4 21 20.3 35 19.6 16-.8 29-13.6 37.1-27.5 11.4-19.8 17.7-44.2 35.9-58.3zM281.2 692.7c9.4-19.5 37.1-34.8 58.7-19.2 21.4 15.5 32.1 29.7 56.8 18.5 21.8-9.8 23.7-33.6 28.3-57.5 2.7-13.9 10.4-26 22.4-29.7 12-3.7 28.2 2.8 36.1 16.5 9.4 16.3 4.6 35.2-2.4 49.2-8.7 17.5-20.3 32.6-28.6 50.4-15 32.1-20.7 74.3-49 91.2-7 4.2-15.5 6.5-24.3 3.8-8.7-2.7-17.5-11.3-19.2-21.3-1.1-6.7.8-13.3-1.9-19.7-1.8-4.3-5.3-7.5-8.9-10.1-12.3-8.8-26.3-11.4-39.6-17s-27.5-16.4-31.3-31.6c-2-8.3-.3-16.7 2.9-23.5zM593 393.8c7.5-2.9 14.6-6.9 22.1-11.7 14.4-9.3 28.7-20.2 45.9-23.6 3.1-.6 6.2-.9 9.2-.1 7.8 2.2 11.5 12.1 9.3 19.9-2.7 9.5-11 14.4-17.4 20.9-7 7.2-14.2 14.6-18.5 23.8-3.7 8-8.6 15.7-9.5 24.5-.2 2.2-.2 4.4.6 6.5 1.4 3.7 5.1 6 8.9 7.1 5.6 1.6 11.6 1 17.4.4 5.8-.5 11.9-.8 17.3 1.4s9.9 7.7 9.1 13.5c-.7 5.2-5.3 8.9-9.6 11.9-10.5 7.1-21.8 12.9-33 18.7-7.8 4-16.3 8.1-25 6.9-8.1-1.1-15-6.9-19.3-13.8-4.3-7-6.2-15.1-7.6-23.2-.9-5.4-1.6-10.9-3.8-15.9-13.1-30.1-49-18.4-73.3-20.2-22.3-1.6-53.8-10.3-65.7-31-3.5-6.1-4.8-14.6.2-19.5 2.5-2.5 6.2-3.5 9.6-4.5 9.4-2.6 18.8-5.6 27-10.9 7.8-5 14.8-12.1 23.9-13.7 29-5.2 20.6 21.6 37 33.6 4.9 3.6 11.4 4.2 17.5 4.2 10.4-.1 19.3-2 27.7-5.2z"/><path class="st0" d="M777.8 384.4c11.3-13.5 26-24.2 35.6-39.1 3.7-5.7 8.8-13.7 4.1-20-3.8-5-13.9-7.4-19.7-6.9-7 .6-13.4 3.9-19.5 7.4-19.7 11.2-38.1 25-54.4 40.7-8.3 8-16.2 16.6-23.5 25.6-4.5 5.6-15 15.1-15.4 22.5-.2 5.5 4 10.3 9 12.6 5 2.3 10.6 2.5 16.1 2.9 8.5.5 17.2 1.3 25.1 4.5 7.9 3.2 15.1 9.1 18.1 17.1 4.7 12.9-2.7 27.1-11.9 37.2-9.3 10.1-20.8 18.4-27.3 30.5-1.2 2.2-2.2 4.6-2.2 7.1.1 7 8.2 11.1 15.1 12.2 9.7 1.5 19.6.6 29.2-1.5 33.3-7.5 61.7-29.3 85.4-53.8 8.6-8.9 16.9-18.5 21.6-29.9 4.7-11.4 5.4-25.2-.9-35.8-7.4-12.4-22.6-18.2-37.1-19-14.4-.8-28.8 2.3-43.2 3.1-1.9.1-3.8.2-5.5-.7-2.9-1.4-4-5.2-3.4-8.4.6-3.2 2.6-5.9 4.7-8.3zM547.9 259.1c-4.3 5.4-9.6 9.8-13.5 15.5-3.9 5.7-6.1 13.2-3.3 19.4 2.9 6.5 10.2 9.7 17.1 11.5 6.9 1.8 14.3 2.9 19.8 7.4 7.5 6.1 9.4 16.5 10.4 26 .3 2.9.6 6 2 8.6 2.3 4.4 7.4 6.7 12.3 7.5 8.7 1.3 17.7-1.6 25.1-6.3 7.5-4.7 13.6-11.2 19.6-17.7 3.5-3.8 7.1-7.9 8.2-13 1.2-5.4-.6-11-2-16.3-5.5-20.2-6.4-41.6-2.7-62.2 1.7-9.4 4.4-19.2 1.7-28.3-.5-1.7-1.2-3.3-2.6-4.4-1.2-.9-2.7-1.3-4.2-1.4-7.8-.5-14.7 5.5-22.4 6.6-10.5 1.5-19.4-5.6-27.9-10.6-11.8-6.9-15.7-4.5-20.6 7.8-6.6 16.7-5.2 35.1-17 49.9zM701.8 727.7c7 1.4 14.4 1.7 21.3-.4 6.8-2.1 13.1-7 15.8-13.6 2.7-6.6 1.2-15.1-4.3-19.6-5.4-4.4-13.2-4.7-18.6-9-6.2-5-7.5-14.3-5.2-22 2.3-7.7 7.3-14.1 12.1-20.5s9.5-13.3 10.8-21.1c1.5-9.3-1.8-18.6-5.7-27.1-2.6-5.6-5.5-11.1-8.8-16.3-5.4-8.4-11.9-16-20-21.8-5.7-4-12.3-7.2-19.2-6.9-6.9.2-14.1 4.5-15.9 11.1-2.6 9.3 5.2 18.2 6.1 27.8.9 9-5.2 18.1-13.7 20.8-14.2 4.5-28.3-10.4-38-18.8-8.4-7.3-21.2-13.3-30.1-6.7-6.4 4.8-7.5 14.3-5.3 22 3.4 11.8 12.2 21.5 14.2 33.8 2.1 13.1-7 23-19.4 25.3-13.3 2.4-27.3 4.5-38.1 12.5-15.7 11.8-20.6 34.7-14.1 53.2 6.5 18.5 22.6 32.6 40.8 40.1 19.8 8.2 69.5 20.2 77.6-10.5 3.5-13-6.7-24.8-10.2-36.5-1.5-4.9-4-11.6-2.4-16.7 2-6.4 9.3-11 15.9-10.4 9.2.8 20 12.2 26.4 18.2 7.4 7.4 17.4 10.9 28 13.1zM328.3 370.9c5.3-3.4 11.1-5.8 16.9-6.1 6-.3 12.7 3.4 13.7 9.3 1 5.6-3 10.6-6.5 15.1-3 3.9-5.9 8-7.3 12.7-1.4 4.7-1.1 10.1 1.9 14 3.9 5.2 11.5 6.4 17.8 4.7 6.3-1.7 11.6-5.8 16.8-9.6 5.2-3.9 10.7-7.8 17.1-9 3.5-.7 7.5-.3 9.8 2.4 1 1.2 1.4 2.6 1.8 4.1 1.3 5.6.5 11.7-2.2 16.8-2 3.7-5 6.9-7 10.6-2.1 3.7-3.2 8.4-1.3 12.1 1.9 3.7 6.4 5.5 10.6 5.7 4.2.1 8.3-1.1 12.4-1.9 8.7-1.8 17.7-1.8 26.4-.2 5.2.9 11 3.2 12.4 8.2 1.3 4.2-1.1 8.6-3.6 12.2-16.5 23.9-36.4 44.5-63.7 56-8.7 3.7-18.4 5.1-27.8 3.8-4.8-.7-9.7-2.1-13.5-5.2-3.8-3.1-6.3-8-5.4-12.8.6-3.1 2.5-5.9 4.3-8.5 3-4.4 5.8-9 6.7-14.2.9-5.2-.4-11.1-4.5-14.4-2.6-2.1-6-3-9.4-3.3-13.8-1.4-27.6 5.9-40.9-.9-8.6-4.4-15.6-12.1-18.8-21.2-3.7-10.8-2.3-23 2.2-33.5s11.8-19.7 19.8-27.9c6-6.3 13.2-13.8 21.3-19zM232.9 333.3c-2 2.1-4.4 4.1-6.6 6-8.8 7.4-17.6 15.2-22.4 25.6-1.4 2.9-2.4 6-2.4 9.3 0 7 5 13.4 11.4 16.4 6.4 2.9 13.8 2.7 20.6.9 8.1-2.2 15.5-6.6 21.3-12.7 8.9-9.5 13.3-22.2 18.8-34.1 3.7-7.9 7.9-15.5 12.7-22.7 4.5-6.9 10.7-13 16.1-19.3 5-5.9 10-12 13.9-18.7 3.4-5.9 4.4-11 5.6-17.4 1.7-9.5-1-23.3-12.2-25.3-5.8-1-11.8 1.9-15.9 6.1-4.1 4.2-6.8 9.7-9.4 15-2.5 5.2-4.9 11.9-10.1 14.9-5.4 3.2-12.2 4.3-18.3 3-6.2-1.3-11.9-5.1-15.7-10.2-6.1-8.1-4-20.5-12.5-27.5-3.8-3.1-9.2-3.8-13.9-2.5-8.7 2.4-12.3 10-15.5 17.8-3.4 8.3-5.3 17.2-5.3 26.1 0 3.4.2 6.8 1.4 9.9 1.7 4.8 5.5 8.7 10.1 10.9 4.6 2.2 9.9 2.7 14.9 1.7 2.9-.6 5.8-1.7 8.8-2 6.8-.7 10.4 3.8 11.2 10 .4 3 .5 6.1-.3 9-1.3 3.8-3.6 6.9-6.3 9.8z"/><path class="st0" d="M473.2 127.7c-.6-.9-1.3-1.7-2.2-2.3-3.5-2.6-8.3-2.3-12.7-1.6-7 1.1-14 2.9-20.7 5.3-7 2.6-14.6 5.9-21.5 3.2-2.4-.9-4.7-2.8-5-5.3-.4-2.7 1.6-5.2 3.6-7.1 7.5-7.4 16.2-13.3 24.7-19.4 7.4-5.2 14-11.7 16.7-20.7 2-6.7 1-14.8-4.1-19.6-6-5.7-15.6-5.4-23.6-3.1-9.6 2.8-18.6 8.2-24.3 16.4-5.8 8.4-7.5 18.8-10.8 28.4-2.3 6.6-5.5 13-10.4 17.9-4.9 4.9-11.7 8.3-18.7 7.9-11.7-.7-23.7-13.3-17.5-25 2.3-4.3 5.9-7.7 8.5-11.8s4.2-9.5 1.8-13.7c-2.5-4.5-8.3-6-13.4-5.7-6.6.4-12.9 2.9-18.5 6.3s-10.7 7.8-13.9 13.6c-3.2 5.7-4.2 12.9-1.7 18.9 2.2 5.2 6.6 9.1 9.9 13.7 1 1.3 1.7 2.8 2.3 4.3 4.6 13.2-8.9 25.7-19.4 31-6.6 3.3-13.2 4.6-20.4 6.2-8.8 1.9-17.5 5.1-25 10.2-17.1 11.5-24.4 30.9-17.4 50.5 3.3 9.3 11.6 17.4 21.4 17.7 6.2.1 12.3-3 16.4-7.6 6.3-7.2 7-17.4 11-25.9 2.9-6.3 7.8-11.6 13.7-15.2 3.6-2.1 7.7-3.6 12-3.6 4.2 0 8.5 1.6 11.3 4.8 7.3 8.5.8 22.8 7.2 32 3.3 4.8 9.5 6.9 15.3 6.8 6.2-.2 12.4-2.7 16.9-7 10.7-10.2 10.8-28 23.3-36.3 7.4-4.9 13.6-11.6 21-16.6 7.5-5 15.5-9.5 23.8-13.2 2-.9 4-1.7 6-2.5 7.1-2.8 14.4-5.2 21.3-8.5 6-2.9 11.9-5.8 14.3-12.6 1.2-3.6.9-7.8-1.2-10.8zM184.2 480.8c6.3-4.6 8.8-11.5 3.3-17.3-6-6.4-9.1-11.4-8.7-20.8.4-9.2 4.2-16.4 6.8-24.9 3.6-11.8 5-30.8-9-36.5-12.8-5.2-22-1.3-32.4 6-7.4 5.1-14.5 11.1-18.7 19-13 24.6-.9 67.6 25.7 78.2 10.7 4.2 23.7 3.2 33-3.7zM82.8 351.1c4.5 1.7 8.5 5 11.6 9 8.3 10.4 11.1 25.5 6.8 38.4-4.3 12.9-15.2 24.2-13.2 37.7 2.1 14.4 18.1 22.8 21.1 37 1.7 8.1-1.4 16.8-6.8 22.7-5.4 6-12.9 9.4-20.5 11.2-6.1 1.4-12.7 1.7-18.5-.9-5.8-2.6-10.5-8.5-10.5-15.2 0-8.1 6.7-14.7 8-22.7 1.8-11.7-8.4-21.8-19-25.8-9.9-3.7-23.1-3.4-31.8-9.7-6-4.2-11.1-14.1-7.6-21.1 2.4-4.9 7.9-7.9 13.4-8.5 5.5-.6 11 .8 16.2 2.6 1.8.6 3.7 1.4 5.7 1.3 2.8-.1 5.5-1.8 7-4.2 3.6-5.8 1.7-15.7 1.8-22.2-.2-18.9 17.4-36.8 36.3-29.6zM549.9 552.7c.8 5.8 1.5 11.6 2 17.4.5 6.3.8 13-2 18.7-2.7 5.5-8.2 9.5-14.3 10.5-6.1 1-12.5-1-17.1-5.1-6-5.4-8.4-13.6-10-21.4-1.5-7.7.8-15.4-3.8-22.3-3.5-5.2-10.6-7-16.2-4-8.2 4.4-14.7 11.4-22 17-8.1 6.1-17.9 11.1-28 9.9-2.4-.3-4.9-1-6.8-2.6-2.4-2-3.4-5.3-3.3-8.4.1-3.1 1.2-6.1 2.6-8.9 7.4-15.4 21.3-25.9 34-36.7 13.8-11.7 24.9-25.7 38.4-37.6 10.3-9 24.1-16.4 37.3-12.5 9.1 2.7 16.4 11 17.7 20.4 1.6 11-3.8 17.9-7.5 27.3-3.4 8.8-4.6 16.7-3 25.8.8 4.2 1.4 8.4 2 12.5zM138 99.8c-7.2-3.8-17.3-6.2-25.1-3-7.6 3.2-13.2 10.2-17 17.3-5.3 9.9-8.2 21.4-6.1 32.5 2.2 12.1 10.5 25.1 19.9 33 5.5 4.7 12.2 8.7 14.9 15.4 2.1 5.3 1.2 11.4-.4 16.9-1.3 4.8-3.1 9.4-5.3 13.9-2.7 5.6-6.1 10.9-8.2 16.8-2.6 7.7-1.4 14.1 1.7 21.3 8.4 19.6 32.6 30.8 53 24.5 2.4-.7 4.7-1.7 6.5-3.4 6.1-5.9 2.5-15.8.4-24.1-3.5-14.2-.4-29.8 8.2-41.6 4.8-6.6 11.1-11.9 17.6-16.9 5.5-4.2 11.7-9.6 10.8-16.4-.6-4.3-4.2-7.8-8.2-9.5-4-1.8-8.4-2.1-12.8-2.6-6.7-.8-13.5-2-19.6-5-15.3-7.6-16.6-24.4-16.8-39.6-.1-9.1-1.3-19.2-7.9-25.4-1.6-1.7-3.5-2.9-5.6-4.1zM22.1 78.3c2.8-3.4 5.6-6.8 7.6-10.6 1.7-3.2 4.5-7.8 3.1-11.5-1.7-4.6-6.7-1.7-9.5.2-3.9 2.6-9 3.6-13.7 2.5-1.5-.3-3-.9-4.1-2-.9-.9-1.5-2-1.8-3.2-1.3-4.5 0-9.4 1.8-13.8 4.6-11.3 12-21.7 22.2-29.2 2.4-1.8 5-3.5 8.1-3.9 3-.5 6.5.6 7.9 3.1 1.8 3.1.1 6.8-1.2 10.2-1.2 3.3-1.5 7.8 1.7 9.6 1.5.8 3.5.7 5.2.4 6-1.2 11.3-4.6 15.9-8.4 4.6-3.8 8.9-8.1 13.9-11.5 5-3.4 10.9-5.9 17.1-5.6 6.1.4 12.3 4.2 13.7 9.8 1.2 5.1-1.4 10.3-4.3 14.8-2 3.2-4.2 6.4-7.1 9-5.6 5-13.3 7.8-17.8 13.7-.6.8-1.2 1.7-1.3 2.7-.3 2.4 2.1 4.3 4.5 4.9 2.4.5 5 .1 7.5 0s5.3.4 6.8 2.3c2 2.4 1.1 5.8-.2 8.5-8.3 17.1-29.9 26.5-36 44.4-1.9 5.7-2.2 11.9-4.9 17.2-2.7 5.4-9.4 9.8-15.2 7.5-3.4-1.4-5.5-4.9-6-8.4s.5-7 1.7-10.3c2.6-7 6.7-13.4 11.1-19.6 1.1-1.6 2.3-3.2 2.4-5.1.2-4.3-5.5-6.9-9.9-5.9s-7.7 4.3-11.3 7c-3 2.3-6.4 4.2-9.9 5.8-1 .4-2.1.8-3.2.7-2.2-.3-3.4-2.7-3.7-4.7-1-7.6 4-14.6 8.9-20.6zM757.3 43.8c-1.3 8.2.4 17 5.7 23.4 9 11.1 25.7 12.5 39.4 8.7 13.7-3.8 25.8-11.9 39.1-17.1 12.3-4.9 25.5-7.2 38.7-8.4 6.8-.6 14.5-1.4 18.5-6.9 4.3-6 1.5-15.1-4.2-19.8-5.7-4.8-13.4-6.3-20.8-7.3-27.1-3.8-54.6-3.5-82-3.2-3.5 0-7.2.1-10.5 1.4-12.6 4.9-21.7 15.9-23.9 29.2zM948 13.4c-3.3.4-7.1 1.3-8.2 4.4-1.4 3.9 2.7 7.3 5.7 10.2 2 2 3.7 4.3 4.9 6.8.8 1.7 1.5 3.7.7 5.4-.8 1.8-2.9 2.5-4.8 3.1-4.5 1.4-8.9 2.8-13.4 4.2-1.4.4-2.8.9-3.8 2s-1.2 2.8-.9 4.2c1.2 5.7 8.1 7.7 13.9 8.3 14.2 1.5 29.2 1.2 42 7.6 7.8 3.9 14.4 10 22.4 13.6 8.8 4 29.9 7.5 34.3-4.8 2.2-6.3-2.1-16.8-4.4-22.6-3.4-8.5-8.4-16.3-14.7-22.9-9.5-10-21.6-16.8-34.9-20.4-12.6-3.6-26-.8-38.8.9zM996.1 899.3c-.7.9-1.6 1.6-2.7 2-2.8 1-6.1.1-8.5 1.9-3.2 2.3-2.6 8 .2 11 2.8 2.9 6.8 3.8 10.6 4.4 29.2 4.5 63.4 8.5 86.8-14.7 3.7-3.7 7-7.9 8.8-13 1.4-4.1 1.7-8.6 1.8-13 .1-7.8-1-16.4-6.3-21.7-5.5-5.4-14-5.3-20.7-2.3-6.7 3-12.2 8.5-17.9 13.5-5.7 5-12.1 9.6-19.3 10.4-9.4 1.1-16.8-4.8-25.4-7.3-4.2-1.2-8.6-2.5-12.7-1-4.1 1.4-7.4 6.6-5.5 10.9 2.1 4.7 8.4 5 11.4 9.1 1.9 2.7 1.5 7.1-.6 9.8zM127.7 66.8c.1 4.3.6 8.8 2.3 12.4 1.8 3.6 5.1 6 8.1 4.7 1.9-.8 3.3-2.9 4.6-4.8 5.5-7.9 11.6-15.4 19.2-18.5 8.5-3.5 17.6-.9 26.4-1.8 8.8-.9 18.8-7.4 19.9-19.4.3-3.2-.1-6.6-1.4-9.2-.9-1.8-2.1-3.2-3.4-4.6-13-14-35.2-29.2-52.4-22.4-16.2 6.5-23.9 43.5-23.3 63.6z"/><path class="st0" d="M372.7 64.3c1.4 1.6 3.2 3 5.2 3.7 5.7 1.9 11.8-2 16.4-6.1 6.2-5.4 11.8-11.5 16.7-18.1 2.8-3.8 5.4-7.8 6.7-12.3 1.3-4.5 1.2-9.5-1.3-13.4-4.4-7-14.8-7.8-22.3-4-14.6 7.4-35.3 34.6-21.4 50.2zM528.8 26.1c-2.3 2.6-4.8 5.1-8.2 6.8-4.7 2.5-10.6 3.3-15.3.7-4.6-2.5-7-7.7-8.8-12.6-2-5.4-3.7-11.1-8.7-14.4-5-3.4-11-4.5-16.9-3-5.9 1.5-11 5.3-14.6 10.3-2 2.8-3.6 6-4.2 9.4C450.2 34 458 44.1 466 50.2c8.7 6.6 18.5 11 21.7 22.2 2.7 9.4 1.8 19.4.5 29-1.1 7.8-2.4 15.9.2 23.3 1.9 5.4 5.9 10.1 11 12.8 5.1 2.7 11.2 3.4 16.8 1.9 5.2-1.4 10-4.8 12-9.8 1-2.5 1.2-5.3 1.2-8 0-10-3.3-19.8-4.9-29.7-1.9-11.8-.3-22.9 7.9-31.9 7.4-8.2 16.5-14.5 25.8-20.3 4.3-2.7 8.7-5.3 11.8-9.3 3.1-4 4.7-9.6 2.5-14.1-1.8-3.6-5.5-5.8-9.4-6.8-7.6-2-15.8.1-22.4 4.4-5.1 3.2-8.1 8-11.9 12.2zM996.3 291.9c-4.8 5.8-5.9 14.8-1.6 20.9 2.5 3.5 6.5 5.7 10.6 7.2 5.2 1.8 10.8 2.5 16.3 2.1 2.5-.2 5-.6 7-2.1 2.1-1.4 3.4-3.7 4.6-5.9 1.8-3.2 3.5-6.4 4.2-10 .7-3.6.2-7.5-2-10.4-1.3-1.7-3.1-2.8-4.9-4-11.2-7.1-24.5-9.5-34.2 2.2zM148.4 759.9c-10.1 9-21.3 20.8-25.6 33.8-3.4 10.3-8.5 22.5-22.9 16-1.8-.8-3.6-2-4.8-3.7-5.7-7.7 2.1-20.4-4.2-27.6-1.6-1.8-3.9-2.9-6.2-3.7-9.3-3-20.8-2-30.1.5-14.8 3.9-50.5 23.7-40.7 44.6 5.8 12.4 23.9 11.1 35.2 13.1 5.9 1.1 12.8 4 13.6 10 .5 3.4-1.3 6.8-3.8 9.1s-5.7 3.8-8.7 5.3c-14.6 6.9-29.8 15.3-37 29.8-2.7 5.3-4.1 11.7-2.1 17.3 1.7 5 6 8.8 10.7 11.1 4.8 2.3 10.1 3.1 15.4 3.5 8.8.6 17.9.1 26.2-2.9s15.9-8.7 20-16.6c4.7-9 5-21.1 13.4-26.9 4.7-3.3 10.9-3.6 16.5-2.6 9.7 1.8 18.6 7.5 24.4 15.5 6.5 9.1 11.7 14.2 22.1 18.9 10.6 4.8 22.7 7.8 34.1 4.4 13.8-4.1 24.1-21.1 16.9-33.6-5.3-9.1-16.8-12-26.9-15-10.1-3.1-21.3-8.9-22.7-19.4-1-7.6 3.7-14.7 8.7-20.5 10.6-12.3 23.3-22.6 36.8-31.7 5.8-3.9 11.8-7.6 16.5-12.8 4.7-5.2 7.9-12.2 6.8-19-2-12.5-16.7-18.7-29.4-18.7-19.3-.1-37.8 8.9-52.2 21.8zM1203 243.6c11.4-8.7 17.1-25.3-.1-32.3-5.4-2.2-11.4-2.4-17.2-2.4-26.4-.1-53.8 7.6-76.9 20.7-24.1 13.7-61.3 48.7-41.9 78.6 4.9 7.6 12.4 13.3 20.6 17.1 4.8 2.2 10 3.8 15.3 3.2 4.9-.5 9.5-2.8 13.8-5.2 7.7-4.3 14.8-10.9 23.3-13.3 3.4-.9 7.1-.9 10.6.1 1.7.5 3.4 1.4 4.1 3 .3.7.3 1.5.4 2.3.4 6.7-5.4 8.9-6.1 15.6-.2 2.1 0 4.4.9 6.3 1.6 3.2 4.9 5.2 8.3 6.3 7.4 2.3 15.6.9 22.6-2.5 9.5-4.5 23.5-14.3 26.5-24.8 6.7-23.6-24.6-20.1-26.4-40.6-.6-6.5 1.9-12.9 5.8-18.1 3.9-5.2 9.1-9.2 14.5-12.8.7-.3 1.3-.7 1.9-1.2zM1171.7 165.9c-.8 5.9.1 12.7 4.8 16.4 3.9 3.1 9.6 3.1 14.3 1.3 4.7-1.8 8.5-5.1 12.3-8.4 6.4-5.6 13.2-12.1 13.8-20.5.3-3.9-.9-7.9-2.6-11.4-2.6-5.2-7.5-10-13.2-9.3-15.1 1.8-27.4 17.9-29.4 31.9zM1081.7 52.3c-2.5 2.6-4.8 5.6-6.1 9-1.4 3.9-1.2 8.5 1.3 11.7 2.8 3.5 7.7 4.5 12.1 4.3 13.1-.4 24.6-8.6 37.1-12.6 9.6-3.1 19.9-3.7 30-3.6 8.6.1 15.9 6.4 19.6 13.8 3.3 6.8 3.7 15 8.4 20.9 5.9 7.5 16.6 8.7 26.1 9.4 4.3.3 9.4.2 11.9-3.3 1.2-1.7 1.4-4 1.6-6.1.9-14.2-1.7-28.6 1.3-42.5 2.6-12 9.4-23.2 9.3-35.5 0-2.4-.4-4.9-1.6-7-1.1-1.8-2.9-3.2-4.8-4.3-12.5-7.5-29.6-6.2-40.8 3-5.1 4.2-9.4 9.9-15.8 11.3-9 1.9-16.9-5.6-24.6-10.7-7.8-5.1-21.9-10.9-31.4-7.8-6.2 2.1-9.9 8.6-8.4 15 .8 3.2 2.2 6.3 1.8 9.6-.7 5.6-6.2 9-10.9 12.1-5.4 3.5-10.4 7.7-15 12.2-.4.5-.7.8-1.1 1.1zM1040.9 19.7c.2 7.1 4.8 13.8 11.1 17.2 6.3 3.4 13.9 3.8 20.8 1.9 3.6-1 7.2-2.7 9.1-5.8 1.2-2.1 1.6-4.6 1.8-7 .6-5.8-.4-10.3-6-13-4.8-2.3-10.4-4.5-15.5-6.1-9.6-3-21.6 1.4-21.3 12.8zM213.6 437.7c-1.5 4.6-2.5 9.4-2.8 13.9-.3 3.8 0 8 2.4 10.9 3.3 3.9 9.2 4.3 14.2 3.5 5.8-.9 11.4-2.9 16.5-5.7 9-4.9 16.8-13 18.7-23.1 1.9-10.1-3.9-21.7-13.8-24.1-18.2-4.3-30.1 9.3-35.2 24.6zM31.3 276.2c-.3 6.8-2.4 13.6-4.6 20.7-2.6 8.4-4.3 17.8-.1 25.5 1.6 3 4.1 5.6 6.9 7.8 9.3 7.2 22.8 9.8 33.9 5.2 11.1-4.6 18.7-17 16-28.2-1.1-4.5-3.6-8.5-5.9-12.5-4.1-7.3-7.7-15.1-8.2-23.4-.4-7.7 1.9-15.3 5.5-22.1 2.7-5.1 5.9-10 8.2-15.3 2.1-4.7 2.5-10.5 2.9-15.6.9-11.7-1.3-23.4-5.6-34.3-.8-2.1-1.7-4.1-2.7-6.1-2.3-4.8-5.9-9.3-11.1-11.1-4.8-1.7-10.8-.8-14.5 2.8-3.2 3.2-5.1 7.7-5 12.1 0 4.4 1.9 8.8 5.2 11.9 1.7 1.6 3.8 2.9 5.5 4.6 4.2 4.2 3.9 11.7 0 16.1-3.5 4-9.7 5.1-14.9 3.9-3.5-.8-7-2.6-8.6-5.7-1.6-3-1-6.6-.5-10 2-11.6 5.5-23.9 3.3-35.6-.4-2.4-1.2-4.9-2.6-7-2.3-3.4-6.4-5.9-10.5-4-3.1 1.4-5.4 4.1-7.1 6.8-3.6 5.7-5.5 12.3-7 18.7C7.5 191.5 5.7 201.7 6 212c.3 10.3 2.6 20.6 8.1 29.4 3.7 6 8.8 11.2 12.6 17.1 3.7 6 4.8 11.8 4.6 17.7zM20.2 723.7c-9.6-2-13.3-15.3-10.9-23.7 1.8-6.4 5.2-12.1 7-18.5 1.5-5.3 2-10.9.7-16.2-1.7-6.4-5.9-11.8-7.8-18.1-2.7-9.2-.1-23.8 7.7-30.3 9.2-7.6 23.7-10.1 34.6-5.5 10.3 4.3 17.9 14.5 19.2 25.7.7 6.4-.4 12.9.5 19.3 1.3 8.6 6.7 12.1 13.9 15.3 8 3.6 16.1 3 24.5 2.7 8.1-.3 16.4 1.7 23.5 5.6 5.2 2.8 9.9 6.6 12.7 11.8 2.8 5.2 3.4 11.7.6 16.9-3.4 6.4-10.9 9.2-17.7 11.6-4.7 1.6-9.4 3.3-14.1 4.9-5.7 2-11.6 4-15.5 8.9-3 3.8-4.8 8.4-6.9 12.7-2.1 4.3-4.8 8.7-8.9 11.1-4.6 2.7-10.8 2.6-15.3-.3-5.7-3.7-8.1-10.8-10.6-17.2-5.4-13.6-15.8-17.9-30-16.7-2.3.2-4.8.5-7.2 0zM1147.4 794.7c4.8 4.3 9.5 8.8 12.5 14.4 7.1 13.1.8 25-11.1 32-9.5 5.6-20.7 7.7-30.8 12.2-5.9 2.6-12.3 7.8-11.1 14.2.4 2.1 1.7 4 3.2 5.6 5.8 6 14.9 7.3 23.2 7.5 8.4.3 17.1 0 24.5 3.9 12 6.5 16.3 21.9 26.8 30.5 7 5.7 16.6 8 25.5 6 4.5-1 9-3.2 11.7-6.9 3.3-4.4 3.8-10.3 2.7-15.7-1.1-5.4-3.7-10.3-6.2-15.1-7.8-15.1-15.7-31.4-14.1-48.3 1.4-14.3 9.3-27 14.2-40.5 3.9-10.7 5.9-22.1 5.9-33.5 0-15.7-9-30.1-20.5-40.4-15.6-14-42-12.8-58.9-.8-10.8 7.7-18.2 20.1-19.7 33.2-.8 7.2 0 14.7 3.3 21.2 3.5 7 9.6 12.4 15.6 17.5 1.1 1.1 2.3 2 3.3 3z"/><path class="st0" d="M606.4 152.1c2.5-11.8 15.3-20.4 15.5-32.7 0-2.9-.6-5.8-2.2-8.3-1.6-2.4-4.1-4.3-6.9-4.9-6.1-1.1-11.4 3.6-16.8 5.7-5.2 2-9.8 4.6-15.5 5.3-11.3 1.4-23.3-2.5-31.4-10.6-2.4-2.4-4.5-5.2-5.7-8.4-4-11.3.3-25.1 7.9-33.9 7.4-8.5 18.7-13.5 30-13.3 3.4.1 6.8.6 10.2.5 5.1-.1 10-1.7 14.5-4.1 3-1.6 5.9-3.7 8-6.4 4.9-6.2 5-14 7.3-21.2 2.2-6.9 8.5-12.9 14.8-15.9 7.3-3.5 16.1-3.9 23.6-1 3.9 1.5 7.6 4 9.9 7.5 1.3 2 2.1 4.2 2.5 6.5 1.2 6.7-1 13.5-3.6 19.8-2.8 6.7-6.2 13.2-10 19.4-2.9 4.8-6.3 10.2-4.7 15.6.7 2.3 2.3 4.2 4.1 5.7 4.8 4 11.7 5.4 17.7 3.4 10-3.2 19.3-17 31.1-12.4 4.1 1.6 6.9 5.6 8.3 9.7 2.7 7.9.9 17-4.4 23.4-7.7 9.3-21 11.6-30.7 18.8-8.7 6.5-14 16.6-18.9 26.3s-10.3 19.8-19.1 26.1c-8.8 6.4-22.3 7.8-30.1.2-5.5-5.1-7-13.4-5.4-20.8z"/><path class="st0" d="M555.7 179.9c5.8.5 12.9-4 16.2-8.6 2.1-2.9 4.1-5.7 6.6-8.3 2.5-2.6 5.3-5 7.2-8.1 1.9-3 2.9-7 1.5-10.3-1.3-3.1-4.5-5-7.7-5.7-3.3-.7-6.6-.2-9.9.5-7.9 1.7-16 4.9-21 11.3-2.6 3.3-4.1 7.3-4.9 11.4-.5 2.5-.7 5.2-.1 7.7 1.4 5.5 6.5 9.7 12.1 10.1zM694.3 30c-1.8 2.3-3.6 4.8-3.8 7.7-.3 4.3 3 8.2 6.9 9.8 4 1.6 8.4 1.4 12.7.8 5.4-.8 10.9-2.2 15.6-5 4.7-2.9 8.6-7.3 9.8-12.7 2-8.7-3.4-14.3-10.7-17.6-7.5-3.4-14.3 1.3-20.1 6.1-3.9 3.2-7.3 7-10.4 10.9zM183.5 329.5c-2.4-3.5-5.4-6.4-8.7-8.9-17.7-13.1-42.4-11-58.7 3.3-2.4 2.1-4.7 4.6-5.6 7.7-1.3 4.4.3 9.3 3.3 12.8s7.2 5.7 11.4 7.5c13.5 5.7 28.6 7.2 43 4.5 4.2-.8 8.5-2 12.1-4.4 3.6-2.4 6.4-6.2 7-10.4.4-4.3-1.4-8.6-3.8-12.1zM13 514.4c1.5-3.9 3.5-7.8 6.6-10.6s7.4-4.7 11.6-4c3.1.5 5.9 2.3 8.2 4.5 6 6 8.2 14.5 10.7 22.6 2.5 8 6 16.5 13.3 20.8 9.9 5.8 23.1 1.4 31.8-6.1s14.7-17.7 22.9-25.8c3.1-3.1 6.7-6 10.9-7.4 4.2-1.4 9.2-1.1 12.7 1.7 4 3.2 5.1 8.8 4.5 13.9-.6 5-2.7 9.8-4 14.7-2.5 9.3-2.1 20.1 4.1 27.5 5.7 7 15.1 9.7 23.4 13.4 8.3 3.7 16.9 10 17.4 19.1.2 3.3-.8 6.6-1.8 9.7-3.4 9.8-8.3 19.3-16.1 26.1-6.9 6-15.6 9.5-24.4 12-7.9 2.2-16.4 3.5-24.2.9-7.8-2.5-14.5-9.9-13.8-18 .6-7.9 7.4-13.6 12.4-19.8 3.7-4.7 6.7-10.2 6.9-16.2.2-5.4-2.3-10.8-6.8-13.8-4.8-3.2-12.1 1.4-16.2 4.5-5.2 3.9-8.8 9.6-13 14.5-4.2 4.9-9.8 9.4-16.3 9.7-7.9.3-15.2-6.4-16.3-14.2-.6-4.1.3-8.2.1-12.3-.2-4.1-1.7-8.6-5.4-10.4-3.2-1.6-7.3-.7-10.2 1.4-2.9 2.1-4.9 5.2-6.8 8.3-2.1 3.6-4.8 9.2-9 10.6-1.9.6-4 .6-6 .2-3.8-.8-7.2-3-9.4-6.1-3-4.2-3.7-9.7-4-14.9-1.3-19-.7-38.8 6.2-56.5zM843.1 532.9c-1 .7-2 1.5-3 2.2-23.9 18-45.1 39.6-62.7 63.7-14.2 19.4-26.5 42.7-22.6 66.5.9 5.8 3 11.7 7.2 15.9 4.9 4.9 12.3 6.9 19.2 6.6 23.2-1.1 23.4-17.9 34.3-34.2 4.3-6.4 12.4-11.7 19.4-8.5 6.8 3.1 8.1 12 12.3 18.1 3.9 5.8 10.9 9.4 17.9 9.2 7-.2 13.7-4.2 17.3-10.2 2.4-4.1 3.4-8.8 4.3-13.5 1.7-8.7 3.4-17.5 5.1-26.2.9-4.3 1.7-8.8 4-12.6 2.3-3.8 6.3-6.9 10.7-6.8 4.2.1 7.9 2.9 10.7 6.1 6 6.8 9.6 15.7 16.9 21 12.1 8.7 29.6 4 41.3-5.3 3-2.4 5.9-5.1 7.6-8.5 2.6-5 2.6-10.9 2.1-16.5-2.3-24.7-13.8-48-30.1-66.7-13.9-15.9-31.7-28.3-53.6-26-21.5 2.3-41.1 13.1-58.3 25.7zM633.7 869.1c.5-3 1.1-6 1.8-9 7.7-33.8 22.1-69.3 45.1-95.8 5.3-6.1 11.7-12 19.7-13.7 8-1.6 17.7 2.7 19.1 10.7 1.3 7.2-4.2 13.7-8.5 19.7s-7.4 14.8-2.3 20.1c4.6 4.8 12.9 3 18.4-.9 7.4-5.2 12.2-13.2 16.9-20.9 7.4-12.1 15.2-24.1 25.1-34.2 10-10.1 22.4-18.3 36.4-21 14-2.7 29.5.6 39.7 10.5 11.2 11 14.2 28.6 9.8 43.7-4.5 15-15.6 27.5-28.6 36.2-13 8.8-28 14.3-43 19-9.1 2.8-17.9 6.2-27.2 8.4-9.2 2.1-18.7 5-26 11.1-3.3 2.8-6.2 6.5-6.2 10.7-.1 6.4 6.1 11.1 11.9 13.8 5.8 2.8 12.5 5.2 15.6 10.9 2.6 4.9 1.7 11.1-1.3 15.7-6.3 9.7-18.8 12.8-29.4 14.8-12.1 2.3-24.4 2.6-36.6 1.7-12.3-.9-24.8-3.1-35.4-9.4-10-6-14.9-17.3-15.5-28.6-.6-4.4-.2-9 .5-13.5zM1149.6 684.7c3.1 3.5 7.9 5.1 12.4 6.2 12.9 3.1 26.3 3.5 39.6 3.8 3.1.1 6.2.1 9.2-.7 7-2 11.6-9.1 12.5-16.3 1.3-10.7-4.8-21.5-13.9-27.2-9.1-5.7-20.8-6.5-31.1-3.7-11.8 3.3-43.3 21.7-28.7 37.9zM1027.4 572.1c3.5-15.2-12.6-27.8-23.7-34.4-6.3-3.7-13-6.9-18.3-12-8.3-7.9-11.6-20.4-9.2-31.5 4.6-21.3 29.1-24.6 38.5-42.1 2.1-4 2.7-9.1 1.2-13.4-1.8-5-5.3-5.5-9-8.6-7.4-6.2-6.4-17.5-2.5-25.4 9-18.6 28.9-29.2 48.2-36.4 17.3-6.5 36.1-11.2 54.2-7.2 6.1 1.4 12.1 3.8 16.6 8.1 4.5 4.3 7.4 10.6 6.4 16.8-.9 5.7-4.8 10.4-8.7 14.5-11.5 12.2-24.6 22.6-36.7 34.1-10.7 10.3-31.7 29.6-28.3 46.2.6 2.9 2.1 5.5 3.6 8 5.7 8.9 12.8 16.7 18.7 25.5 5.8 8.8 10.4 19 9.7 29.5-.6 9.8-5.5 18.7-10.6 27-6.6 10.8-13.7 21.4-22.2 30.8-5.8 6.3-12.6 12.3-21 13.9-8.4 1.6-18.4-3-20.2-11.3-2.6-11.6 10.7-20.6 13.3-32.1z"/><path class="st0" d="M1113 560.7c1.3-7.9 1.2-16.1-.5-24-3.2-14.5-11.3-27.4-16.2-41.4-2.6-7.4-4.3-15.4-2.7-23.1 1.6-7.7 7.3-14.9 15-16.5 5.8-1.2 12 1 16.4 5.1 10.5 9.7 8.8 25.2 8.1 38-.4 7.5-.3 19.3 6.9 23.9 3.7 2.4 8.8 2.3 12.4-.2 3.6-2.5 5.4-7 5.9-11.4.4-4.4-.3-8.8-.7-13.2-1.1-11-.2-22.4 4.3-32.5 7.8-17.5 30.6-31.9 47.8-17.2 5.9 5.1 9.2 12.7 10.2 20.5 1 7.7-.2 15.6-1.9 23.2-1.4 6.3-3.3 12.5-6.4 18.2-9.3 16.8-28.6 26.7-36.3 44.3-1.4 3.2-2.3 7-.6 10 1.2 2.1 3.3 3.4 5.4 4.4 4.6 2.3 9.6 3.8 14.7 4.7 7.2 1.2 15.3 1.1 20.7 6.1 6.1 5.7 5.4 16.3-.1 22.6-5.5 6.3-14.4 8.6-22.7 8-6.7-.5-13.7-2.6-20.4-2.5-6.7.1-11.7 4.7-16.7 8.8-8.8 7.2-18.2 13.8-28.1 19.5-4.6 2.7-9.5 5.2-14.8 6.2-5.3.9-11.1 0-15.2-3.5-3.7-3.3-5.4-8.3-6.1-13.1-1.1-7.5-.2-15.2 2.5-22.2 3.4-8.9 9.5-16.4 13.7-24.9 2.5-5.8 4.4-11.7 5.4-17.8zM1202 402.8c5.4-3.3 8.9-9.3 9.7-15.6.8-6.3-1-12.8-4.3-18.2-4.7-7.5-12.9-13.2-21.8-12.9-6.4.2-12.3 3.4-17.5 7.1-13.2 9.5-23.3 23.3-28.4 38.7-1.8 5.3-3 11.1-1.8 16.6 1.4 6.7 6.8 12.3 13.9 12.3 5.9 0 7.9-3.6 11.1-8 4.3-6 9.6-10.4 16.5-13.2 7.2-2.9 15.8-2.7 22.6-6.8zM898.6 709.4c2.3-8.3 5.6-16.6 12-22.4 6.3-5.8 16.2-8.4 23.7-4.2 7.6 4.2 10.5 13.8 10.8 22.4.8 20.3-8 42.2 1.8 60 8.3 14.9 26.5 20.6 42.9 25.3 12.5 3.6 25.2 11.6 33.8 21.4 4.2 4.9 7.9 10.8 7.8 17.3 0 8.5-6.5 16-14.3 19.3-7.8 3.3-16.7 3.1-25.1 1.8-8.5-1.3-16.9-3.8-24.7-7.6-6.6-3.3-12.8-10.8-20.1-11.6-6.4-.7-12.6 1.9-18.3 4.9-12 6.4-22.7 15.3-35.7 19.2-13 3.9-29.7.8-35.5-11.4-4.8-10.2-.3-22.5 6.9-31.2 11.8-14.3 29-21.5 31.2-41.7 1.1-10.1-.7-18.8-1.8-28.5-.9-10.5 1.8-22.8 4.6-33zM1053.1 776.4c-2.2 3.8-4 7.9-4.5 12.2-1 7.5 1.8 15.1 6.7 20.9 4.8 5.8 11.6 9.7 18.7 12.2 13.2 4.6 29.5 3.6 38.8-6.8 6.5-7.2 8.3-18.1 5.4-27.3-2.9-9.3-10.1-16.9-18.8-21.2-16.9-8.5-36.1-7.7-46.3 10z"/><path class="st0" d="M782.6 884.5c-4.1-10.8-2.2-24.2 6.5-31.8 6-5.2 14.7-7.2 22.3-5 17.3 5 24 27.3 40.4 34.6 9.2 4.1 20 2.8 29.3-.9 9.4-3.7 17.7-9.5 26.3-14.6 9.6-5.7 22.2-10.5 31.5-4.3 8.2 5.4 9.7 17.6 5.6 26.5-4.1 8.9-12.6 15.1-21.2 19.8-25.2 13.6-53.8 16.3-81.8 11.5-21.9-3.7-50.2-13.1-58.9-35.8zM237.9 812.3c7.6-10.7 17.2-20 28.6-26.4 6.8-3.8 14.5-6.5 22.3-6 16.8 1.2 27.2 20.6 29 35.6.8 6.3.3 12.6 1.2 18.9.9 6.2 3.5 12.7 8.9 16.1 6.3 4 19.4 5.2 26.9 5.8 11.4 1 21.2-7.9 33-3.6 9.6 3.5 15.1 14.6 14.3 24.8-.9 10.2-7.1 19.4-14.9 26-11.3 9.6-25.8 14.7-40.5 16.7-14.6 2-29.5 1.2-44.3.2-11.9-.8-24.4-1.9-34.5-8.2-2.7-1.7-5.3-3.8-6.5-6.8-3-7 2.4-14.5 7.4-20.1 19.4-21.9-3.7-30.5-23.3-33.6-20.9-3.3-17.4-25.6-7.6-39.4zM238 637.3c-12.1.2-23.1 5.7-33.3 11.9-11.9 7.3-24.2 28.6-21.8 40.2.8 3.6 2.3 7.1 4.4 10.2 7.8 12 22.8 18.8 36.9 16.8 5.9-.8 11.6-3.1 15.9-7.3 1.3-1.2 2.4-2.7 2.9-4.4.4-1.4.3-2.9 0-4.4-.7-3.8-2.5-7.4-3.3-11.3-.8-3.8-.4-8.3 2.4-11 1.6-1.5 3.8-2.3 5.9-3 4.2-1.5 8.5-2.9 12.7-4.4 3.1-1.1 6.3-2.2 9-4.1 2.7-1.9 4.8-4.9 5.1-8.2.3-4.6-3.1-8.6-6.7-11.4-8.5-6.6-19.4-9.8-30.1-9.6zM619 824.4c-11.9-20-35.7-22.9-55.6-24.2-13.6-.9-27.1-.2-40.7 0-4 0-8.2-.1-11.5-2.5-6.1-4.5-5.8-14-5.3-21.8.5-7.9.4-16-2.3-23.4-3.5-9.5-9.5-13.1-15.8-12.7-6.1.4-12.4 4.7-17.2 11.2-28.6 39.5-25.8 89.4-26.6 137.2-.1 4.2-.1 8.6 1.3 12.5 3.2 9.3 13.9 14.1 22.9 12 6-1.4 11.1-5.2 15.1-10 6.2-7.4 6.5-17.7 11.1-26.2 1.7-3.3 4.2-6.6 7.7-6.9 2.9-.2 5.5 1.9 7.1 4.5 1.5 2.6 2.1 5.7 2.7 8.7 1.6 8.3 1.7 20.6 7.3 27 5.5 6.3 13 10.8 21.1 10.7 21.3-.1 24.9-25.6 19.5-43.3-1.3-4.1-3-8.1-4-12.2-1-4.2-1-8.9 1.1-12.5 2.8-4.9 8.8-6.7 14.2-6.2 5.4.5 10.5 3 15.7 4.8 7.5 2.6 15.7 3.9 23.1 1.1 7.3-2.8 13.3-10.6 12.4-19-.2-2.9-1.6-6-3.3-8.8zM203.2 147.6c-7.1-3-13.1-7.9-18.9-13.2-5.6-5.1-10.3-11.3-13.7-18.2-2.2-4.4-3.8-7.5-2.8-12.7.8-4.3 3.1-8.5 6.9-10.4 3.6-1.9 8-1.5 11.9-.3 3.9 1.3 7.4 3.4 11.2 5 4.9 2.2 10.4 3.6 15.5 2.2 6.9-1.9 11.9-8.8 13.8-16.1 1.9-7.3 1.3-15 .5-22.5s-1.8-15.1-.6-22.6c2.3-14 13-26 26-29.4 4-1 8.8-1.1 11.5 2.1 3.5 4.1 1.6 10.5-.7 15.4-1.6 3.4-3.2 6.7-5 9.9-2.5 4.6-5.1 10.5-2.3 14.8 1.2 1.8 3 2.9 5 3.4 8 2.2 15.7-4.1 21.2-10.6s10.9-14.2 19-16c1.6-.4 3.3-.5 4.8.1 1.9.7 3.4 2.4 4.3 4.3 2.7 6.1-.8 13.1-4.7 18.4-5.6 7.6-12.3 14.3-17.4 22.3-5.1 8-8.6 17.8-6.7 27.2 1.7 8.8 8 16.8 6.6 25.7-1.2 7.8-8.1 13.1-14.9 16.5-12.2 6-25.9 8.2-39.4 8.8-10.6.4-21.3 0-31.1-4.1zM326 22.1c-.6 2.4-.7 5 .5 7.1.7 1.4 1.9 2.5 3.2 3.3 4.6 3.1 11.2 3 15.7-.4s6.3-9.8 4.1-15c-2-4.8-8.2-8.4-13.5-7.4-5.1 1.1-8.9 8-10 12.4zM584.2 555.7c1.8 2 4.2 3.3 6.8 4.1 4.3 1.5 8.8 1.9 13.3 2 10.9.3 24.1-2.3 26.6-14.8 1.7-8.5-2.6-15.5-10.7-18.2-12.9-4.3-52.3 8.4-36 26.9zM376 366.9c.3 5 2.1 10.5 6.6 12.5 3.1 1.4 6.9.7 9.8-1.1 2.9-1.8 5.1-4.5 7.1-7.3 3.3-4.9 6-10.3 6.9-16.2.8-5.9-.4-12.2-4.1-16.7-17.9-21.6-27 16.5-26.3 28.8zM534.7 659.2c4.5-1 9.3-2.9 11.8-6.8 3-4.7 1.8-11.3-1.9-15.5-7.3-8.4-28.5-10.9-32.7 2.1-4.8 14.8 10.4 22.9 22.8 20.2zM376.4 574.8c-14.5-8.6-31.7-10.2-46.2-18.1-10.7-5.8-19.1-21.1-24.2-31.8-4.4-9.2-5.9-16.2-14-23.3-13.8-12.1-33.4-17.6-51.4-13.9-25 5.1-46.3 26-47.6 52-.9 18.2 8.1 41 21 53.8 7.4 7.4 17.5 12.7 27.9 12.1 12-.6 24.2-10.8 22.4-23.7-1.2-8.7-7.9-12.6-15.1-16.2-5.4-2.7-12.2-4.5-12.1-11.6.1-17.1 21.9-10.6 29.3-3.8 7.8 7.2 16.1 17.5 20 27.5 4.5 11.2 6.2 23 12.1 33.9 5.6 10.3 13.9 19.6 24.6 24.4 9.9 4.3 21.1 4.5 31.7 2.7 11.6-2 23-6.7 30.9-15.4 7.9-8.7 11.5-21.8 6.7-32.6-3.2-6.8-9.4-12.1-16-16z"/></svg>
