<svg id="footer_backdrop" xmlns="http://www.w3.org/2000/svg" width="1828" height="646.395" viewBox="0 0 1828 646.395">
  <metadata><?xpacket begin="﻿" id="W5M0MpCehiHzreSzNTczkc9d"?>
<x:xmpmeta xmlns:x="adobe:ns:meta/" x:xmptk="Adobe XMP Core 5.6-c142 79.160924, 2017/07/13-01:06:39        ">
   <rdf:RDF xmlns:rdf="http://www.w3.org/1999/02/22-rdf-syntax-ns#">
      <rdf:Description rdf:about=""/>
   </rdf:RDF>
</x:xmpmeta>
                                                                                                    
                                                                                                    
                                                                                                    
                                                                                                    
                                                                                                    
                                                                                                    
                                                                                                    
                                                                                                    
                                                                                                    
                                                                                                    
                                                                                                    
                                                                                                    
                                                                                                    
                                                                                                    
                                                                                                    
                                                                                                    
                                                                                                    
                                                                                                    
                                                                                                    
                                                                                                    
                           
<?xpacket end="w"?></metadata>
<defs>
    <style>
      .cls-1 {
        fill: #fff;
      }

      .cls-1, .cls-3 {
        fill-rule: evenodd;
      }

      .cls-2 {
        opacity: 0.12;
      }

      .cls-3 {
        fill: none;
        stroke: #fff;
        stroke-width: 2.667px;
      }
    </style>
  </defs>
  <path id="Фигура_1" data-name="Фигура 1" class="cls-1" d="M-28,848s49.191-51.911,71-88c37.585-62.193,62.382-176.907,154-158,75.23,15.525,155.775,122.171,216,122,48.788-.138,92.612-64.487,157-64,53.545,0.4,48.737,1.526,134,40,28.37,12.8,56.759,15.184,95-7,103.988-60.324,106.256-85.878,247-75,123.56,9.55,215.29,149.244,286,182,37.79,17.506,78.79-29.91,155-190,26.28-55.194,68.14-180.087,215,44,59.17,90.289,182,114,182,114v80H-28Z" transform="translate(0 -201.605)"/>
  <g id="Группа_1" data-name="Группа 1" class="cls-2">
    <path id="Фигура_2" data-name="Фигура 2" class="cls-3" d="M1839,743s-83.86-30.912-125-90c-4.93-7.084-33.55-56.128-74-94-72.82-68.172-124.58-165.7-5-175,0,0,66.36-1.194,111,6,63.12,10.173,100-56,100-56" transform="translate(0 -201.605)"/>
    <path id="Фигура_10" data-name="Фигура 10" class="cls-3" d="M1337.62,726.981c-3.32-12.74-23.97-29.634-23.97-29.634S1311.29,672.318,1301,670c-24.73-5.568-28.57,23.517-34,41-6.97,22.45,23.54,23.119,38.16,39.882C1317.46,764.981,1345.49,757.113,1337.62,726.981Z" transform="translate(0 -201.605)"/>
    <path id="Фигура_9" data-name="Фигура 9" class="cls-3" d="M1188,621c17.03,1.737,63.43,78.416,86,1,11.63-39.881,48-40,48-40s30.19,0.214,24-35c-5.65-32.138-18.41-40.489-29-51-35.57-35.305-26.49-17.02-96-7-22.77,3.283-49.78-5.469-91-4-21.17.754,12.05,36.714-1,60C1109.57,579.681,1097.21,611.739,1188,621Z" transform="translate(0 -201.605)"/>
    <path id="Фигура_7" data-name="Фигура 7" class="cls-3" d="M1662,499c106.14-47.759,192.49,32.332,49,58-41.67,7.455.14,92.614,43,93,69.64,0.628,22.22,99.1,87,47,33.21-26.709,2-145,2-145l19-122s-40.93-28.881-82-8c-40.99,20.838-89.11,21.731-113,2C1612.27,378.8,1588.98,531.856,1662,499Z" transform="translate(0 -201.605)"/>
    <path id="Фигура_8" data-name="Фигура 8" class="cls-3" d="M1430,679c38.06-84.625-30.14-142.2,75-163,92-18.2,11.17-107.845,1-127,0,0-30.41-20.481-37,4-10.19,37.837,2.05,59.4-14,67-24.44,11.578-66-30-66-30s-34.54-47-61-31c-38.53,23.292,58.96,112.113,49,174-3.45,21.435-30.49,27.724-43,39-20.02,18.048-9.04,61.147,12,91C1363.45,727.758,1382.2,785.283,1430,679Z" transform="translate(0 -201.605)"/>
    <path id="Фигура_12" data-name="Фигура 12" class="cls-3" d="M1070,531c6.24-16.082,39.25-33.713,28-66-9.33-26.774-69.67-13.519-61-73,4.95-33.934,3.94-22.976,60-124,22.92-41.306-41.14-33.425-76-7-34.911,26.463-67.395,34.734-74,27,10.656,12.476-21.055-6.373-8-52,7.988-27.92-45.308-28.323-67,17-26.12,54.575,41.172,95.187,79,115,11.5,6.023,19.906,23.522,19,45-2.767,65.605,5,92,5,92s13.061,50.848,35,66C1056.34,603.006,1056.14,566.745,1070,531Z" transform="translate(0 -201.605)"/>
    <path id="Фигура_13" data-name="Фигура 13" class="cls-3" d="M1132,349c42.3,9.116,48.07,25.424,62,71,3.8,12.427,38.07,8.164,53-9,19.44-22.352,52.23-31.176,77-33,69.34-5.107,61.89-38.948,16-70-13.46-9.11,7.45-33.09,9-42,6.49-37.418-30.51-15.142-91-16a288.5,288.5,0,0,1-61-8s-33.83-20.095-67,13C1067.91,316.949,1109.6,344.174,1132,349Z" transform="translate(0 -201.605)"/>
    <path id="Фигура_14" data-name="Фигура 14" class="cls-3" d="M1104,388c-10.38,21.4,7.03,72.976,33,45C1175.12,391.936,1117.77,359.605,1104,388Z" transform="translate(0 -201.605)"/>
    <path id="Фигура_15" data-name="Фигура 15" class="cls-3" d="M1399,318s1.61,28.051,24,27c59.52-2.8,91.94-42.939,127,3,2.62,3.427,37.41,29.6,62,17,5.55-2.847,41.7-12.1,69-12,58.77,0.21,69.97-16.834,74-29,6.01-18.131-41.36-26.893-72-48-80.31-55.319-62.77,6.664-104,2-34.98-3.958-23.7-72.593-54-75-29.33-2.33-13.4,71.286-49,72C1394.07,276.644,1399,318,1399,318Z" transform="translate(0 -201.605)"/>
  </g>
</svg>
