<svg 
 xmlns="http://www.w3.org/2000/svg"
 xmlns:xlink="http://www.w3.org/1999/xlink"
 width="75px" height="999px">
<path fill-rule="evenodd"  opacity="0.851" fill="rgb(183, 75, 255)"
 d="M-0.000,0.000 L41.000,0.000 C41.000,0.000 65.770,20.497 41.000,63.000 C3.676,127.044 140.001,146.935 23.000,251.000 C-27.246,295.691 97.544,303.136 61.000,389.000 C49.897,415.087 28.713,493.526 16.000,519.000 C-10.548,572.196 129.642,604.706 29.000,721.000 C-13.507,770.118 15.584,738.079 45.000,795.000 C72.076,847.393 65.028,879.535 68.000,890.000 C73.147,908.126 29.761,926.254 46.381,945.022 C75.461,977.859 41.000,999.000 41.000,999.000 L-0.000,999.000 "/>
<path fill-rule="evenodd"  opacity="0.749" fill="rgb(104, 242, 250)"
 d="M29.000,823.000 C29.000,823.000 37.325,797.762 49.000,775.000 C83.895,706.970 32.000,674.000 32.000,674.000 L7.000,795.000 L29.000,823.000 Z"/>
<path fill-rule="evenodd"  opacity="0.749" fill="rgb(0, 242, 255)"
 d="M41.000,0.000 C41.000,0.000 86.749,36.757 44.000,125.000 C7.840,199.642 71.286,201.039 73.000,248.000 C74.425,287.040 36.893,317.747 20.000,338.000 C-11.359,375.596 31.068,430.118 40.000,472.000 C53.528,535.436 86.126,537.890 42.000,593.000 C-1.940,647.877 54.607,694.164 19.000,729.000 C6.665,741.068 11.573,810.818 27.000,863.000 C30.094,873.466 60.786,877.757 67.000,889.000 C95.541,940.638 35.000,988.000 35.000,988.000 L-0.000,999.000 L-0.000,37.000 "/>
<path fill-rule="evenodd"  fill="rgb(111, 119, 248)"
 d="M-0.000,0.000 L41.000,0.000 C41.000,0.000 76.702,29.156 41.000,63.000 C10.692,91.731 7.397,108.357 6.625,117.526 C2.896,161.774 70.016,148.860 34.000,223.000 C-33.249,361.432 98.605,328.246 14.000,525.000 C-32.395,632.895 94.317,565.406 20.000,753.000 C-1.130,806.337 44.309,835.689 62.000,875.000 C79.479,913.840 52.243,928.230 39.970,949.350 C22.276,979.796 41.000,999.000 41.000,999.000 L-0.000,999.000 "/>
<path fill-rule="evenodd"  opacity="0.651" fill="rgb(183, 75, 255)"
 d="M35.000,988.000 C35.092,987.987 12.537,926.567 14.000,893.000 C15.128,867.112 23.021,842.964 29.000,823.000 C28.888,823.373 49.331,852.507 45.000,847.000 C72.387,881.826 74.183,908.771 56.000,929.000 C53.737,931.518 38.998,950.163 37.000,955.000 C31.047,969.410 35.000,988.000 35.000,988.000 Z"/>
</svg>